<?xml version="1.0" encoding="utf-8" ?>
<svg baseProfile="full" height="200mm" version="1.1" viewBox="0,0,200,200" width="200mm" xmlns="http://www.w3.org/2000/svg" xmlns:ev="http://www.w3.org/2001/xml-events" xmlns:xlink="http://www.w3.org/1999/xlink"><defs /><rect fill="#1a1a1a" height="200" width="200" x="0" y="0" /><text alignment-baseline="middle" fill="#e1ed5e" style="dominant-baseline: central; font-size:9.0px; font-family:Arial;" text-anchor="middle" x="100.0" y="100.0">2023</text><line stroke="#e1ed5e" stroke-width="0.3" x1="100.0" x2="100.0" y1="15.0" y2="10.0" /><path d="M 100.0 14.0 a86.0,86.0 0 0,1 42.46469731375804,11.215312516191453" fill="none" id="id277" stroke="none" /><text fill="#e1ed5e" style="font-size:6.75px; font-family:Arial;" text-anchor="middle"><textPath startOffset="22.20632615414155" xlink:href="#id277">January</textPath></text><path d="M 105.36241919743992 79.69619591428918 l 1.2966862913004535 -4.909661749637265 a26.07800884539381,26.07800884539381 0 0,0 0.4330217490110267,0.11836120149604745 l -1.3810059295351913 4.8866140073149245" fill="#ff1e03" stroke="none" /><path d="M 106.0581310904928 79.89281104454417 l 1.721610604430999 -5.714097171871328 a26.967817822527525,26.967817822527525 0 0,0 0.44331834182900426,0.1377411667693838 l -1.8197143189707214 5.683615870219423" fill="#ff2b04" stroke="none" /><path d="M 106.40334571778207 80.00007090966166 l 0.9369721079468445 -2.92649757556 a24.072833349016655,24.072833349016655 0 0,0 0.3935532002863339,0.12974830253825015 l -0.9872081304755959 2.9099355487625136" fill="#ff0000" stroke="none" /><path d="M 109.41281617654863 81.2277094730956 l 3.394682444776063 -6.770127441635071 a28.573539098522634,28.573539098522634 0 0,0 0.437773168448681,0.22424442008152595 l -3.5107161008134997 6.710690496241045" fill="#ff4306" stroke="none" /><path d="M 109.73455568895987 81.39251694778311 l 4.418623820637714 -8.44614489697611 a30.532135127505413,30.532135127505413 0 0,0 0.4635867869272407,0.24763200654939285 l -4.563355654093266 8.368834163924964" fill="#ff5f08" stroke="none" /><path d="M 110.05341064243156 81.56283822128135 l 8.690526081224915 -15.937739042057478 a39.153147642796654,39.153147642796654 0 0,0 0.5889302941602617,0.32773907107888517 l -8.96358046445721 15.785784573418413" fill="#ffd413" stroke="none" /><line stroke="#e1ed5e" stroke-width="0.3" x1="143.23703022742887" x2="145.7803849466894" y1="26.81831364943548" y2="22.513508569990506" /><path d="M 143.74570117128098 25.957352633546492 a86.0,86.0 0 0,1 28.547481713284135,27.462654790039103" fill="none" id="id278" stroke="none" /><text fill="#e1ed5e" style="font-size:6.75px; font-family:Arial;" text-anchor="middle"><textPath startOffset="19.985693538727396" xlink:href="#id278">February</textPath></text><path d="M 110.68208982089419 81.91981866633111 l 7.885093685291118 -13.346070483715225 a36.501364449044885,36.501364449044885 0 0,0 0.538200336582821,0.32425968082648154 l -8.113656088091577 13.208364193430128" fill="#ffb110" stroke="none" /><path d="M 110.99172775467656 82.1063720568725 l 3.0783605126706104 -5.011317503302191 a26.881292933094947,26.881292933094947 0 0,0 0.39218634829386284,0.24558705532237218 l -3.1641660133367364 4.9575861066568745" fill="#ff2a04" stroke="none" /><path d="M 111.2981086023043 82.29822771554956 l 7.986620197965728 -12.513362815254524 a35.84487625858662,35.84487625858662 0 0,0 0.5172466410968547,0.3364316035207627 l -8.200833864846862 12.374032287574234" fill="#ffa80f" stroke="none" /><path d="M 112.19680574252982 82.90503203632743 l 9.778972516082147 -13.706147774178193 a37.83706596405383,37.83706596405383 0 0,0 0.5269346265056282,0.3828404156349574 l -10.013452458941565 13.535788123726562" fill="#ffc312" stroke="none" /><path d="M 112.48926042617603 83.11751280151076 l 1.9574438063260207 -2.645994948812138 a24.291333396066623,24.291333396066623 0 0,0 0.33401028325960375,0.2515696205917656 l -2.0027002433440075 2.6119087387145252" fill="#ff0300" stroke="none" /><path d="M 112.77801427241765 83.33499621200491 l 12.203691580624128 -15.915975838094422 a41.05613061070858,41.05613061070858 0 0,0 0.5571266969130629,0.43484622393788086 l -12.47585083269662 15.703551224933316" fill="#ffed16" stroke="none" /><path d="M 113.34407831869373 83.78471172551755 l 10.598002649687253 -12.878346783806217 a37.678413475110574,37.678413475110574 0 0,0 0.4972518244745203,0.41643410280048976 l -10.81811201112089 12.694011523611909" fill="#ffc111" stroke="none" /><path d="M 114.16331599549186 84.49514656593476 l 9.617152212105104 -10.528080821556763 a35.25938646842947,35.25938646842947 0 0,0 0.4445908361462277,0.4131987289382081 l -9.79695093204618 10.360977506543914" fill="#ffa00e" stroke="none" /><path d="M 114.42810811169701 84.74124197986012 l 4.193207104825088 -4.4346169328316565 a27.103180577773596,27.103180577773596 0 0,0 0.33623012818611814,0.32345311692026424 l -4.268920476623625 4.361780729149091" fill="#ff2d04" stroke="none" /><path d="M 114.68862486808459 84.99185889309783 l 14.37624797712881 -14.688969196658476 a41.55340171261881,41.55340171261881 0 0,0 0.5068806619066099,0.504703955258239 l -14.626964439202743 14.439329390750117" fill="#fff316" stroke="none" /><path d="M 114.94478906791727 85.2469230424477 l 13.332060112793451 -13.161036127903415 a39.73383833631317,39.73383833631317 0 0,0 0.47630604997587755,0.49087525298395784 l -13.556630426472436 12.929596679369343" fill="#ffdc14" stroke="none" /><path d="M 115.4437574822437 85.77008943001954 l 6.124438367583769 -5.643070370813209 a29.32784417050908,29.32784417050908 0 0,0 0.33888513785695024,0.37420543337528156 l -6.220667146056756 5.5368121501683785" fill="#ff4e07" stroke="none" /><path d="M 116.15771136456269 86.58626213691792 l 15.926387343494266 -13.221698303144683 a41.6993507104545,41.6993507104545 0 0,0 0.45373164365588214,0.5562213452886663 l -16.15161747922656 12.945592788247914" fill="#fff517" stroke="none" /><path d="M 116.38621287248628 86.86637796730983 l 10.760108704179519 -8.624274678418175 a34.78978074715348,34.78978074715348 0 0,0 0.370504404815788,0.4705029688046541 l -10.90696718958927 8.437779315660482" fill="#ff9a0e" stroke="none" /><path d="M 116.60985879189232 87.15038557335679 l 3.5813605518632725 -2.7705896113154345 a25.527947680436625,25.527947680436625 0 0,0 0.26588458830531064,0.3498729515686722 l -3.6285210803926966 2.7085318838657284" fill="#ff1602" stroke="none" /><path d="M 116.82858285166822 87.43820079747576 l 15.24331763324794 -11.378468227357367 a40.0217841347511,40.0217841347511 0 0,0 0.40734055159549026,0.5556120545977294 l -15.436920797357057 11.114393729088142" fill="#ffe014" stroke="none" /><path d="M 117.45458315368197 88.32363383020206 l 7.90570205537118 -5.288574995752088 a30.511527241930935,30.511527241930935 0 0,0 0.28826617453178244,0.4390491606173634 l -7.995564865260888 5.15170777115705" fill="#ff5f08" stroke="none" /><path d="M 117.65298651832404 88.62581576622439 l 5.182297377127809 -3.339061357152158 a27.164863084595844,27.164863084595844 0 0,0 0.24988104284289914,0.39525180071522786 l -5.239006016216663 3.249361908722724" fill="#ff2e04" stroke="none" /><line stroke="#e1ed5e" stroke-width="0.3" x1="172.23445277983987" x2="176.4835382374775" y1="55.19839476539836" y2="52.563006222186495" /><path d="M 173.08426987136738 54.67131705675599 a86.0,86.0 0 0,1 12.851231095245387,41.99856678651699" fill="none" id="id279" stroke="none" /><text fill="#e1ed5e" style="font-size:6.75px; font-family:Arial;" text-anchor="middle"><textPath startOffset="22.20632615414155" xlink:href="#id279">March</textPath></text><path d="M 117.84615892207809 88.93136811851018 l 10.359979659506378 -6.4255172024124025 a33.19083466641573,33.19083466641573 0 0,0 0.29695397502444976,0.4881142561497508 l -10.469049432817052 6.24623517305557" fill="#ff840c" stroke="none" /><path d="M 118.03404312379186 89.2402003453031 l 13.463652367211104 -8.032929781595053 a36.67794297543992,36.67794297543992 0 0,0 0.31881922145217023,0.5449653962308134 l -13.5999312631336 7.799984973010344" fill="#ffb410" stroke="none" /><path d="M 118.21658344932153 89.55222093294921 l 12.489510399149024 -7.1631239561995 a35.397854521501834,35.397854521501834 0 0,0 0.298593306815531,0.5311641748883068 l -12.610961347256989 6.947076271376399" fill="#ffa20f" stroke="none" /><path d="M 118.56541770881063 90.18545643968196 l 9.26598752482043 -4.8984321073775465 a31.481085913239863,31.481085913239863 0 0,0 0.2491361672693528,0.48125177671502856 l -9.3489331252499 4.738207608402173" fill="#ff6c0a" stroke="none" /><path d="M 118.73160827565052 90.50648371742162 l 11.564197798858032 -5.860943624425825 a33.9646184247671,33.9646184247671 0 0,0 0.25981313637128683,0.5237674289120346 l -11.663370948182726 5.661016607014839" fill="#ff8f0d" stroke="none" /><path d="M 118.89224826269711 90.83032412892265 l 11.281406660625478 -5.475623706046952 a33.54003952197234,33.54003952197234 0 0,0 0.24762420505264152,0.5215597278864806 l -11.373989059519875 5.280621562519931" fill="#ff890c" stroke="none" /><path d="M 119.34039704204932 91.81776055985345 l 12.679842906064964 -5.364394045029065 a34.76790251246824,34.76790251246824 0 0,0 0.22843888281788127,0.5531828743531492 l -12.770303475769042 5.145336600222613" fill="#ff9a0e" stroke="none" /><path d="M 119.7369772167798 92.82701384747503 l 17.332769349355186 -6.299227747100713 a39.441940340641764,39.441940340641764 0 0,0 0.2264097330927455,0.6400908041157417 l -17.43863216325774 5.999939316558357" fill="#ffd814" stroke="none" /><path d="M 119.97218684219823 93.5106431181261 l 9.771575450876146 -3.1749773272156023 a31.27444245789028,31.27444245789028 0 0,0 0.16194876740487388,0.5134218491649621 l -9.824779702049225 3.006305311624221" fill="#ff6909" stroke="none" /><path d="M 120.37134235888165 94.90015583598534 l 29.166819833811566 -7.30173953644636 a51.06690505316647,51.06690505316647 0 0,0 0.20613326384302533,0.8545554575776 l -29.28818589791541 6.7985988472093535" fill="#99ff23" stroke="none" /><path d="M 120.53481517161879 95.60439243477599 l 10.314887565504222 -2.2079671737211584 a31.548555566011103,31.548555566011103 0 0,0 0.10909896752707475,0.5320053113717059 l -10.351365828946294 2.0300862061860405" fill="#ff6d0a" stroke="none" /><path d="M 120.67395015179393 96.31383870115 l 12.229727196624399 -2.180557985130785 a33.42260280417804,33.42260280417804 0 0,0 0.09611089364253741,0.5672519348039992 l -12.26544995178716 1.969720262010948" fill="#ff870c" stroke="none" /><path d="M 120.91429891909075 98.10471618934814 l 14.183903271560702 -1.2853656891124574 a35.24202503058248,35.24202503058248 0 0,0 0.04954947525115401,0.6046291022825869 l -14.20392723063135 1.0410226696221017" fill="#ffa00e" stroke="none" /><path d="M 120.94382443527127 98.46500227214037 l 9.219179329376086 -0.6756845850698854 a30.24390702926508,30.24390702926508 0 0,0 0.033584287506660246,0.5195340629705376 l -9.229444207887163 0.5168914578463124" fill="#ff5b08" stroke="none" /><line stroke="#e1ed5e" stroke-width="0.3" x1="184.98032266829074" x2="189.97916517819016" y1="98.17113171792111" y2="98.06355123074" /><path d="M 185.9800911702706 98.14961562048488 a86.0,86.0 0 0,1 -9.607161424134198,41.387399972396054" fill="none" id="id280" stroke="none" /><text fill="#e1ed5e" style="font-size:6.75px; font-family:Arial;" text-anchor="middle"><textPath startOffset="21.466115282336823" xlink:href="#id280">April</textPath></text><path d="M 120.99824983174949 100.27111621757518 l 14.533417440244799 0.18764636083540273 a35.534628775759856,35.534628775759856 0 0,0 -0.01316124357759002,0.6115512729370122 l -14.528034133982201 -0.43778744956252974" fill="#ffa40f" stroke="none" /><path d="M 120.95626037817324 101.35467743843564 l 10.003164065095167 0.6466354410288074 a31.024042533170228,31.024042533170228 0 0,0 -0.039036284184300774,0.5326190832226027 l -9.990551222246529 -0.8187276607481804" fill="#ff6609" stroke="none" /><path d="M 120.92983693683757 101.71520430193887 l 15.797892351913495 1.2946404219651515 a36.85085160440388,36.85085160440388 0 0,0 -0.05725113862510774,0.631761544067627 l -15.773266617011313 -1.566383354581349" fill="#ffb610" stroke="none" /><path d="M 120.81339534386255 102.79330883721812 l 10.437614611068739 1.400803696412396 a31.53119412816411,31.53119412816411 0 0,0 -0.07682492714987067,0.5373133615537264 l -10.411955632902266 -1.5802625299465318" fill="#ff6d0a" stroke="none" /><path d="M 120.76222939487914 103.15116336523771 l 14.030951014594459 2.129531370438469 a35.19163451585584,35.19163451585584 0 0,0 -0.09605346436226599,0.598125014274022 l -13.992215795870903 -2.370735614405696" fill="#ffa00e" stroke="none" /><path d="M 120.49622156327973 104.57218783832717 l 51.15885997907658 11.41224574963012 a73.41629810859132,73.41629810859132 0 0,0 -0.2857622218509562,1.2310561726417275 l -50.95483719129507 -12.291170579620413" fill="#3fffc1" stroke="none" /><path d="M 120.13307415673323 105.97154293290107 l 6.844227584892232 2.0300227649070277 a28.138938552743014,28.138938552743014 0 0,0 -0.14173077852263047,0.4631843846999197 l -6.808270033863468 -2.1475341221590045" fill="#ff3c05" stroke="none" /><line stroke="#e1ed5e" stroke-width="0.3" x1="174.80103733775053" x2="179.2010983576182" y1="140.37084112569926" y2="142.7455964860345" /><path d="M 175.68104954172406 140.8457921977663 a86.0,86.0 0 0,1 -30.038265399797805,32.042727171017184" fill="none" id="id281" stroke="none" /><text fill="#e1ed5e" style="font-size:6.75px; font-family:Arial;" text-anchor="middle"><textPath startOffset="22.206326154141568" xlink:href="#id281">May</textPath></text><path d="M 117.14729908036423 112.12312394758627 l 5.816998023128849 4.11261200418494 a28.12397666321634,28.12397666321634 0 0,0 -0.28287391381086935,0.3928871254316335 l -5.745344316942377 -4.212132735067705" fill="#ff3c05" stroke="none" /><path d="M 116.93607887273984 112.41649034213515 l 5.7518328871324975 4.216889755255512 a28.132022207584455,28.132022207584455 0 0,0 -0.2896777546416001,0.3880706908045307 l -5.6783938657958055 -4.315273325569357" fill="#ff3c05" stroke="none" /><path d="M 116.498646956653 112.99209946851258 l 7.0869283836240795 5.580704813441725 a30.020466735673285,30.020466735673285 0 0,0 -0.3231947524137533,0.403235147101116 l -6.989815719155472 -5.701867794121092" fill="#ff5708" stroke="none" /><path d="M 115.56566222782051 114.09645910891815 l 6.612618232851416 5.988470079716513 a29.921238355133152,29.921238355133152 0 0,0 -0.3490149910621924,0.37878684150011055 l -6.508556833793501 -6.101408176017958" fill="#ff5608" stroke="none" /><path d="M 114.81725581225074 114.88116024355365 l 6.571149891061202 6.599490199287998 a30.313070480850662,30.313070480850662 0 0,0 -0.37292300963636543,0.3649836548182815 l -6.456576929049042 -6.711623957028851" fill="#ff5c08" stroke="none" /><path d="M 114.55890576462653 115.13401014063108 l 5.05615146024606 5.255879027519305 a28.29307424484803,28.29307424484803 0 0,0 -0.35388460662104465,0.33461998392363307 l -4.964931019234207 -5.34213364818886" fill="#ff3f05" stroke="none" /><path d="M 113.48314897796784 116.09983520530334 l 12.087509204206228 14.433342429747333 a39.826291521595934,39.826291521595934 0 0,0 -0.5293670301411777,0.43563302668226467 l -11.83727204552036 -14.639270575286776" fill="#ffdd14" stroke="none" /><path d="M 111.45004920935366 117.60387380957326 l 4.134248299326981 6.3561984781114536 a28.58243154229792,28.58243154229792 0 0,0 -0.4147422396517141,0.2647081201956282 l -4.024224257628337 -6.426421027130891" fill="#ff4306" stroke="none" /><line stroke="#e1ed5e" stroke-width="0.3" x1="143.8653032363475" x2="146.44561519142675" y1="172.8068346515853" y2="177.08958963109032" /><path d="M 144.38136562736335 173.6633856474863 a86.0,86.0 0 0,1 -40.68145358897372,12.25698825130547" fill="none" id="id282" stroke="none" /><text fill="#e1ed5e" style="font-size:6.75px; font-family:Arial;" text-anchor="middle"><textPath startOffset="21.466115282336833" xlink:href="#id282">June</textPath></text><path d="M 109.57404056367764 118.69057910512821 l 4.212621606823785 8.223940232823457 a30.240095981932814,30.240095981932814 0 0,0 -0.46533184989808785,0.23332704966964343 l -4.070435849242937 -8.295235123402403" fill="#ff5b08" stroke="none" /><path d="M 108.92500713936063 119.00905698771935 l 3.9026884987389567 8.312198177486307 a30.182789122047616,30.182789122047616 0 0,0 -0.4721910573140778,0.21675975490403965 l -3.7590294456574593 -8.378145002724422" fill="#ff5a08" stroke="none" /><path d="M 107.59598834532513 119.57807347666477 l 10.444547794643745 26.920015521076976 a49.875176437376496,49.875176437376496 0 0,0 -0.8030610665863076,0.30364898017900555 l -9.979616507297163 -27.09581275136261" fill="#a6ff21" stroke="none" /><path d="M 106.91757812671514 119.82793768551818 l 3.148381936134793 9.02424514712856 a30.55768325962172,30.55768325962172 0 0,0 -0.49813427957552053,0.16899419338503305 l -2.9925779236220453 -9.077102327411717" fill="#ff5f08" stroke="none" /><path d="M 105.53697534728816 120.25689768951611 l 6.75703921970308 24.72047346654905 a46.62731721087795,46.62731721087795 0 0,0 -0.776032999583895,0.2049573684442819 l -6.3305157773076886 -24.83312218429691" fill="#ccff1d" stroke="none" /><path d="M 102.34483914955558 120.86867818915974 l 0.6514825517618856 5.798086287133227 a26.83457231579938,26.83457231579938 0 0,0 -0.45946845184719826,0.04762578368711736 l -0.5515815033090847 -5.808441439276103" fill="#ff2904" stroke="none" /><path d="M 101.62511606390274 120.93702456842531 l 0.4729481195799145 6.0931810466848555 a27.111508421944105,27.111508421944105 0 0,0 -0.465591407067081,0.03210990938640129 l -0.36799395173390315 -6.100419300587542" fill="#ff2d04" stroke="none" /><path d="M 101.26447882468166 120.96189622390904 l 0.3656142042516755 6.060969039509328 a27.071986449609486,27.071986449609486 0 0,0 -0.46539572000274415,0.02405564278479833 l -0.26123041583545176 -6.066364489056329" fill="#ff2d04" stroke="none" /><line stroke="#e1ed5e" stroke-width="0.3" x1="102.19456741930631" x2="102.32365962044197" y1="184.97166512339345" y2="189.96999836594603" /><path d="M 102.22038585953345 185.97133177190398 a86.0,86.0 0 0,1 -42.740103519485714,-10.115201625700543" fill="none" id="id283" stroke="none" /><text fill="#e1ed5e" style="font-size:6.75px; font-family:Arial;" text-anchor="middle"><textPath startOffset="22.20632615414155" xlink:href="#id283">July</textPath></text><path d="M 99.81925306533755 120.99922214144158 l -0.06568109717559449 7.630845594475643 a28.631128258210218,28.631128258210218 0 0,0 -0.492783041731919,-0.00848370695761938 l 0.19702382880018143 -7.628584410238864" fill="#ff4406" stroke="none" /><path d="M 98.73552117531835 120.96189622390904 l -0.4486333949888121 7.437219575980738 a28.45073868448292,28.45073868448292 0 0,0 -0.48859027871295313,-0.03369604622941226 l 0.5765864344806954 -7.428395185235041" fill="#ff4106" stroke="none" /><path d="M 97.2962882734958 120.8252237178851 l -1.2224292348785282 9.415708799896334 a30.49473040368872,30.49473040368872 0 0,0 -0.5199662417631713,-0.07206258316518688 l 1.3843240678285305 -9.393271651238543" fill="#ff5e08" stroke="none" /><path d="M 96.93821686468263 120.77559828337769 l -1.2446507146486314 8.445524097505565 a29.536746024277782,29.536746024277782 0 0,0 -0.5023555421702733,-0.07845760422346947 l 1.3898421204274218 -8.422848185934988" fill="#ff5107" stroke="none" /><path d="M 94.81253420990036 120.34920634021253 l -3.611818993835389 14.168315116280201 a35.621435964994824,35.621435964994824 0 0,0 -0.5928586814544872,-0.15657936618083532 l 3.855168118101366 -14.104044400795784" fill="#ffa50f" stroke="none" /><path d="M 94.46302465271185 120.25689768951611 l -2.431158602492294 8.894338151928647 a30.220617295567894,30.220617295567894 0 0,0 -0.5006100398936526,-0.14147739773247767 l 2.5838998104905606 -8.851171960857648" fill="#ff5a08" stroke="none" /><path d="M 94.11515582081647 120.15858648285463 l -1.9806536411864415 6.784746800887651 a28.067940152441892,28.067940152441892 0 0,0 -0.4626198334606476,-0.13938356089333273 l 2.097148449087335 -6.749647870888592" fill="#ff3b05" stroke="none" /><path d="M 93.76903079525671 120.05430185196036 l -2.722389676000002 8.761979481394961 a30.175167027383083,30.175167027383083 0 0,0 -0.49469837694493596,-0.15838679823792007 l 2.872809398035878 -8.713819836497334" fill="#ff5a08" stroke="none" /><path d="M 92.40401165467489 119.57807347666478 l -3.6622366479598516 9.43913220019872 a31.124682412722315,31.124682412722315 0 0,0 -0.49781546844400354,-0.19809104863425422 l 3.824173192445713 -9.3746943071584" fill="#ff6709" stroke="none" /><path d="M 91.7346041902142 119.30500536409082 l -2.8508165587597505 6.658486807581232 a28.243107179824975,28.243107179824975 0 0,0 -0.4452718509840714,-0.1951940941379315 l 2.965009084401565 -6.608428160148849" fill="#ff3e05" stroke="none" /><path d="M 91.40352486487194 119.15986991738527 l -3.600364046733819 8.024510710065963 a29.795191493365955,29.795191493365955 0 0,0 -0.4661273322766215,-0.2139761961462755 l 3.73795937477786 -7.9613474435856135" fill="#ff5407" stroke="none" /><path d="M 90.7491055286396 118.85261126421891 l -13.315858552509388 27.136695345187274 a51.227674790627646,51.227674790627646 0 0,0 -0.7882868060518897,-0.39526336912007204 l 13.780999266244038 -26.9034641351579" fill="#97ff23" stroke="none" /><path d="M 90.42595943632237 118.69057910512821 l -14.814543644399592 28.921164272325125 a53.49468335372166,53.49468335372166 0 0,0 -0.8159444640314992,-0.42686357966435834 l 15.310179010957588 -28.661871273716052" fill="#7dff26" stroke="none" /><path d="M 90.10565033884886 118.52300852407294 l -3.6951018018314503 6.917524093713723 a28.842570810200435,28.842570810200435 0 0,0 -0.4359035248676686,-0.23768935742790906 l 3.8136281385677595 -6.852894084526048" fill="#ff4706" stroke="none" /><line stroke="#e1ed5e" stroke-width="0.3" x1="58.666819895761336" x2="56.23545636021788" y1="174.27360380694188" y2="178.64263932499728" /><path d="M 58.180547188652646 175.14741091055294 a86.0,86.0 0 0,1 -31.652253787137756,-30.449443065178592" fill="none" id="id284" stroke="none" /><text fill="#e1ed5e" style="font-size:6.75px; font-family:Arial;" text-anchor="middle"><textPath startOffset="22.20632615414155" xlink:href="#id284">August</textPath></text><path d="M 89.7882731507175 118.34994917583269 l -6.937107777562088 12.465626727420952 a35.265879363884444,35.265879363884444 0 0,0 -0.5278986982688108,-0.29975465818675007 l 7.150655242752106 -12.34436890343957" fill="#ffa10e" stroke="none" /><path d="M 89.1626897886671 117.98757091392108 l -5.866124466917567 9.736486986247247 a32.367083843041314,32.367083843041314 0 0,0 -0.47474928862817284,-0.2916297884874418 l 6.032852955478049 -9.634068730931427" fill="#ff790b" stroke="none" /><path d="M 88.8546689885994 117.79835938074946 l -4.558575076326803 7.279744082037437 a29.58925378752235,29.58925378752235 0 0,0 -0.42935162347190736,-0.2740325201687476 l 4.683208501845634 -7.2001971330448855" fill="#ff5107" stroke="none" /><path d="M 88.24862548938628 117.40417183066458 l -10.918388480495468 16.170492145992192 a40.511433141996804,40.511433141996804 0 0,0 -0.5745738788287533,-0.3951971531027593 l 11.195119243947111 -15.980154203524332" fill="#ffe615" stroke="none" /><path d="M 85.97065885151581 115.62618273729859 l -4.792369677292768 5.3378447020055955 a28.173520278535804,28.173520278535804 0 0,0 -0.3580726312117102,-0.32709085879175304 l 4.883541857971333 -5.254561076627267" fill="#ff3d05" stroke="none" /><path d="M 84.9287848128048 114.62390073753433 l -10.282155183768346 9.976980283786647 a35.32699727110192,35.32699727110192 0 0,0 -0.41970735136158926,-0.4400614799347476 l 10.452369086508893 -9.798511687269398" fill="#ffa10e" stroke="none" /><path d="M 84.19399662182784 113.82643327865904 l -11.017499766990719 9.637649808192982 a35.63795050343465,35.63795050343465 0 0,0 -0.3999214276038196,-0.465198970092348 l 11.181763704165316 -9.446573738939104" fill="#ffa60f" stroke="none" /><path d="M 83.95833913139862 113.55231037782056 l -11.10779726184279 9.384085434759822 a35.54112167121483,35.54112167121483 0 0,0 -0.3907898648644774,-0.4707315667808835 l 11.267683126600804 -9.191492610865177" fill="#ffa40f" stroke="none" /><path d="M 83.50135304334701 112.99209946851258 l -23.546318722882994 18.54189108771959 a50.97049967065023,50.97049967065023 0 0,0 -0.5368727166731675,-0.6939803574705765 l 23.86199825677423 -18.133832736135762" fill="#9aff23" stroke="none" /><path d="M 82.44556493220864 111.52570212397912 l -7.654889055459145 5.025964703769329 a30.157382139832503,30.157382139832503 0 0,0 -0.281174702679007,-0.4363893826290377 l 7.740268621515197 -4.893453721218843" fill="#ff5908" stroke="none" /><line stroke="#e1ed5e" stroke-width="0.3" x1="26.63291911575756" x2="22.317208475507996" y1="142.92168965132927" y2="145.44649492493687" /><path d="M 25.769776987707644 143.4266507060508 a86.0,86.0 0 0,1 -11.730757126820373,-40.83630448921669" fill="none" id="id285" stroke="none" /><text fill="#e1ed5e" style="font-size:6.75px; font-family:Arial;" text-anchor="middle"><textPath startOffset="21.46611528233685" xlink:href="#id285">September</textPath></text><path d="M 81.87401531095188 110.60418214915194 l -10.597349918721005 6.199730980922469 a33.2776418556507,33.2776418556507 0 0,0 -0.2849960695473752,-0.49691466964604775 l 10.702497984420756 -6.016396465418115" fill="#ff850c" stroke="none" /><path d="M 81.69416730710424 110.29060199501025 l -3.9431032834775976 2.2166108035737357 a25.52343088359838,25.52343088359838 0 0,0 -0.21199468846825145,-0.3848319375896553 l 3.9806743813973657 -2.148408347586258" fill="#ff1602" stroke="none" /><path d="M 81.18737489456691 109.33194174019688 l -5.461905264415319 2.7093604126134534 a27.096969982121013,27.096969982121013 0 0,0 -0.20367468891840568,-0.4196301856220435 l 5.5077332099484435 -2.614941271026125" fill="#ff2d04" stroke="none" /><path d="M 79.58551787078972 104.9243191809786 l -5.654467690536414 1.3639534684492818 a26.816646278347605,26.816646278347605 0 0,0 -0.1043798804967913,-0.4496657933049001 l 5.677108136963761 -1.2664190177958075" fill="#ff2904" stroke="none" /><path d="M 79.1416061653843 102.43462659150553 l -26.72105803888061 3.1189265563994475 a47.90246541827421,47.90246541827421 0 0,0 -0.08854587904585033,-0.8198248696245134 l 26.770786219427514 -2.6585053648901518" fill="#bdff1f" stroke="none" /><line stroke="#e1ed5e" stroke-width="0.3" x1="15.007084014347285" x2="10.007500721073583" y1="101.09737516637583" y2="101.16192664675087" /><path d="M 14.007167355692545 101.11028546245083 a86.0,86.0 0 0,1 10.666146001902534,-42.60595125391555" fill="none" id="id286" stroke="none" /><text fill="#e1ed5e" style="font-size:6.75px; font-family:Arial;" text-anchor="middle"><textPath startOffset="22.20632615414155" xlink:href="#id286">October</textPath></text><path d="M 79.12142395522702 97.74499172005258 l -53.792315622970115 -5.8098845853863255 a75.10515667639032,75.10515667639032 0 0,0 0.14988717161512694,-1.2841417518452505 l 53.684338098351404 6.734970075556438" fill="#42ffd3" stroke="none" /><path d="M 79.81627453868168 94.20196356495316 l -27.615907744134752 -7.933027011997784 a49.73275618707068,49.73275618707068 0 0,0 0.24343971697200648,-0.820757705263711 l 27.47526213005104 8.407214104008034" fill="#a8ff21" stroke="none" /><line stroke="#e1ed5e" stroke-width="0.3" x1="26.266209847984243" x2="21.928928074336255" y1="57.711370442889674" y2="55.22380399835377" /><path d="M 25.398753493254645 57.213857153982495 a86.0,86.0 0 0,1 29.58750427330803,-30.492523968695096" fill="none" id="id287" stroke="none" /><text fill="#e1ed5e" style="font-size:6.75px; font-family:Arial;" text-anchor="middle"><textPath startOffset="21.46611528233685" xlink:href="#id287">November</textPath></text><path d="M 82.7489923806493 88.02491185347247 l -51.75302285805211 -35.92526443958256 a84.0,84.0 0 0,0 0.834749520784487,-1.1806939986728553 l 51.12696071746375 36.810784938587204" fill="#4dd2ff" stroke="none" /><path d="M 84.07557802195018 86.31012108654704 l -45.87939236090869 -39.44151485745526 a81.50249364825446,81.50249364825446 0 0,0 0.9237265060466517,-1.0559790786837369 l 45.19367399128419 40.22540949234194" fill="#4aeaff" stroke="none" /><path d="M 87.22198572758235 83.33499621200491 l -7.650679088122519 -9.977966315119268 a33.573492048555565,33.573492048555565 0 0,0 0.4616416647991681,-0.3476989310913307 l 7.477791269564961 10.108181835716454" fill="#ff890c" stroke="none" /><line stroke="#e1ed5e" stroke-width="0.3" x1="56.762969772571076" x2="54.21961505331055" y1="26.818313649435495" y2="22.513508569990535" /><path d="M 56.25429882871897 25.957352633546506 a86.0,86.0 0 0,1 42.265352541879196,-11.944610805530505" fill="none" id="id288" stroke="none" /><text fill="#e1ed5e" style="font-size:6.75px; font-family:Arial;" text-anchor="middle"><textPath startOffset="22.20632615414155" xlink:href="#id288">December</textPath></text><path d="M 96.75951476605007 79.25152402106235 l -0.9149843672653362 -5.858545802465362 a26.92956619930366,26.92956619930366 0 0,0 0.45861181983196025,-0.0675874608502683 l 0.8140035670047272 5.873427747476599" fill="#ff2b04" stroke="none" /></svg>