<?xml version="1.0" encoding="utf-8" ?>
<svg baseProfile="full" height="200mm" version="1.1" viewBox="0,0,200,200" width="200mm" xmlns="http://www.w3.org/2000/svg" xmlns:ev="http://www.w3.org/2001/xml-events" xmlns:xlink="http://www.w3.org/1999/xlink"><defs /><rect fill="#1a1a1a" height="200" width="200" x="0" y="0" /><text alignment-baseline="middle" fill="#e1ed5e" style="dominant-baseline: central; font-size:9.0px; font-family:Arial;" text-anchor="middle" x="100.0" y="100.0">2023</text><line stroke="#e1ed5e" stroke-width="0.3" x1="100.0" x2="100.0" y1="15.0" y2="10.0" /><path d="M 100.0 14.0 a86.0,86.0 0 0,1 42.46469731375804,11.215312516191453" fill="none" id="id277" stroke="none" /><text fill="#e1ed5e" style="font-size:6.75px; font-family:Arial;" text-anchor="middle"><textPath startOffset="22.20632615414155" xlink:href="#id277">January</textPath></text><path d="M 105.36241919743992 79.69619591428918 l 4.073130452606402 -15.422151771488677 a36.95096100386372,36.95096100386372 0 0,0 0.6135656236790299,0.16771066252718955 l -4.337993965509143 15.349754568135195" fill="#ff6809" stroke="none" /><path d="M 106.0581310904928 79.89281104454417 l 5.407895978760831 -17.94903158616673 a39.746014877789584,39.746014877789584 0 0,0 0.6533764624890657,0.20300724736900197 l -5.716057813960615 17.853284203915205" fill="#ff930d" stroke="none" /><path d="M 106.40334571778207 80.00007090966166 l 2.943201953877072 -9.192667859962963 a30.652335475153247,30.652335475153247 0 0,0 0.5011177765242019,0.16521065215186148 l -3.1010025526436915 9.140643483551866" fill="#ff0000" stroke="none" /><path d="M 109.41281617654863 81.2277094730956 l 10.663322760109217 -21.266217153336573 a44.78988113251367,44.78988113251367 0 0,0 0.6862225960253593,0.35150986671442175 l -11.027805843723332 21.07951476130965" fill="#ffdf14" stroke="none" /><path d="M 109.73455568895987 81.39251694778311 l 13.879711201698301 -26.530896653883314 a50.94219197556495,50.94219197556495 0 0,0 0.773484297719743,0.4131685243843021 l -14.334340545946354 26.28804940299726" fill="#c9ff1d" stroke="none" /><path d="M 110.05341064243156 81.56283822128135 l 27.298542961464413 -50.06337359577792 a78.02238002406908,78.02238002406908 0 0,0 1.173590017279556,0.6531015739971211 l -28.156257067816004 49.58605662422062" fill="#44ffea" stroke="none" /><line stroke="#e1ed5e" stroke-width="0.3" x1="143.23703022742887" x2="145.7803849466894" y1="26.81831364943548" y2="22.513508569990506" /><path d="M 143.74570117128098 25.957352633546492 a86.0,86.0 0 0,1 28.547481713284135,27.462654790039103" fill="none" id="id278" stroke="none" /><text fill="#e1ed5e" style="font-size:6.75px; font-family:Arial;" text-anchor="middle"><textPath startOffset="19.985693538727396" xlink:href="#id278">February</textPath></text><path d="M 110.68208982089419 81.91981866633111 l 24.768531468782168 -41.92246534459292 a69.69264063170786,69.69264063170786 0 0,0 1.0275945354780354,0.619114209791782 l -25.48648807047784 41.489904525342524" fill="#38ff84" stroke="none" /><path d="M 110.99172775467656 82.1063720568725 l 9.66969731413196 -15.741471215762296 a39.47422426473176,39.47422426473176 0 0,0 0.5759117280798043,0.36063587128933 l -9.939228194584027 15.572691003150021" fill="#ff8f0d" stroke="none" /><path d="M 111.2981086023043 82.29822771554956 l 25.08744494330277 -39.30677719759739 a67.63049031958393,67.63049031958393 0 0,0 0.9759175537719508,0.6347639238861247 l -25.760329522859003 38.869114349551744" fill="#35ff69" stroke="none" /><path d="M 112.19680574252982 82.90503203632743 l 30.717553673300973 -43.053534429626424 a73.88832508744396,73.88832508744396 0 0,0 1.0289993685046115,0.7476118025092559 l -31.45409835815937 42.51840339230049" fill="#3effb9" stroke="none" /><path d="M 112.48926042617603 83.11751280151076 l 6.148691499480744 -8.311557448980704 a31.338684364245452,31.338684364245452 0 0,0 0.43091264982513805,0.32455447409218463 l -6.290850303064265 8.204486385382673" fill="#ff0c01" stroke="none" /><path d="M 112.77801427241765 83.33499621200491 l 38.33404281725294 -49.995011363985284 a84.0,84.0 0 0,0 1.1398697793622787,0.8896864431071037 l -39.188945151774654 49.32774653165496" fill="#4dd2ff" stroke="none" /><path d="M 113.34407831869373 83.78471172551755 l 33.290278164313776 -40.45325906217398 a73.38996840053206,73.38996840053206 0 0,0 0.9685465050007619,0.8111298440317933 l -33.98168220627365 39.874228060748365" fill="#3effb3" stroke="none" /><path d="M 114.16331599549186 84.49514656593476 l 30.209246295949214 -33.07064082460336 a65.79135905863143,65.79135905863143 0 0,0 0.8295730091975282,0.7709977019164691 l -30.774027188941588 32.54573853661225" fill="#33ff50" stroke="none" /><line stroke="#e1ed5e" stroke-width="0.3" x1="172.23445277983987" x2="176.4835382374775" y1="55.19839476539836" y2="52.563006222186495" /><path d="M 173.08426987136738 54.67131705675599 a86.0,86.0 0 0,1 12.851231095245387,41.99856678651699" fill="none" id="id279" stroke="none" /><text fill="#e1ed5e" style="font-size:6.75px; font-family:Arial;" text-anchor="middle"><textPath startOffset="22.20632615414155" xlink:href="#id279">March</textPath></text><line stroke="#e1ed5e" stroke-width="0.3" x1="184.98032266829074" x2="189.97916517819016" y1="98.17113171792111" y2="98.06355123074" /><path d="M 185.9800911702706 98.14961562048488 a86.0,86.0 0 0,1 -9.607161424134198,41.387399972396054" fill="none" id="id280" stroke="none" /><text fill="#e1ed5e" style="font-size:6.75px; font-family:Arial;" text-anchor="middle"><textPath startOffset="21.466115282336823" xlink:href="#id280">April</textPath></text><line stroke="#e1ed5e" stroke-width="0.3" x1="174.80103733775053" x2="179.2010983576182" y1="140.37084112569926" y2="142.7455964860345" /><path d="M 175.68104954172406 140.8457921977663 a86.0,86.0 0 0,1 -30.038265399797805,32.042727171017184" fill="none" id="id281" stroke="none" /><text fill="#e1ed5e" style="font-size:6.75px; font-family:Arial;" text-anchor="middle"><textPath startOffset="22.206326154141568" xlink:href="#id281">May</textPath></text><line stroke="#e1ed5e" stroke-width="0.3" x1="143.8653032363475" x2="146.44561519142675" y1="172.8068346515853" y2="177.08958963109032" /><path d="M 144.38136562736335 173.6633856474863 a86.0,86.0 0 0,1 -40.68145358897372,12.25698825130547" fill="none" id="id282" stroke="none" /><text fill="#e1ed5e" style="font-size:6.75px; font-family:Arial;" text-anchor="middle"><textPath startOffset="21.466115282336833" xlink:href="#id282">June</textPath></text><line stroke="#e1ed5e" stroke-width="0.3" x1="102.19456741930631" x2="102.32365962044197" y1="184.97166512339345" y2="189.96999836594603" /><path d="M 102.22038585953345 185.97133177190398 a86.0,86.0 0 0,1 -42.740103519485714,-10.115201625700543" fill="none" id="id283" stroke="none" /><text fill="#e1ed5e" style="font-size:6.75px; font-family:Arial;" text-anchor="middle"><textPath startOffset="22.20632615414155" xlink:href="#id283">July</textPath></text><line stroke="#e1ed5e" stroke-width="0.3" x1="58.666819895761336" x2="56.23545636021788" y1="174.27360380694188" y2="178.64263932499728" /><path d="M 58.180547188652646 175.14741091055294 a86.0,86.0 0 0,1 -31.652253787137756,-30.449443065178592" fill="none" id="id284" stroke="none" /><text fill="#e1ed5e" style="font-size:6.75px; font-family:Arial;" text-anchor="middle"><textPath startOffset="22.20632615414155" xlink:href="#id284">August</textPath></text><line stroke="#e1ed5e" stroke-width="0.3" x1="26.63291911575756" x2="22.317208475507996" y1="142.92168965132927" y2="145.44649492493687" /><path d="M 25.769776987707644 143.4266507060508 a86.0,86.0 0 0,1 -11.730757126820373,-40.83630448921669" fill="none" id="id285" stroke="none" /><text fill="#e1ed5e" style="font-size:6.75px; font-family:Arial;" text-anchor="middle"><textPath startOffset="21.46611528233685" xlink:href="#id285">September</textPath></text><line stroke="#e1ed5e" stroke-width="0.3" x1="15.007084014347285" x2="10.007500721073583" y1="101.09737516637583" y2="101.16192664675087" /><path d="M 14.007167355692545 101.11028546245083 a86.0,86.0 0 0,1 10.666146001902534,-42.60595125391555" fill="none" id="id286" stroke="none" /><text fill="#e1ed5e" style="font-size:6.75px; font-family:Arial;" text-anchor="middle"><textPath startOffset="22.20632615414155" xlink:href="#id286">October</textPath></text><line stroke="#e1ed5e" stroke-width="0.3" x1="26.266209847984243" x2="21.928928074336255" y1="57.711370442889674" y2="55.22380399835377" /><path d="M 25.398753493254645 57.213857153982495 a86.0,86.0 0 0,1 29.58750427330803,-30.492523968695096" fill="none" id="id287" stroke="none" /><text fill="#e1ed5e" style="font-size:6.75px; font-family:Arial;" text-anchor="middle"><textPath startOffset="21.46611528233685" xlink:href="#id287">November</textPath></text><line stroke="#e1ed5e" stroke-width="0.3" x1="56.762969772571076" x2="54.21961505331055" y1="26.818313649435495" y2="22.513508569990535" /><path d="M 56.25429882871897 25.957352633546506 a86.0,86.0 0 0,1 42.265352541879196,-11.944610805530505" fill="none" id="id288" stroke="none" /><text fill="#e1ed5e" style="font-size:6.75px; font-family:Arial;" text-anchor="middle"><textPath startOffset="22.20632615414155" xlink:href="#id288">December</textPath></text></svg>