<?xml version="1.0" encoding="utf-8" ?>
<svg baseProfile="full" height="200mm" version="1.1" viewBox="0,0,200,200" width="200mm" xmlns="http://www.w3.org/2000/svg" xmlns:ev="http://www.w3.org/2001/xml-events" xmlns:xlink="http://www.w3.org/1999/xlink"><defs /><rect fill="#1a1a1a" height="200" width="200" x="0" y="0" /><text alignment-baseline="middle" fill="#e1ed5e" style="dominant-baseline: central; font-size:9.0px; font-family:Arial;" text-anchor="middle" x="100.0" y="100.0">2022</text><line stroke="#e1ed5e" stroke-width="0.3" x1="100.0" x2="100.0" y1="15.0" y2="10.0" /><path d="M 100.0 14.0 a86.0,86.0 0 0,1 42.46469731375804,11.215312516191453" fill="none" id="id265" stroke="none" /><text fill="#e1ed5e" style="font-size:6.75px; font-family:Arial;" text-anchor="middle"><textPath startOffset="22.20632615414155" xlink:href="#id265">January</textPath></text><path d="M 100.36148047927253 79.00311137660856 l 0.41278716446818164 -23.977079301617117 a44.98063229106325,44.98063229106325 0 0,0 0.7740382115278053,0.019991123368599196 l -0.8254520111908547 23.966421386106155" fill="#d2ff1c" stroke="none" /><path d="M 101.80526077348638 79.07773832637324 l 0.4965237991020573 -5.754515361198551 a26.775896720453442,26.775896720453442 0 0,0 0.45885582996752045,0.04357389002568199 l -0.5955047561598219 5.745115926657691" fill="#ff4206" stroke="none" /><path d="M 105.36241919743992 79.69619591428918 l 0.9968967946588614 -3.774564514107696 a24.903990329183998,24.903990329183998 0 0,0 0.41352733307327394,0.1130326412144313 l -1.0617220169558461 3.7568453320669706" fill="#ff2803" stroke="none" /><path d="M 106.0581310904928 79.89281104454417 l 1.366990283913641 -4.537097584774771 a25.738556418370827,25.738556418370827 0 0,0 0.42311076956819216,0.13146257570252806 l -1.4448864261925514 4.512894874189723" fill="#ff3304" stroke="none" /><path d="M 106.74666289553966 80.11325718540242 l 0.7656446314799674 -2.256845807975046 a23.383183732465593,23.383183732465593 0 0,0 0.38005244810406746,0.1325928366180724 l -0.8043790836473085 2.2433321181847665" fill="#ff1202" stroke="none" /><path d="M 107.4271985657038 80.35727306442388 l 16.9246132334741 -44.76055854632547 a68.85342343533759,68.85342343533759 0 0,0 1.1049887069102489,0.4287184512516191 l -17.692585105384016 44.46259739118331" fill="#3aff94" stroke="none" /><line stroke="#e1ed5e" stroke-width="0.3" x1="143.23703022742887" x2="145.7803849466894" y1="26.81831364943548" y2="22.513508569990506" /><path d="M 143.74570117128098 25.957352633546492 a86.0,86.0 0 0,1 28.547481713284135,27.462654790039103" fill="none" id="id266" stroke="none" /><text fill="#e1ed5e" style="font-size:6.75px; font-family:Arial;" text-anchor="middle"><textPath startOffset="19.985693538727396" xlink:href="#id266">February</textPath></text><path d="M 115.68641384162765 86.03803664274999 l 8.440673423022957 -7.512767050045671 a32.29985117523138,32.29985117523138 0 0,0 0.3660774945204605,0.4184898591304949 l -8.568742781121268 7.366361634712228" fill="#ff8e0d" stroke="none" /><line stroke="#e1ed5e" stroke-width="0.3" x1="172.23445277983987" x2="176.4835382374775" y1="55.19839476539836" y2="52.563006222186495" /><path d="M 173.08426987136738 54.67131705675599 a86.0,86.0 0 0,1 12.851231095245387,41.99856678651699" fill="none" id="id267" stroke="none" /><text fill="#e1ed5e" style="font-size:6.75px; font-family:Arial;" text-anchor="middle"><textPath startOffset="22.20632615414155" xlink:href="#id267">March</textPath></text><path d="M 119.196687751892 91.48605970444005 l 3.232349878059216 -1.433582409207249 a24.53599268355831,24.53599268355831 0 0,0 0.1679071472313973,0.38755284578824506 l -3.256547735133294 1.377730418832401" fill="#ff2203" stroke="none" /><path d="M 119.7369772167798 92.82701384747503 l 8.5140536058675 -3.094252374412324 a30.05889102264409,30.05889102264409 0 0,0 0.17254793843111516,0.48781625750003965 l -8.566054625108425 2.94723849048567" fill="#ff700a" stroke="none" /><path d="M 119.85752413597 93.16781622104841 l 4.486420899536047 -1.5435988840036863 a25.744541073959763,25.744541073959763 0 0,0 0.1405685119116213,0.4202819587178411 l -4.512326705219438 1.466143822363531" fill="#ff3404" stroke="none" /><path d="M 120.08093135843002 93.85539295169968 l 5.627693795847475 -1.7220300366757444 a26.885263367686584,26.885263367686584 0 0,0 0.13160221565699792,0.44369724822953305 l -5.656501908616175 1.6249034016996815" fill="#ff4406" stroke="none" /><path d="M 120.45610955862082 95.25157060432595 l 5.772273631703784 -1.3399045265234895 a26.925747802552934,26.925747802552934 0 0,0 0.10091464220135563,0.4523805536158459 l -5.7944826609071765 1.2403458033576797" fill="#ff4406" stroke="none" /><path d="M 120.6074358757038 95.95851677861258 l 3.813853236444986 -0.7479641793814459 a24.886505747169256,24.886505747169256 0 0,0 0.07882418638981378,0.42108195558681716 l -3.8261631467446593 0.6822041463320659" fill="#ff2703" stroke="none" /><path d="M 120.73433829027371 96.67025291283417 l 4.01124768398243 -0.6441700769349635 a25.06264237538487,25.06264237538487 0 0,0 0.06473812589062357,0.4265433633696365 l -4.021741703312354 0.5750276011732449" fill="#ff2a04" stroke="none" /><path d="M 120.83666639777658 97.38593545837742 l 14.370687556344844 -1.8028749926997154 a35.48333590998243,35.48333590998243 0 0,0 0.0708140039163067,0.6066911401715144 l -14.39959191326474 1.5552401142033485" fill="#ffb811" stroke="none" /><path d="M 120.96714384426684 98.82574320788733 l 5.878398660940674 -0.32921744638304923 a26.887610291446954,26.887610291446954 0 0,0 0.02190238072907446,0.4623246402709821 l -5.8831946499032455 0.22798169948906738" fill="#ff4406" stroke="none" /><line stroke="#e1ed5e" stroke-width="0.3" x1="184.98032266829074" x2="189.97916517819016" y1="98.17113171792111" y2="98.06355123074" /><path d="M 185.9800911702706 98.14961562048488 a86.0,86.0 0 0,1 -9.607161424134198,41.387399972396054" fill="none" id="id268" stroke="none" /><text fill="#e1ed5e" style="font-size:6.75px; font-family:Arial;" text-anchor="middle"><textPath startOffset="21.466115282336823" xlink:href="#id268">April</textPath></text><path d="M 120.99513854157772 99.54816195383933 l 2.733885183838927 -0.058836160449577644 a23.73451821939267,23.73451821939267 0 0,0 0.005274706075921722,0.40853179851018084 l -2.7344928970325646 0.011768103878934092" fill="#ff1702" stroke="none" /><path d="M 120.99824983174949 100.27111621757518 l 11.766260344410178 0.15191856583961802 a32.76724104210865,32.76724104210865 0 0,0 -0.012136264133846289,0.5639245057656285 l -11.761902017591325 -0.3544328873953613" fill="#ff940d" stroke="none" /><path d="M 120.81339534386255 102.79330883721812 l 3.5740052428613267 0.47965746406159 a24.606048357805292,24.606048357805292 0 0,0 -0.05995199118850028,0.4193040867385541 l -3.5652192006562253 -0.5411070227805534" fill="#ff2303" stroke="none" /><path d="M 120.70491114924044 103.5080841355445 l 2.356637427467271 0.39929088866588164 a23.390224503746698,23.390224503746698 0 0,0 -0.07067585520227677,0.3963877293820887 l -2.3494151299258057 -0.43979736878118864" fill="#ff1202" stroke="none" /><path d="M 119.9155931802556 106.66101706037122 l 8.91995615449293 2.9833899289399994 a30.40564900823845,30.40564900823845 0 0,0 -0.17028491021384298,0.49492765768103064 l -8.867280413335857 -3.13649028971033" fill="#ff740a" stroke="none" /><path d="M 119.67450827220406 107.3425965602758 l 4.013999427386602 1.498038882634605 a25.284426670739634,25.284426670739634 0 0,0 -0.15568671455834,0.406448884294153 l -3.9876184332347555 -1.5669113337619018" fill="#ff2d04" stroke="none" /><path d="M 119.26925614724726 108.34839909993367 l 4.914607318651563 2.129252058410122 a26.35603205972362,26.35603205972362 0 0,0 -0.18393864140289948,0.41473307798036785 l -4.877227592517391 -2.2135334728831775" fill="#ff3c05" stroke="none" /><path d="M 118.81262510543309 109.33194174019688 l 10.596851738463714 5.2565339764458585 a32.82896513700633,32.82896513700633 0 0,0 -0.25547395962998914,0.5040743591707987 l -10.504799109047456 -5.438162547319352" fill="#ff950d" stroke="none" /><line stroke="#e1ed5e" stroke-width="0.3" x1="174.80103733775053" x2="179.2010983576182" y1="140.37084112569926" y2="142.7455964860345" /><path d="M 175.68104954172406 140.8457921977663 a86.0,86.0 0 0,1 -30.038265399797805,32.042727171017184" fill="none" id="id269" stroke="none" /><text fill="#e1ed5e" style="font-size:6.75px; font-family:Arial;" text-anchor="middle"><textPath startOffset="22.206326154141568" xlink:href="#id269">May</textPath></text><path d="M 117.75023020441432 111.22182372390056 l 6.01686692007336 3.803906719499332 a28.1184544575719,28.1184544575719 0 0,0 -0.2621646015307847,0.4068852834880209 l -5.950497455165525 -3.9069136029088063" fill="#ff5507" stroke="none" /><path d="M 117.55443506779139 111.5257021239791 l 5.995227711991142 3.9362821137216133 a28.17196431930829,28.17196431930829 0 0,0 -0.26964177822194935,0.4030778729649178 l -5.926582828358472 -4.038896900892338" fill="#ff5607" stroke="none" /><path d="M 117.14729908036423 112.12312394758627 l 19.72808300429163 13.947735698106067 a45.16064134348347,45.16064134348347 0 0,0 -0.4542304781438816,0.6308864060215394 l -19.485072733772146 -14.285255709578736" fill="#d0ff1d" stroke="none" /><path d="M 116.71984013943494 112.70617746262583 l 9.973081170131378 7.579004233299085 a33.526118840023614,33.526118840023614 0 0,0 -0.35313090155000487,0.45646929277795345 l -9.841143451363305 -7.749551520190291" fill="#ff9e0e" stroke="none" /><path d="M 115.32070863581623 114.36230785411682 l 4.670240247699441 4.378089146173011 a27.401469248779506,27.401469248779506 0 0,0 -0.32554700286482163,0.3413347309839997 l -4.594186693455654 -4.457830993739517" fill="#ff4b07" stroke="none" /><path d="M 115.07121518719521 114.62390073753431 l 6.769418547563041 6.568501853420153 a30.432403939106642,30.432403939106642 0 0,0 -0.36802829916347524,0.37281072401692616 l -6.655349623344031 -6.684053071417743" fill="#ff750a" stroke="none" /><path d="M 114.55890576462653 115.13401014063108 l 9.048832612486825 9.40627865392065 a34.052181800910084,34.052181800910084 0 0,0 -0.4259184723765987,0.40273250012271217 l -8.885578305719418 -9.560645790789282" fill="#ffa50f" stroke="none" /><path d="M 114.29624159901734 115.38237550388516 l 6.427960340844097 6.916314263585327 a30.442143672712167,30.442143672712167 0 0,0 -0.3869058029257778,0.3534292775246529 l -6.307954988451455 -7.025936307696563" fill="#ff750a" stroke="none" /><path d="M 113.48314897796784 116.09983520530334 l 6.6025044715580155 7.883858148275369 a31.283398494616044,31.283398494616044 0 0,0 -0.4158157619279705,0.34218806347377634 l -6.465818581085354 -7.996341330606324" fill="#ff800b" stroke="none" /><path d="M 112.92097659922987 116.55440617244103 l 5.215461075405377 6.682069296833394 a29.476501891508793,29.476501891508793 0 0,0 -0.4026648370086221,0.3087462265087145 l -5.099667509903262 -6.77085486516948" fill="#ff6809" stroke="none" /><path d="M 112.34349029814194 116.9893568818739 l 6.2307297215115325 8.575863740030861 a31.60035054845373,31.60035054845373 0 0,0 -0.44281521889549735,0.31593690120866824 l -6.08218717476715 -8.681844903083748" fill="#ff840c" stroke="none" /><path d="M 111.7513745106137 117.40417183066458 l 2.581842687236887 3.8237938658010555 a25.61381742050727,25.61381742050727 0 0,0 -0.36752815479304324,0.24357762029909352 l -2.5156398337038794 -3.8676695071914673" fill="#ff3204" stroke="none" /><line stroke="#e1ed5e" stroke-width="0.3" x1="143.8653032363475" x2="146.44561519142675" y1="172.8068346515853" y2="177.08958963109032" /><path d="M 144.38136562736335 173.6633856474863 a86.0,86.0 0 0,1 -40.68145358897372,12.25698825130547" fill="none" id="id270" stroke="none" /><text fill="#e1ed5e" style="font-size:6.75px; font-family:Arial;" text-anchor="middle"><textPath startOffset="21.466115282336833" xlink:href="#id270">June</textPath></text><path d="M 110.8373102113329 117.98757091392108 l 5.071183656510361 8.417058648335814 a30.82668713084845,30.82668713084845 0 0,0 -0.45686930785123514,0.2699264400511577 l -4.925546477630744 -8.50310366068072" fill="#ff7a0b" stroke="none" /><path d="M 110.21172684928248 118.3499491758327 l 5.788850987511068 10.40226819372482 a32.904536082090175,32.904536082090175 0 0,0 -0.49729281611906523,0.27116369373874477 l -5.608935359523354 -10.500372539223335" fill="#ff960d" stroke="none" /><path d="M 109.57404056367764 118.69057910512821 l 2.6802420211093825 5.232406859282278 a26.87892667353359,26.87892667353359 0 0,0 -0.41361048191590466,0.2073928820453904 l -2.5897776315107173 -5.2777675822369705" fill="#ff4406" stroke="none" /><path d="M 109.2508944713604 118.85261126421891 l 3.188229808999282 6.497367081220133 a28.237443492222557,28.237443492222557 0 0,0 -0.4382011962940286,0.21036320366397845 l -3.0759159447050206 -6.551284561383672" fill="#ff5608" stroke="none" /><path d="M 108.92500713936063 119.00905698771935 l 5.591168956496527 11.908432975172245 a34.15568113874231,34.15568113874231 0 0,0 -0.5343444943066648,0.2452913493937584 l -5.385356466422443 -12.002911394900076" fill="#ffa60f" stroke="none" /><path d="M 108.2653958097858 119.30500536409082 l 7.03939537780937 16.441507298134795 a38.8850845544477,38.8850845544477 0 0,0 -0.6175850237506075,0.25815059001538243 l -6.7553388945613015 -16.56024293117015" fill="#ffe315" stroke="none" /><path d="M 107.93186726928326 119.44442032107085 l 4.52848333276179 11.101261575591225 a32.98937737602748,32.98937737602748 0 0,0 -0.5276398369099481,0.20995878035167193 l -4.336722419809975 -11.177567200348966" fill="#ff970d" stroke="none" /><path d="M 107.2578585660854 119.70592522655815 l 4.065362251395028 11.037928586705917 a32.76278188696396,32.76278188696396 0 0,0 -0.5308825626422982,0.19035559906666322 l -3.8747601281229946 -11.10627172681254" fill="#ff940d" stroke="none" /><path d="M 106.57524785965236 119.94407469862006 l 2.9588633739394488 8.974839186667454 a30.4500058673094,30.4500058673094 0 0,0 -0.49920414580810735,0.15982940314041655 l -2.803937883040401 -9.024441436467578" fill="#ff750a" stroke="none" /><path d="M 106.2309692047433 120.05430185196036 l 3.614016222894842 11.631669143324002 a33.18018227774539,33.18018227774539 0 0,0 -0.5468805447124726,0.16477062199235348 l -3.413260703742124 -11.692155134422082" fill="#ff990e" stroke="none" /><path d="M 105.88484417918355 120.15858648285463 l 1.6497245872745347 5.651146360527636 a26.88702356050686,26.88702356050686 0 0,0 -0.4453884513874984,0.1258712252270999 l -1.5522049677824306 -5.678706379093255" fill="#ff4406" stroke="none" /><path d="M 105.53697534728816 120.25689768951611 l 1.552947531154037 5.681423030207474 a26.8898398690193,26.8898398690193 0 0,0 -0.4475360012138418,0.11819832551199352 l -1.454921087128698 -5.707312705023051" fill="#ff4406" stroke="none" /><path d="M 105.18746579009965 120.34920634021253 l 12.806737640702819 50.23781502193228 a72.84448463603124,72.84448463603124 0 0,0 -1.217705574097733,0.29928240348379775 l -11.940078781861875 -50.450818683730105" fill="#3fffbf" stroke="none" /><path d="M 104.13013068566511 120.58985236759428 l 1.157379438463581 5.769859015348984 a26.88479398293451,26.88479398293451 0 0,0 -0.45452250188140614,0.08711031925824335 l -1.0578893220104706 -5.788926532955696" fill="#ff4406" stroke="none" /><path d="M 103.7750983002368 120.6578951692458 l 1.7371458608993249 9.505918583867448 a30.663341237126843,30.663341237126843 0 0,0 -0.5200371676050586,0.09041512746182587 l -1.5732597218222164 -9.534412289850279" fill="#ff780b" stroke="none" /><path d="M 102.70371172650421 120.8252237178851 l 0.8715263087645779 6.7128940478842445 a27.76923220202916,27.76923220202916 0 0,0 -0.4745531390584189,0.05746177633533982 l -0.7558457466547787 -6.726901352944935" fill="#ff5007" stroke="none" /><path d="M 101.98527174616119 120.90594882070398 l 1.4481934172375952 15.250233385828569 a36.31884076867341,36.31884076867341 0 0,0 -0.6228779464703754,0.05374453015517568 l -1.1854711530256783 -15.272902168262409" fill="#ffc212" stroke="none" /><path d="M 101.26447882468166 120.96189622390904 l 0.868478499262007 14.397201296597128 a35.42337200790503,35.42337200790503 0 0,0 -0.608964759613413,0.03147652222866267 l -0.6205256712351145 -14.410017625587992" fill="#ffb711" stroke="none" /><line stroke="#e1ed5e" stroke-width="0.3" x1="102.19456741930631" x2="102.32365962044197" y1="184.97166512339345" y2="189.96999836594603" /><path d="M 102.22038585953345 185.97133177190398 a86.0,86.0 0 0,1 -42.740103519485714,-10.115201625700543" fill="none" id="id271" stroke="none" /><text fill="#e1ed5e" style="font-size:6.75px; font-family:Arial;" text-anchor="middle"><textPath startOffset="22.20632615414155" xlink:href="#id271">July</textPath></text><path d="M 100.54218724476979 120.99299961872073 l 0.31107096000074824 12.044386155678529 a33.04840250860073,33.04840250860073 0 0,0 -0.5688107072028847,0.009792592166535474 l -0.1037005629051956 -12.047956225124224" fill="#ff980e" stroke="none" /><path d="M 98.37488393609728 120.93702456842531 l -0.5490286833617695 7.073357582048786 a28.094633181404166,28.094633181404166 0 0,0 -0.4818305610118923,-0.041574368241371805 l 0.6707035621152034 -7.06285896152875" fill="#ff5507" stroke="none" /><path d="M 98.01472825383883 120.90594882070398 l -1.4356133573715821 15.117758782173635 a36.18577019146055,36.18577019146055 0 0,0 -0.619582067979533,-0.06422221466430678 l 1.6956280219567086 -15.090807199053566" fill="#ffc111" stroke="none" /><path d="M 97.2962882734958 120.8252237178851 l -0.7600435810251949 5.854203114567012 a26.903334680641418,26.903334680641418 0 0,0 -0.4587292833747362,-0.0635756987249858 l 0.860701455586762 -5.8402528503494215" fill="#ff4406" stroke="none" /><path d="M 96.58105272829116 120.7198165907248 l -1.9193619588928625 11.631892684790449 a32.7891847792681,32.7891847792681 0 0,0 -0.5560905658918732,-0.09668347288903185 l 2.1193014962567855 -11.597130633380411" fill="#ff940d" stroke="none" /><path d="M 95.86986931433489 120.58985236759428 l -3.0464726717483472 15.187515196775847 a36.490048856992246,36.490048856992246 0 0,0 -0.6147852789744144,-0.12883423265439461 l 3.3074494121521485 -15.132824983394912" fill="#ffc412" stroke="none" /><path d="M 95.51606077576429 120.51570834832081 l -3.891551748433073 17.805312851192628 a39.22562319207708,39.22562319207708 0 0,0 -0.6583924667959615,-0.14984798190091758 l 4.197464364621897 -17.735688135714025" fill="#ffe715" stroke="none" /><path d="M 94.46302465271185 120.25689768951611 l -3.2580277330660494 11.919419957440978 a33.35667094452506,33.35667094452506 0 0,0 -0.5525593408281284,-0.15615878908410202 l 3.462718241998792 -11.861572375018353" fill="#ff9c0e" stroke="none" /><path d="M 94.11515582081647 120.15858648285463 l -3.297969394481542 11.297223721170415 a32.768766542552896,32.768766542552896 0 0,0 -0.5400995312906066,-0.16272755827384655 l 3.4919439002123944 -11.238780793790841" fill="#ff940d" stroke="none" /><path d="M 93.42475214034765 119.94407469862007 l -2.2182565389504645 6.728426830113383 a28.084658755422602,28.084658755422602 0 0,0 -0.4578204158147952,-0.15531754199239325 l 2.3337466877024853 -6.689246301222867" fill="#ff5407" stroke="none" /><path d="M 92.06813273071674 119.44442032107085 l -2.6705246867072185 6.546605322963684 a28.07034252048436,28.07034252048436 0 0,0 -0.44582192248873687,-0.18635359975752117 l 2.7828180686934174 -6.4996666801861895" fill="#ff5407" stroke="none" /><path d="M 91.40352486487194 119.15986991738527 l -3.86942497621319 8.624195153706099 a30.452470137257784,30.452470137257784 0 0,0 -0.4764100499060051,-0.21869648747447423 l 4.017303021886614 -8.556311595897549" fill="#ff750a" stroke="none" /><path d="M 90.7491055286396 118.85261126421891 l -3.845612234595036 7.837061892360227 a29.72973496525249,29.72973496525249 0 0,0 -0.457478460935645,-0.22938919741019406 l 3.979944603213441 -7.769704854040731" fill="#ff6b09" stroke="none" /><line stroke="#e1ed5e" stroke-width="0.3" x1="58.666819895761336" x2="56.23545636021788" y1="174.27360380694188" y2="178.64263932499728" /><path d="M 58.180547188652646 175.14741091055294 a86.0,86.0 0 0,1 -31.652253787137756,-30.449443065178592" fill="none" id="id272" stroke="none" /><text fill="#e1ed5e" style="font-size:6.75px; font-family:Arial;" text-anchor="middle"><textPath startOffset="22.20632615414155" xlink:href="#id272">August</textPath></text><path d="M 89.4739219176387 118.17145234162733 l -6.037104463972748 10.422016176408318 a33.04429539202009,33.04429539202009 0 0,0 -0.4897355431059731,-0.2893443911538918 l 6.215607878107103 -10.316553212960677" fill="#ff980e" stroke="none" /><path d="M 88.8546689885994 117.79835938074946 l -6.257808792911163 9.993308383422365 a32.79094497208837,32.79094497208837 0 0,0 -0.47580941243206015,-0.30368407915732437 l 6.428900007390147 -9.884109875441235" fill="#ff940d" stroke="none" /><path d="M 88.54995079064634 117.60387380957326 l -3.855996384806749 5.928400177778833 a28.072102713304638,28.072102713304638 0 0,0 -0.4028016574804408,-0.266954974474986 l 3.9574727410271517 -5.861147182212529" fill="#ff5407" stroke="none" /><path d="M 87.65650970185807 116.9893568818739 l -7.082356128750253 9.748026929950063 a33.049223931916856,33.049223931916856 0 0,0 -0.45736196145797664,-0.33834544510636827 l 7.249103060626794 -9.624671536103929" fill="#ff980e" stroke="none" /><path d="M 87.07902340077011 116.55440617244103 l -4.3463017976905585 5.5684990027200065 a28.063888480143348,28.063888480143348 0 0,0 -0.3782511123581059,-0.30050556001553985 l 4.441510402766023 -5.492859528699336" fill="#ff5407" stroke="none" /><path d="M 86.51685102203217 116.09983520530335 l -6.97356713656347 8.326933261306491 a31.86132847060664,31.86132847060664 0 0,0 -0.4174357821134389,-0.355747829592968 l 7.115868395253965 -8.205661041490572" fill="#ff880c" stroke="none" /><path d="M 85.97065885151581 115.62618273729859 l -15.539563702038471 17.308301187912967 a44.260596081382374,44.260596081382374 0 0,0 -0.5625320492850726,-0.5138596895157559 l 15.835195300790398 -17.038248731810636" fill="#daff1c" stroke="none" /><path d="M 85.44109423537348 115.13401014063109 l -9.02117228335885 9.377525689358377 a34.01228409698383,34.01228409698383 0 0,0 -0.4184321531554185,-0.4095239301566991 l 9.18125438889006 -9.220851656279107" fill="#ffa40f" stroke="none" /><path d="M 85.18274418774928 114.88116024355367 l -0.8486748564869352 0.8523350540803423 a22.202798427188554,22.202798427188554 0 0,0 -0.26850518145651403,-0.2719943312202573 l 0.8632206629989824 -0.8376002288794203" fill="#ff0000" stroke="none" /><path d="M 84.67929136418377 114.36230785411682 l -5.161132562927272 4.838273248756897 a28.07433229087699,28.07433229087699 0 0,0 -0.32747183513199113,-0.3554060005628454 l 5.243650806054992 -4.7487159933927074" fill="#ff5407" stroke="none" /><path d="M 84.19399662182784 113.82643327865904 l -2.6735245891892765 2.3386879318479914 a24.55206911131683,24.55206911131683 0 0,0 -0.27551804721989165,-0.3204897336371789 l 2.713385145979947 -2.2923210990492824" fill="#ff2303" stroke="none" /><path d="M 83.95833913139862 113.55231037782056 l -8.995853310537287 7.599873677442678 a32.776394044774094,32.776394044774094 0 0,0 -0.3603904997144767,-0.434113573140832 l 9.125339810145299 -7.443898847188085" fill="#ff940d" stroke="none" /><path d="M 83.50135304334701 112.99209946851258 l -9.46619445687462 7.454292481990723 a33.0488718933528,33.0488718933528 0 0,0 -0.3481040553068108,-0.4499714163829323 l 9.593105329399497 -7.290243071494538" fill="#ff980e" stroke="none" /><path d="M 83.06392112726016 112.41649034213515 l -5.685149371203805 4.168001506816795 a28.049337552829066,28.049337552829066 0 0,0 -0.2821231857921536,-0.3918444298741647 l 5.756052349371565 -4.069523471491492" fill="#ff5407" stroke="none" /><path d="M 82.44556493220864 111.52570212397912 l -9.966411302623182 6.543639113163782 a32.92260739504501,32.92260739504501 0 0,0 -0.306956495852225,-0.4764032981724083 l 10.077572661852454 -6.371114215069926" fill="#ff960d" stroke="none" /><path d="M 82.05923443525364 110.91462005526583 l -6.268622914533002 3.8136409026103957 a28.337539790602246,28.337539790602246 0 0,0 -0.24993591928008846,-0.4189069770006462 l 6.333339709511322 -3.7051718317236384" fill="#ff5808" stroke="none" /><line stroke="#e1ed5e" stroke-width="0.3" x1="26.63291911575756" x2="22.317208475507996" y1="142.92168965132927" y2="145.44649492493687" /><path d="M 25.769776987707644 143.4266507060508 a86.0,86.0 0 0,1 -11.730757126820373,-40.83630448921669" fill="none" id="id273" stroke="none" /><text fill="#e1ed5e" style="font-size:6.75px; font-family:Arial;" text-anchor="middle"><textPath startOffset="21.46611528233685" xlink:href="#id273">September</textPath></text><path d="M 81.69416730710424 110.29060199501025 l -5.206121493751389 2.9266149827019428 a26.972334239196236,26.972334239196236 0 0,0 -0.22402911349878118,-0.40667791465511266 l 5.2557270167016865 -2.8365665496490076" fill="#ff4506" stroke="none" /><path d="M 81.51974371655577 109.97397251340807 l -10.344266253856459 5.582900242556059 a32.75468499999069,32.75468499999069 0 0,0 -0.2635153273634464,-0.498471691027653 l 10.438834089444791 -5.40401353644228" fill="#ff940d" stroke="none" /><path d="M 81.18737489456691 109.33194174019688 l -12.652748622011345 6.276354965467646 a35.123904536082094,35.123904536082094 0 0,0 -0.2640092355236219,-0.543937222131187 l 12.758911114149686 -6.057628787371174" fill="#ffb310" stroke="none" /><path d="M 80.87730276802145 108.67885076344099 l -11.115479829468624 5.044769021530728 a33.20670251623754,33.20670251623754 0 0,0 -0.23174944287765967,-0.5225338136229942 l 11.200670357077565 -4.852686871415037" fill="#ff9a0e" stroke="none" /><path d="M 80.73074385275274 108.34839909993369 l -3.9220597152221193 1.6992311247636853 a25.274334898570054,25.274334898570054 0 0,0 -0.16951739388003026,-0.4006890445037519 l 3.950728090294456 -1.6314675545937745" fill="#ff2d04" stroke="none" /><path d="M 80.45479744820244 107.68017299344265 l -9.299054976881123 3.6540092490068656 a30.99120648645024,30.99120648645024 0 0,0 -0.19082572766651248,-0.4981857592968083 l 9.360574984141145 -3.4933999228768995" fill="#ff7c0b" stroke="none" /><path d="M 80.20201598880116 107.00284435728193 l -7.48363817749201 2.6470752453151483 a28.938000234692375,28.938000234692375 0 0,0 -0.16206543627461095,-0.4710380189631518 l 7.52809444470985 -2.5178645232626997" fill="#ff6008" stroke="none" /><path d="M 80.0844068197444 106.66101706037122 l -11.55099433652631 3.863373269551073 a33.17994758536935,33.17994758536935 0 0,0 -0.17649796457906874,-0.5432048799299433 l 11.615784552121628 -3.663969489643326" fill="#ff990e" stroke="none" /><path d="M 79.86692584326677 105.97154293290107 l -6.8677898402709925 2.03701141544767 a28.163515393770965,28.163515393770965 0 0,0 -0.13385362892713792,-0.46596204224175986 l 6.901836106084234 -1.9184918977013143" fill="#ff5507" stroke="none" /><path d="M 79.67330655649465 105.27499134158121 l -10.390874021968452 2.696541405009373 a31.73506397229885,31.73506397229885 0 0,0 -0.132665693185255,-0.5299334976203822 l 10.435751029448765 -2.517280067991599" fill="#ff860c" stroke="none" /><path d="M 79.50377843672027 104.57218783832718 l -12.728186690289695 2.839336031259614 a34.04103391304834,34.04103391304834 0 0,0 -0.12265464542117688,-0.5730016695737284 l 12.775175374435314 -2.6198205422697214" fill="#ffa50f" stroke="none" /><path d="M 79.4281124754447 104.21870165774334 l -6.999085130860038 1.4353107856049445 a28.144740003688025,28.144740003688025 0 0,0 -0.09323959278281035,-0.47542667483570117 l 7.022754656618515 -1.3146203837012884" fill="#ff5507" stroke="none" /><path d="M 79.29508885075956 103.50808413554451 l -1.3305184552935136 0.2254330217319282 a22.349481162211546,22.349481162211546 0 0,0 -0.06100157386444506,-0.379856858684455 l 1.3342017835192495 -0.20249693335425953" fill="#ff0300" stroke="none" /><path d="M 79.23777060512086 103.15116336523772 l -7.234390122880555 1.097991197933758 a28.317238900075065,28.317238900075065 0 0,0 -0.06899420956723898,-0.48254534101926677 l 7.252218383464393 -0.9733003849340905" fill="#ff5808" stroke="none" /><path d="M 79.10278846688536 102.07522291339032 l -7.299990010631911 0.7249343537331668 a28.33589694396999,28.33589694396999 0 0,0 -0.04402238464991467,-0.4857833462856668 l 7.3113869915589005 -0.5991696188989338" fill="#ff5808" stroke="none" /><path d="M 79.07016306316243 101.71520430193888 l -1.1695412287545228 0.09584413643108594 a22.173461880183954,22.173461880183954 0 0,0 -0.02789996043807796,-0.3806727935557791 l 1.1710177478569361 -0.07569820637854618" fill="#ff0000" stroke="none" /><path d="M 79.04373962182676 101.35467743843564 l -7.060066001829472 0.45638448625625516 a28.07480167562906,28.07480167562906 0 0,0 -0.027023532855871658,-0.4825233325241799 l 7.066875885572875 -0.3347894373966377" fill="#ff5407" stroke="none" /><path d="M 79.0095281055655 100.63252640178507 l -7.146659186779149 0.2153572650930368 a28.14990323596083,28.14990323596083 0 0,0 -0.010426103942495673,-0.48446008161898346 l 7.149307353406653 -0.0923073676839245" fill="#ff5507" stroke="none" /><line stroke="#e1ed5e" stroke-width="0.3" x1="15.007084014347285" x2="10.007500721073583" y1="101.09737516637583" y2="101.16192664675087" /><path d="M 14.007167355692545 101.11028546245083 a86.0,86.0 0 0,1 10.666146001902534,-42.60595125391555" fill="none" id="id274" stroke="none" /><text fill="#e1ed5e" style="font-size:6.75px; font-family:Arial;" text-anchor="middle"><textPath startOffset="22.20632615414155" xlink:href="#id274">October</textPath></text><path d="M 79.00175016825051 100.2711162175752 l -7.467406356116081 0.09641446228085737 a28.468028751678702,28.468028751678702 0 0,0 -0.002108942356737748,-0.49004393180748124 l 7.467959595762322 0.03213894773029923" fill="#ff5a08" stroke="none" /><path d="M 79.00019446554 99.90962569577889 l -11.29751697870262 -0.04861974720199697 a32.29762159765904,32.29762159765904 0 0,0 0.0071777509576662485,-0.5559247218303216 l 11.295006220627238 0.24308072709279052" fill="#ff8e0d" stroke="none" /><path d="M 79.00486145842228 99.54816195383935 l -6.124170299170744 -0.13179875602404295 a27.12558836074826,27.12558836074826 0 0,0 0.014064366387725001,-0.4667278496856884 l 6.120994238327373 0.23719675313472577" fill="#ff4706" stroke="none" /><path d="M 79.01574976396665 99.18683210126434 l -7.39664597524359 -0.28662997237099863 a28.402197540200383,28.402197540200383 0 0,0 0.023136148483439253,-0.48836752758407853 l 7.390616218526652 0.41390860657808626" fill="#ff5908" stroke="none" /><path d="M 79.12142395522702 97.74499172005258 l -5.855900934198353 -0.6324715375632658 a26.88995721520732,26.88995721520732 0 0,0 0.05366421974466363,-0.4597622625855596 l 5.8441463614501 0.7331775384736872" fill="#ff4406" stroke="none" /><path d="M 79.16333360222342 97.38593545837743 l -14.308279203591733 -1.7950455511317207 a35.420438353204574,35.420438353204574 0 0,0 0.0811026852927346,-0.6043092084753647 l 14.275260519241165 2.0410731016717447" fill="#ffb710" stroke="none" /><path d="M 79.21141760316559 97.0276538004421 l -5.934046718185636 -0.848448483600496 a26.994395322543692,26.994395322543692 0 0,0 0.06972794554369818,-0.45942004041504164 l 5.918562879202635 0.9504676364076295" fill="#ff4506" stroke="none" /><path d="M 79.32604984820605 96.31383870115002 l -11.758173648515047 -2.096480079040575 a32.94361236270031,32.94361236270031 0 0,0 0.10434383467138782,-0.5574089371448777 l 11.720344089933798 2.2985670936480256" fill="#ff960d" stroke="none" /><path d="M 79.3925641242962 95.95851677861259 l -6.0479283161632615 -1.186105877575264 a27.163139140914147,27.163139140914147 0 0,0 0.09393363283676928,-0.458053753562782 l 6.026615387411498 1.2900352873014485" fill="#ff4806" stroke="none" /><path d="M 79.54389044137918 95.25157060432595 l -30.86837002840395 -7.165403334362049 a52.68910338199164,52.68910338199164 0 0,0 0.21268132145046978,-0.881701383764604 l 30.740455906692667 7.69568994978605" fill="#7cff26" stroke="none" /><path d="M 79.71946130924805 94.55025226153421 l -11.959848888257604 -3.2138278191247487 a33.38412995252136,33.38412995252136 0 0,0 0.15390597297789899,-0.5536816717931573 l 11.902756144713344 3.419220794336849" fill="#ff9c0e" stroke="none" /><path d="M 79.91906864156998 93.8553929516997 l -6.270323396645404 -1.9186696398907432 a27.557304986467933,27.557304986467933 0 0,0 0.14270027616216757,-0.45239887180101707 l 6.236367636715032 2.026318678118175" fill="#ff4d07" stroke="none" /><path d="M 80.14247586403 93.16781622104843 l -12.886587138099006 -4.4337617825921996 a34.62799954551635,34.62799954551635 0 0,0 0.19877612680625292,-0.5619668779623908 l 12.808357930482945 4.654926286981201" fill="#ffac10" stroke="none" /><path d="M 80.2630227832202 92.82701384747504 l -22.847481269529222 -8.303432940434083 a45.309553656078805,45.309553656078805 0 0,0 0.2727104609127459,-0.7307284521353097 l 22.70116622011485 8.695484529598735" fill="#ceff1d" stroke="none" /><path d="M 80.52162464483688 92.15188598940014 l -5.501058362919908 -2.216454525798805 a26.930793688637724,26.930793688637724 0 0,0 0.1769459754273339,-0.42848871472615874 l 5.462090700606374 2.3108178109782753" fill="#ff4406" stroke="none" /><path d="M 80.803312248108 91.48605970444005 l -1.1799637825192102 -0.5233268012238983 a22.29080806820235,22.29080806820235 0 0,0 0.15858071801924087,-0.34941159148465745 l 1.1707807475366176 0.5435604015506267" fill="#ff0200" stroke="none" /><path d="M 81.10775173730289 90.83032412892265 l -5.669226332130839 -2.751655979879386 a27.30172498896387,27.30172498896387 0 0,0 0.20884517850364964,-0.4210191359578212 l 5.621021140673777 2.8488347043361686" fill="#ff4906" stroke="none" /><path d="M 81.26839172434947 90.50648371742162 l -30.437794935446945 -15.426422417826908 a55.12380209099731,55.12380209099731 0 0,0 0.43624075789869216,-0.842678291615852 l 30.167744744388138 15.948073431703095" fill="#62ff29" stroke="none" /><path d="M 81.6062741919709 89.86733742301443 l -5.26544739306795 -2.9006087351555787 a27.011527865994378,27.011527865994378 0 0,0 0.22785170278464195,-0.40532275487766223 l 5.214738048990877 2.9908149999680256" fill="#ff4506" stroke="none" /><line stroke="#e1ed5e" stroke-width="0.3" x1="26.266209847984243" x2="21.928928074336255" y1="57.711370442889674" y2="55.22380399835377" /><path d="M 25.398753493254645 57.213857153982495 a86.0,86.0 0 0,1 29.58750427330803,-30.492523968695096" fill="none" id="id275" stroke="none" /><text fill="#e1ed5e" style="font-size:6.75px; font-family:Arial;" text-anchor="middle"><textPath startOffset="21.46611528233685" xlink:href="#id275">November</textPath></text><path d="M 81.96595687620814 89.24020034530311 l -5.072191146974141 -3.026263172220575 a26.906385681529898,26.906385681529898 0 0,0 0.24072784737035274,-0.395693285951246 l 5.019347501317572 3.113124231378895" fill="#ff4406" stroke="none" /><path d="M 82.54541684631803 88.32363383020206 l -52.36374946104589 -35.02909850939381 a84.0,84.0 0 0,0 0.8143021373250385,-1.194887906918337 l 51.75302285805211 35.92526443958256" fill="#4dd2ff" stroke="none" /><path d="M 82.95767976084542 87.72973835380427 l -4.9043972726312965 -3.531105912082076 a27.04332868294736,27.04332868294736 0 0,0 0.2752462105537282,-0.3754355218673756 l 4.842888449563935 3.615003877620952" fill="#ff4606" stroke="none" /><path d="M 83.39014120810768 87.1503855733568 l -0.9745518063761971 -0.7539266352363797 a22.23213497419315,22.23213497419315 0 0,0 0.23676791746011233,-0.3006712110158723 l 0.9614298083221137 0.7705902402052998" fill="#ff0100" stroke="none" /><path d="M 83.84228863543731 86.58626213691792 l -9.05813326047176 -7.519841290847421 a32.77275631294552,32.77275631294552 0 0,0 0.3640731530753827,-0.43094777865741896 l 8.927349493909253 7.674648019133956" fill="#ff940d" stroke="none" /><path d="M 84.31358615837235 86.03803664274999 l -21.098922446255408 -18.779460050348348 a49.24593153315588,49.24593153315588 0 0,0 0.5690399266812913,-0.6283480996487333 l 20.77253887895807 19.139860937266636" fill="#a1ff22" stroke="none" /><path d="M 84.5562425177563 85.77008943001954 l -5.2063815217216876 -4.797170865476126 a28.079495523149795,28.079495523149795 0 0,0 0.33057947028128176,-0.35263912990907026 l 5.12303472946995 4.886079412263246" fill="#ff5407" stroke="none" /><path d="M 84.80347519578584 85.50635884689758 l -0.9765439978270245 -0.9313759860936067 a22.349481162211546,22.349481162211546 0 0,0 0.26791252839155283,-0.2761074106836052 l 0.9603672057323532 0.9480475923273356" fill="#ff0300" stroke="none" /><path d="M 85.05521093208273 85.24692304244772 l -4.210750891081455 -4.156735278289472 a26.91682949226353,26.91682949226353 0 0,0 0.32833943280564537,-0.32692943893524984 l 4.138575658108496 4.228600567874831" fill="#ff4406" stroke="none" /><path d="M 85.57189188830299 84.74124197986013 l -8.614086290907661 -9.11001340300494 a33.53773611263744,33.53773611263744 0 0,0 0.4228822913330925,-0.3930230024170835 l 8.455996115779712 9.256940991496672" fill="#ff9e0e" stroke="none" /><path d="M 86.37877921826538 84.01681056812374 l -4.757214015675191 -5.582132027583982 a28.334254097337734,28.334254097337734 0 0,0 0.37393452233155233,-0.3131594086715104 l 4.660421956384528 5.663192593649304" fill="#ff5808" stroke="none" /><path d="M 86.65592168130627 83.78471172551755 l -5.2698462639880965 -6.40374511389531 a29.293324492012076,29.293324492012076 0 0,0 0.3921073314024702,-0.3170568594236926 l 5.158835534021126 6.493508070583137" fill="#ff6509" stroke="none" /><path d="M 87.22198572758235 83.33499621200491 l -4.500638674057156 -5.8697039268033935 a28.396564923175497,28.396564923175497 0 0,0 0.39045796864840543,-0.2940848469433635 l 4.3989345516503615 5.946305363252612" fill="#ff5908" stroke="none" /><path d="M 87.51073957382395 83.11751280151077 l -1.0817280992286564 -1.4622371673184347 a22.81886591428513,22.81886591428513 0 0,0 0.31778496248227295,-0.23088429000396002 l 1.0563978203926017 1.4806406921390625" fill="#ff0901" stroke="none" /><path d="M 87.80319425747018 82.90503203632743 l -28.134940918469006 -39.43376026593071 a69.4416798758738,69.4416798758738 0 0,0 0.9790247155355347,-0.6858693785804918 l 27.45198506334981 39.91221448727514" fill="#3bff9a" stroke="none" /><path d="M 88.39885842347998 82.49532879139004 l -5.216821858589679 -7.871531502841514 a30.44331713459235,30.44331713459235 0 0,0 0.4393013779184615,-0.28573383616098164 l 5.08055345488693 7.960164263162031" fill="#ff750a" stroke="none" /><path d="M 88.70189139769569 82.29822771554957 l -0.6471117741455764 -1.013888755342234 a22.202798427188554,22.202798427188554 0 0,0 0.3239291524681084,-0.20284440555821281 l 0.6295634693052258 1.0248775022233771" fill="#ff0000" stroke="none" /><path d="M 89.00827224532344 82.1063720568725 l -4.977973707002983 -8.103731407092482 a30.510556500326892,30.510556500326892 0 0,0 0.44986788920528054,-0.2710403696400165 l 4.837743751580053 8.188218386191117" fill="#ff760a" stroke="none" /><line stroke="#e1ed5e" stroke-width="0.3" x1="56.762969772571076" x2="54.21961505331055" y1="26.818313649435495" y2="22.513508569990535" /><path d="M 56.25429882871897 25.957352633546506 a86.0,86.0 0 0,1 42.265352541879196,-11.944610805530505" fill="none" id="id276" stroke="none" /><text fill="#e1ed5e" style="font-size:6.75px; font-family:Arial;" text-anchor="middle"><textPath startOffset="22.20632615414155" xlink:href="#id276">December</textPath></text><path d="M 89.63071344664047 81.73862282372117 l -3.492784662870989 -6.151152038858843 a28.073628213748876,28.073628213748876 0 0,0 0.4222753754795547,-0.2349957892665253 l 3.3863851983193887 6.210363225685553" fill="#ff5407" stroke="none" /><path d="M 90.58718382345135 81.22770947309562 l -2.711269343695172 -5.407174097730788 a27.04884395378423,27.04884395378423 0 0,0 0.4180060503406807,-0.20511375352182623 l 2.6177920263440653 5.453043011387445" fill="#ff4606" stroke="none" /><path d="M 91.56875222667455 80.76684994638697 l -2.902495831814567 -6.621100383254161 a28.229346605249283,28.229346605249283 0 0,0 0.44671763732816,-0.19126117906176132 l 2.788094436696099 6.670081090278709" fill="#ff5608" stroke="none" /><path d="M 91.90106846888425 80.62456947434976 l -2.4971880293222206 -5.974132882310271 a27.47504530866704,27.47504530866704 0 0,0 0.4379209927905215,-0.1786389685005461 l 2.3939831669433187 6.016232736994394" fill="#ff4c07" stroke="none" /><path d="M 93.25333710446033 80.11325718540243 l -3.83063594268788 -11.291341065662335 a32.92342881836114,32.92342881836114 0 0,0 0.5382466030486988,-0.1774514425031671 l 3.635706517396772 11.355606232424737" fill="#ff960d" stroke="none" /><path d="M 94.63758080256005 79.69619591428918 l -1.8833136084975308 -7.130817105298707 a28.37532526314417,28.37532526314417 0 0,0 0.4733154390643516,-0.12065864422536848 l 1.7602892807481798 7.162178745692938" fill="#ff5808" stroke="none" /></svg>