<?xml version="1.0" encoding="utf-8" ?>
<svg baseProfile="full" height="200mm" version="1.1" viewBox="0,0,200,200" width="200mm" xmlns="http://www.w3.org/2000/svg" xmlns:ev="http://www.w3.org/2001/xml-events" xmlns:xlink="http://www.w3.org/1999/xlink"><defs /><rect fill="#1a1a1a" height="200" width="200" x="0" y="0" /><text alignment-baseline="middle" fill="#e1ed5e" style="dominant-baseline: central; font-size:9.0px; font-family:Arial;" text-anchor="middle" x="100.0" y="100.0">2023</text><line stroke="#e1ed5e" stroke-width="0.3" x1="100.0" x2="100.0" y1="15.0" y2="10.0" /><path d="M 100.0 14.0 a86.0,86.0 0 0,1 42.46469731375804,11.215312516191453" fill="none" id="id277" stroke="none" /><text fill="#e1ed5e" style="font-size:6.75px; font-family:Arial;" text-anchor="middle"><textPath startOffset="22.20632615414155" xlink:href="#id277">January</textPath></text><path d="M 105.36241919743992 79.69619591428918 l 3.9465603290961786 -14.942917512428387 a36.45529431018493,36.45529431018493 0 0,0 0.605335146425349,0.16546096218567913 l -4.203193364745238 14.872770009416415" fill="#ff6409" stroke="none" /><path d="M 106.0581310904928 79.89281104454417 l 5.2398488047440495 -17.391276029062904 a39.16349353554089,39.16349353554089 0 0,0 0.6438005154389497,0.2000319540072092 l -5.538434692893717 17.298503940173173" fill="#ff8e0d" stroke="none" /><path d="M 106.40334571778207 80.00007090966166 l 2.8517436912085192 -8.90701113475804 a30.352394850253667,30.352394850253667 0 0,0 0.49621421610347005,0.1635940253768262 l -3.004640729554407 8.856603385121979" fill="#ff0000" stroke="none" /><path d="M 109.41281617654863 81.2277094730956 l 10.331966302347656 -20.60538201362956 a44.05062462495227,44.05062462495227 0 0,0 0.6748964994401381,0.3457082001354934 l -10.68512328937655 20.424481288181564" fill="#ffd714" stroke="none" /><path d="M 109.73455568895987 81.39251694778311 l 13.448407372487274 -25.706464707646443 a50.01175604167804,50.01175604167804 0 0,0 0.759356959319367,0.40562218947153317 l -13.888909378334953 25.471163791673156" fill="#d3ff1c" stroke="none" /><path d="M 110.05341064243156 81.56283822128135 l 26.450256859537394 -48.507683825198306 a76.25044323823032,76.25044323823032 0 0,0 1.1469370579303373,0.6382692309758278 l -27.281318006539767 48.045199196662296" fill="#42ffd6" stroke="none" /><line stroke="#e1ed5e" stroke-width="0.3" x1="143.23703022742887" x2="145.7803849466894" y1="26.81831364943548" y2="22.513508569990506" /><path d="M 143.74570117128098 25.957352633546492 a86.0,86.0 0 0,1 28.547481713284135,27.462654790039103" fill="none" id="id278" stroke="none" /><text fill="#e1ed5e" style="font-size:6.75px; font-family:Arial;" text-anchor="middle"><textPath startOffset="19.985693538727396" xlink:href="#id278">February</textPath></text><path d="M 110.68208982089419 81.91981866633111 l 23.99886397994331 -40.61974949047073 a68.17954557852818,68.17954557852818 0 0,0 1.0052844580550415,0.6056726377735884 l -24.694510504215987 40.20063024323853" fill="#36ff71" stroke="none" /><path d="M 110.99172775467656 82.1063720568725 l 9.3692171803388 -15.252314293538817 a38.9001486552834,38.9001486552834 0 0,0 0.5675362151357473,0.3553911258521325 l -9.630372547846811 15.08877882636374" fill="#ff8a0c" stroke="none" /><path d="M 111.2981086023043 82.29822771554956 l 24.307867406571074 -38.08534230800156 a66.1814753695925,66.1814753695925 0 0,0 0.9550080628205725,0.6211638093360181 l -24.959842495175927 37.66127957450602" fill="#33ff57" stroke="none" /><path d="M 112.19680574252982 82.90503203632743 l 29.763023832531015 -41.71567127161672 a72.24485161747859,72.24485161747859 0 0,0 1.0061116773741512,0.7309829215351256 l -30.476680826258956 41.19716911526492" fill="#3cffa5" stroke="none" /><path d="M 112.48926042617603 83.11751280151076 l 5.9576245421193486 -8.053280709475187 a31.01741585292674,31.01741585292674 0 0,0 0.4264951489527763,0.3212273040195192 l -6.095365844830508 7.94953681594982" fill="#ff0b01" stroke="none" /><path d="M 112.77801427241765 83.33499621200491 l 37.14283507409777 -48.441445909388705 a82.04231220337135,82.04231220337135 0 0,0 1.1133041941622392,0.8689515824821427 l -37.97117182341943 47.79491593768334" fill="#4ae7ff" stroke="none" /><path d="M 113.34407831869373 83.78471172551755 l 32.25580242925582 -39.19619792566801 a71.76198107031804,71.76198107031804 0 0,0 0.9470615326914827,0.7931367975974982 l -32.92572149890643 38.63515997067669" fill="#3bff9f" stroke="none" /><path d="M 114.16331599549186 84.49514656593476 l 29.27051180675986 -32.04299019017454 a64.39949402651246,64.39949402651246 0 0,0 0.8120227764676836,0.754686673287538 l -29.81774246702239 31.534398930812365" fill="#31ff3e" stroke="none" /><path d="M 114.42810811169701 84.74124197986012 l 12.762334978485905 -13.497083588582761 a39.57548006109869,39.57548006109869 0 0,0 0.4909559856189927,0.47229926918155335 l -12.992774207717316 13.275401232638906" fill="#ff940d" stroke="none" /><path d="M 114.68862486808459 84.99185889309783 l 43.75517064415341 -44.70696073196609 a83.55579346462278,83.55579346462278 0 0,0 1.0192382368690265,1.0148613039670658 l -44.518244681189756 43.9471635773489" fill="#4cd7ff" stroke="none" /><path d="M 114.94478906791727 85.2469230424477 l 40.577107893619754 -40.05658378642491 a78.01781817685887,78.01781817685887 0 0,0 0.9352320430013585,0.9638388295303949 l -41.260604200324224 39.3521807613444" fill="#44ffea" stroke="none" /><path d="M 115.4437574822437 85.77008943001954 l 18.640179711671035 -17.175100723409408 a46.346407724619496,46.346407724619496 0 0,0 0.5355357413800481,0.5913519414228969 l -18.93305909366712 16.85169599471696" fill="#fff817" stroke="none" /><path d="M 116.15771136456269 86.58626213691792 l 48.47313409368808 -40.241213589246215 a84.0,84.0 0 0,0 0.9140060316943646,1.1204633215675965 l -49.158638617458855 39.400866098070516" fill="#4dd2ff" stroke="none" /><path d="M 116.38621287248628 86.86637796730983 l 32.74918415778777 -26.248615830540462 a62.970214390922486,62.970214390922486 0 0,0 0.6706205472691932,0.8516199924490394 l -33.19615878565093 25.681003444138383" fill="#33ff2f" stroke="none" /><path d="M 116.60985879189232 87.15038557335679 l 10.90013488458991 -8.432493750865081 a34.78114259996727,34.78114259996727 0 0,0 0.3622606053861368,0.4766924929773005 l -11.043671430200162 8.243616482006749" fill="#ff4906" stroke="none" /><path d="M 116.82858285166822 87.43820079747576 l 46.394161069486714 -34.6312069567217 a78.8942024439474,78.8942024439474 0 0,0 0.8029828913423995,1.0952677613807094 l -46.98340657334274 33.827476751669494" fill="#46fff4" stroke="none" /><path d="M 117.45458315368197 88.32363383020206 l 24.061587073686916 -16.096167913329957 a49.949034422562875,49.949034422562875 0 0,0 0.4719074519075858,0.7187474249645645 l -24.335091160952427 15.679602424387719" fill="#d4ff1c" stroke="none" /><path d="M 117.65298651832404 88.62581576622439 l 15.772704145456895 -10.162679421356929 a39.76321531831324,39.76321531831324 0 0,0 0.36576932781086696,0.57855923690272 l -15.945301069513718 9.889672536740003" fill="#ff970e" stroke="none" /><line stroke="#e1ed5e" stroke-width="0.3" x1="172.23445277983987" x2="176.4835382374775" y1="55.19839476539836" y2="52.563006222186495" /><path d="M 173.08426987136738 54.67131705675599 a86.0,86.0 0 0,1 12.851231095245387,41.99856678651699" fill="none" id="id279" stroke="none" /><text fill="#e1ed5e" style="font-size:6.75px; font-family:Arial;" text-anchor="middle"><textPath startOffset="22.20632615414155" xlink:href="#id279">March</textPath></text><path d="M 117.84615892207809 88.93136811851018 l 31.53136190978479 -19.556535343281446 a58.10370410779554,58.10370410779554 0 0,0 0.5198460982336484,0.8544903011679688 l -31.863323806304663 19.010877268906395" fill="#6cff28" stroke="none" /><path d="M 118.03404312379186 89.2402003453031 l 40.97761862191642 -24.448814038639775 a68.71697534231629,68.71697534231629 0 0,0 0.5973151927809955,1.021005287027258 l -41.392393489167745 23.73982933925862" fill="#37ff78" stroke="none" /><path d="M 118.21658344932153 89.55222093294921 l 38.01274572100391 -21.801495880382603 a64.82093175495064,64.82093175495064 0 0,0 0.546787273556866,0.9726735474941097 l -38.38239063585321 21.1439388229537" fill="#31ff44" stroke="none" /><path d="M 118.56541770881063 90.18545643968196 l 28.201716190491528 -14.908739268276756 a52.89995772189188,52.89995772189188 0 0,0 0.4186416171241472,0.8086823533334191 l -28.454167240775792 14.421084192682994" fill="#adff20" stroke="none" /><path d="M 118.73160827565052 90.50648371742162 l 35.19648860097308 -17.83821403404394 a60.45877202553052,60.45877202553052 0 0,0 0.4624807788111464,0.9323330291236183 l -35.49832939273764 17.229721416421373" fill="#50ff2b" stroke="none" /><path d="M 118.89224826269711 90.83032412892265 l 34.33579292226018 -16.665464453758386 a59.16653483170586,59.16653483170586 0 0,0 0.43682316306820573,0.9200609852172235 l -34.61757427917014 16.071961052900622" fill="#5fff29" stroke="none" /><path d="M 119.34039704204932 91.81776055985345 l 38.59203673855491 -16.326928779758354 a62.90362637062899,62.90362637062899 0 0,0 0.41330172644572843,1.0008429133872068 l -38.867360151886835 15.660211295917845" fill="#34ff2f" stroke="none" /><path d="M 119.7369772167798 92.82701384747503 l 52.75356141764699 -19.17216407502625 a77.12940510610441,77.12940510610441 0 0,0 0.44274819831014434,1.251708777736361 l -53.075762696766944 18.261257670863273" fill="#43ffe0" stroke="none" /><line stroke="#e1ed5e" stroke-width="0.3" x1="184.98032266829074" x2="189.97916517819016" y1="98.17113171792111" y2="98.06355123074" /><path d="M 185.9800911702706 98.14961562048488 a86.0,86.0 0 0,1 -9.607161424134198,41.387399972396054" fill="none" id="id280" stroke="none" /><text fill="#e1ed5e" style="font-size:6.75px; font-family:Arial;" text-anchor="middle"><textPath startOffset="21.466115282336823" xlink:href="#id280">April</textPath></text><line stroke="#e1ed5e" stroke-width="0.3" x1="174.80103733775053" x2="179.2010983576182" y1="140.37084112569926" y2="142.7455964860345" /><path d="M 175.68104954172406 140.8457921977663 a86.0,86.0 0 0,1 -30.038265399797805,32.042727171017184" fill="none" id="id281" stroke="none" /><text fill="#e1ed5e" style="font-size:6.75px; font-family:Arial;" text-anchor="middle"><textPath startOffset="22.206326154141568" xlink:href="#id281">May</textPath></text><line stroke="#e1ed5e" stroke-width="0.3" x1="143.8653032363475" x2="146.44561519142675" y1="172.8068346515853" y2="177.08958963109032" /><path d="M 144.38136562736335 173.6633856474863 a86.0,86.0 0 0,1 -40.68145358897372,12.25698825130547" fill="none" id="id282" stroke="none" /><text fill="#e1ed5e" style="font-size:6.75px; font-family:Arial;" text-anchor="middle"><textPath startOffset="21.466115282336833" xlink:href="#id282">June</textPath></text><line stroke="#e1ed5e" stroke-width="0.3" x1="102.19456741930631" x2="102.32365962044197" y1="184.97166512339345" y2="189.96999836594603" /><path d="M 102.22038585953345 185.97133177190398 a86.0,86.0 0 0,1 -42.740103519485714,-10.115201625700543" fill="none" id="id283" stroke="none" /><text fill="#e1ed5e" style="font-size:6.75px; font-family:Arial;" text-anchor="middle"><textPath startOffset="22.20632615414155" xlink:href="#id283">July</textPath></text><line stroke="#e1ed5e" stroke-width="0.3" x1="58.666819895761336" x2="56.23545636021788" y1="174.27360380694188" y2="178.64263932499728" /><path d="M 58.180547188652646 175.14741091055294 a86.0,86.0 0 0,1 -31.652253787137756,-30.449443065178592" fill="none" id="id284" stroke="none" /><text fill="#e1ed5e" style="font-size:6.75px; font-family:Arial;" text-anchor="middle"><textPath startOffset="22.20632615414155" xlink:href="#id284">August</textPath></text><line stroke="#e1ed5e" stroke-width="0.3" x1="26.63291911575756" x2="22.317208475507996" y1="142.92168965132927" y2="145.44649492493687" /><path d="M 25.769776987707644 143.4266507060508 a86.0,86.0 0 0,1 -11.730757126820373,-40.83630448921669" fill="none" id="id285" stroke="none" /><text fill="#e1ed5e" style="font-size:6.75px; font-family:Arial;" text-anchor="middle"><textPath startOffset="21.46611528233685" xlink:href="#id285">September</textPath></text><line stroke="#e1ed5e" stroke-width="0.3" x1="15.007084014347285" x2="10.007500721073583" y1="101.09737516637583" y2="101.16192664675087" /><path d="M 14.007167355692545 101.11028546245083 a86.0,86.0 0 0,1 10.666146001902534,-42.60595125391555" fill="none" id="id286" stroke="none" /><text fill="#e1ed5e" style="font-size:6.75px; font-family:Arial;" text-anchor="middle"><textPath startOffset="22.20632615414155" xlink:href="#id286">October</textPath></text><line stroke="#e1ed5e" stroke-width="0.3" x1="26.266209847984243" x2="21.928928074336255" y1="57.711370442889674" y2="55.22380399835377" /><path d="M 25.398753493254645 57.213857153982495 a86.0,86.0 0 0,1 29.58750427330803,-30.492523968695096" fill="none" id="id287" stroke="none" /><text fill="#e1ed5e" style="font-size:6.75px; font-family:Arial;" text-anchor="middle"><textPath startOffset="21.46611528233685" xlink:href="#id287">November</textPath></text><line stroke="#e1ed5e" stroke-width="0.3" x1="56.762969772571076" x2="54.21961505331055" y1="26.818313649435495" y2="22.513508569990535" /><path d="M 56.25429882871897 25.957352633546506 a86.0,86.0 0 0,1 42.265352541879196,-11.944610805530505" fill="none" id="id288" stroke="none" /><text fill="#e1ed5e" style="font-size:6.75px; font-family:Arial;" text-anchor="middle"><textPath startOffset="22.20632615414155" xlink:href="#id288">December</textPath></text></svg>