<?xml version="1.0" encoding="utf-8" ?>
<svg baseProfile="full" height="200mm" version="1.1" viewBox="0,0,200,200" width="200mm" xmlns="http://www.w3.org/2000/svg" xmlns:ev="http://www.w3.org/2001/xml-events" xmlns:xlink="http://www.w3.org/1999/xlink"><defs /><rect fill="#1a1a1a" height="200" width="200" x="0" y="0" /><text alignment-baseline="middle" fill="#e1ed5e" style="dominant-baseline: central; font-size:9.0px; font-family:Arial;" text-anchor="middle" x="100.0" y="100.0">2023</text><line stroke="#e1ed5e" stroke-width="0.3" x1="100.0" x2="100.0" y1="15.0" y2="10.0" /><path d="M 100.0 14.0 a86.0,86.0 0 0,1 42.46469731375804,11.215312516191453" fill="none" id="id277" stroke="none" /><text fill="#e1ed5e" style="font-size:6.75px; font-family:Arial;" text-anchor="middle"><textPath startOffset="22.20632615414155" xlink:href="#id277">January</textPath></text><path d="M 105.36241919743992 79.69619591428918 l 3.9745847180991976 -15.049026655147161 a36.56504182290165,36.56504182290165 0 0,0 0.6071574887747189,0.16595907718914296 l -4.2330400960976275 14.978381037131724" fill="#ff6509" stroke="none" /><path d="M 106.0581310904928 79.89281104454417 l 5.277056790680191 -17.514770881302738 a39.29247187770407,39.29247187770407 0 0,0 0.6459207635493426,0.20069072541594724 l -5.5777629269402516 17.42134002100427" fill="#ff8f0d" stroke="none" /><path d="M 106.40334571778207 80.00007090966166 l 2.8719938249642687 -8.97025951412637 a30.41880588404961,30.41880588404961 0 0,0 0.49729993270798367,0.16395196907127654 l -3.02597657991467 8.919493820795859" fill="#ff0000" stroke="none" /><path d="M 109.41281617654863 81.2277094730956 l 10.405333239294839 -20.75170012179287 a44.214306316700316,44.214306316700316 0 0,0 0.6774042550445983,0.34699276995785405 l -10.760997981928194 20.569514826522514" fill="#ffd914" stroke="none" /><path d="M 109.73455568895987 81.39251694778311 l 13.54390405016354 -25.889005428371828 a50.217767522353626,50.217767522353626 0 0,0 0.7624849488948644,0.40729305317362485 l -13.987534045586715 25.65203364869645" fill="#d1ff1c" stroke="none" /><path d="M 110.05341064243156 81.56283822128135 l 26.638079222721995 -48.8521352177516 a76.64277473319873,76.64277473319873 0 0,0 1.1528383945188554,0.6415533183980965 l -27.475041706312883 48.386366501793326" fill="#42ffda" stroke="none" /><line stroke="#e1ed5e" stroke-width="0.3" x1="143.23703022742887" x2="145.7803849466894" y1="26.81831364943548" y2="22.513508569990506" /><path d="M 143.74570117128098 25.957352633546492 a86.0,86.0 0 0,1 28.547481713284135,27.462654790039103" fill="none" id="id278" stroke="none" /><text fill="#e1ed5e" style="font-size:6.75px; font-family:Arial;" text-anchor="middle"><textPath startOffset="19.985693538727396" xlink:href="#id278">February</textPath></text><path d="M 110.68208982089419 81.91981866633111 l 24.16927908669995 -40.90818893292233 a68.51456590712432,68.51456590712432 0 0,0 1.0102242200703557,0.6086487891164407 l -24.869865372987945 40.486093534347276" fill="#37ff75" stroke="none" /><path d="M 110.99172775467656 82.1063720568725 l 9.435747668921424 -15.360620452146637 a39.02725699451976,39.02725699451976 0 0,0 0.5693906704079278,0.3565523855734439 l -9.698757491701615 15.195923725250248" fill="#ff8b0c" stroke="none" /><path d="M 111.2981086023043 82.29822771554956 l 24.480476736020126 -38.355785012318954 a66.50230747043554,66.50230747043554 0 0,0 0.9596377154749698,0.6241750642046049 l -25.137081477279374 37.92871102395482" fill="#34ff5b" stroke="none" /><path d="M 112.19680574252982 82.90503203632743 l 29.974370039920668 -42.0118928168998 a72.60873954427458,72.60873954427458 0 0,0 1.0111793311129036,0.7346647874935345 l -30.69309468738736 41.489708794589596" fill="#3dffaa" stroke="none" /><path d="M 112.48926042617603 83.11751280151076 l 5.9999294288510585 -8.110466778490508 a31.088549177963657,31.088549177963657 0 0,0 0.42747324520041274,0.3219639858351772 l -6.138648827809854 8.005986203149483" fill="#ff0b01" stroke="none" /><path d="M 112.77801427241765 83.33499621200491 l 37.40658506700104 -48.785426948782636 a82.47577156042689,82.47577156042689 0 0,0 1.119186184896637,0.8735425695489312 l -38.240803807057105 48.13430599001048" fill="#4be2ff" stroke="none" /><path d="M 113.34407831869373 83.78471172551755 l 32.484849771625726 -39.474528777475804 a72.12244014998558,72.12244014998558 0 0,0 0.9518186049374118,0.7971207087973898 l -33.15952591352225 38.909506911284595" fill="#3cffa4" stroke="none" /><path d="M 114.16331599549186 84.49514656593476 l 29.478360703213433 -32.270526360162606 a64.70767233919815,64.70767233919815 0 0,0 0.8159086425431398,0.7582981623076908 l -30.02947722955142 31.758323611780273" fill="#31ff42" stroke="none" /><path d="M 114.42810811169701 84.74124197986012 l 12.852959879716241 -13.592925914393428 a39.70738390539371,39.70738390539371 0 0,0 0.49259232665093516,0.47387342795781073 l -13.085035449979594 13.369669399673315" fill="#ff960d" stroke="none" /><path d="M 114.68862486808459 84.99185889309783 l 44.06587460425377 -45.02442332070654 a84.0,84.0 0 0,0 1.0246567993307099,1.0202565973995252 l -44.8343672037518 44.25923087265689" fill="#4dd2ff" stroke="none" /><path d="M 114.94478906791727 85.2469230424477 l 40.86524453956041 -40.34102420860385 a78.42269974040957,78.42269974040957 0 0,0 0.9400855267400953,0.9688407711564284 l -41.55359433000361 39.631619241897305" fill="#45ffef" stroke="none" /><path d="M 115.4437574822437 85.77008943001954 l 18.772542985956942 -17.297060522247467 a46.52639169310643,46.52639169310643 0 0,0 0.5376154677867394,0.5936484272653846 l -19.067502094359718 16.971359307712536" fill="#fffa17" stroke="none" /><line stroke="#e1ed5e" stroke-width="0.3" x1="172.23445277983987" x2="176.4835382374775" y1="55.19839476539836" y2="52.563006222186495" /><path d="M 173.08426987136738 54.67131705675599 a86.0,86.0 0 0,1 12.851231095245387,41.99856678651699" fill="none" id="id279" stroke="none" /><text fill="#e1ed5e" style="font-size:6.75px; font-family:Arial;" text-anchor="middle"><textPath startOffset="22.20632615414155" xlink:href="#id279">March</textPath></text><line stroke="#e1ed5e" stroke-width="0.3" x1="184.98032266829074" x2="189.97916517819016" y1="98.17113171792111" y2="98.06355123074" /><path d="M 185.9800911702706 98.14961562048488 a86.0,86.0 0 0,1 -9.607161424134198,41.387399972396054" fill="none" id="id280" stroke="none" /><text fill="#e1ed5e" style="font-size:6.75px; font-family:Arial;" text-anchor="middle"><textPath startOffset="21.466115282336823" xlink:href="#id280">April</textPath></text><line stroke="#e1ed5e" stroke-width="0.3" x1="174.80103733775053" x2="179.2010983576182" y1="140.37084112569926" y2="142.7455964860345" /><path d="M 175.68104954172406 140.8457921977663 a86.0,86.0 0 0,1 -30.038265399797805,32.042727171017184" fill="none" id="id281" stroke="none" /><text fill="#e1ed5e" style="font-size:6.75px; font-family:Arial;" text-anchor="middle"><textPath startOffset="22.206326154141568" xlink:href="#id281">May</textPath></text><line stroke="#e1ed5e" stroke-width="0.3" x1="143.8653032363475" x2="146.44561519142675" y1="172.8068346515853" y2="177.08958963109032" /><path d="M 144.38136562736335 173.6633856474863 a86.0,86.0 0 0,1 -40.68145358897372,12.25698825130547" fill="none" id="id282" stroke="none" /><text fill="#e1ed5e" style="font-size:6.75px; font-family:Arial;" text-anchor="middle"><textPath startOffset="21.466115282336833" xlink:href="#id282">June</textPath></text><line stroke="#e1ed5e" stroke-width="0.3" x1="102.19456741930631" x2="102.32365962044197" y1="184.97166512339345" y2="189.96999836594603" /><path d="M 102.22038585953345 185.97133177190398 a86.0,86.0 0 0,1 -42.740103519485714,-10.115201625700543" fill="none" id="id283" stroke="none" /><text fill="#e1ed5e" style="font-size:6.75px; font-family:Arial;" text-anchor="middle"><textPath startOffset="22.20632615414155" xlink:href="#id283">July</textPath></text><line stroke="#e1ed5e" stroke-width="0.3" x1="58.666819895761336" x2="56.23545636021788" y1="174.27360380694188" y2="178.64263932499728" /><path d="M 58.180547188652646 175.14741091055294 a86.0,86.0 0 0,1 -31.652253787137756,-30.449443065178592" fill="none" id="id284" stroke="none" /><text fill="#e1ed5e" style="font-size:6.75px; font-family:Arial;" text-anchor="middle"><textPath startOffset="22.20632615414155" xlink:href="#id284">August</textPath></text><line stroke="#e1ed5e" stroke-width="0.3" x1="26.63291911575756" x2="22.317208475507996" y1="142.92168965132927" y2="145.44649492493687" /><path d="M 25.769776987707644 143.4266507060508 a86.0,86.0 0 0,1 -11.730757126820373,-40.83630448921669" fill="none" id="id285" stroke="none" /><text fill="#e1ed5e" style="font-size:6.75px; font-family:Arial;" text-anchor="middle"><textPath startOffset="21.46611528233685" xlink:href="#id285">September</textPath></text><line stroke="#e1ed5e" stroke-width="0.3" x1="15.007084014347285" x2="10.007500721073583" y1="101.09737516637583" y2="101.16192664675087" /><path d="M 14.007167355692545 101.11028546245083 a86.0,86.0 0 0,1 10.666146001902534,-42.60595125391555" fill="none" id="id286" stroke="none" /><text fill="#e1ed5e" style="font-size:6.75px; font-family:Arial;" text-anchor="middle"><textPath startOffset="22.20632615414155" xlink:href="#id286">October</textPath></text><line stroke="#e1ed5e" stroke-width="0.3" x1="26.266209847984243" x2="21.928928074336255" y1="57.711370442889674" y2="55.22380399835377" /><path d="M 25.398753493254645 57.213857153982495 a86.0,86.0 0 0,1 29.58750427330803,-30.492523968695096" fill="none" id="id287" stroke="none" /><text fill="#e1ed5e" style="font-size:6.75px; font-family:Arial;" text-anchor="middle"><textPath startOffset="21.46611528233685" xlink:href="#id287">November</textPath></text><line stroke="#e1ed5e" stroke-width="0.3" x1="56.762969772571076" x2="54.21961505331055" y1="26.818313649435495" y2="22.513508569990535" /><path d="M 56.25429882871897 25.957352633546506 a86.0,86.0 0 0,1 42.265352541879196,-11.944610805530505" fill="none" id="id288" stroke="none" /><text fill="#e1ed5e" style="font-size:6.75px; font-family:Arial;" text-anchor="middle"><textPath startOffset="22.20632615414155" xlink:href="#id288">December</textPath></text></svg>