<?xml version="1.0" encoding="utf-8" ?>
<svg baseProfile="full" height="200mm" version="1.1" viewBox="0,0,200,200" width="200mm" xmlns="http://www.w3.org/2000/svg" xmlns:ev="http://www.w3.org/2001/xml-events" xmlns:xlink="http://www.w3.org/1999/xlink"><defs /><rect fill="#1a1a1a" height="200" width="200" x="0" y="0" /><text alignment-baseline="middle" fill="#e1ed5e" style="dominant-baseline: central; font-size:9.0px; font-family:Arial;" text-anchor="middle" x="100.0" y="100.0">2023</text><line stroke="#e1ed5e" stroke-width="0.3" x1="100.0" x2="100.0" y1="15.0" y2="10.0" /><path d="M 100.0 14.0 a86.0,86.0 0 0,1 42.46469731375804,11.215312516191453" fill="none" id="id277" stroke="none" /><text fill="#e1ed5e" style="font-size:6.75px; font-family:Arial;" text-anchor="middle"><textPath startOffset="22.20632615414155" xlink:href="#id277">January</textPath></text><path d="M 105.36241919743992 79.69619591428918 l 2.7169818844831624 -10.287347157288243 a31.64008938379637,31.64008938379637 0 0,0 0.5253793311085834,0.1436060175111855 l -2.8936591048154563 10.239054598950764" fill="#ff4206" stroke="none" /><path d="M 106.0581310904928 79.89281104454417 l 3.607337299511324 -11.972902471715551 a33.50453021867107,33.50453021867107 0 0,0 0.5507739958067148,0.17112816152757965 l -3.812896668028757 11.90903417530545" fill="#ff5e08" stroke="none" /><path d="M 106.40334571778207 80.00007090966166 l 1.9632630194651386 -6.131969583642377 a27.438590890739576,27.438590890739576 0 0,0 0.44857807553588686,0.14788913878558377 l -2.068523917243443 6.097266720597557" fill="#ff0000" stroke="none" /><path d="M 109.41281617654863 81.2277094730956 l 7.112970012800468 -14.185631280266778 a36.86904147145258,36.86904147145258 0 0,0 0.5648679726711955,0.28934731519327567 l -7.3560984730604195 14.061091439761002" fill="#ff900d" stroke="none" /><path d="M 109.73455568895987 81.39251694778311 l 9.258462093385942 -17.69743602038802 a40.972940745678684,40.972940745678684 0 0,0 0.622115481669602,0.3323125450843887 l -9.561722621583854 17.53544474880188" fill="#ffcb12" stroke="none" /><path d="M 110.05341064243156 81.56283822128135 l 18.209494530582216 -33.39477601283334 a59.036781619987416,59.036781619987416 0 0,0 0.8880141510699457,0.4941789136379031 l -18.781632770724194 33.076381701635256" fill="#52ff2b" stroke="none" /><line stroke="#e1ed5e" stroke-width="0.3" x1="143.23703022742887" x2="145.7803849466894" y1="26.81831364943548" y2="22.513508569990506" /><path d="M 143.74570117128098 25.957352633546492 a86.0,86.0 0 0,1 28.547481713284135,27.462654790039103" fill="none" id="id278" stroke="none" /><text fill="#e1ed5e" style="font-size:6.75px; font-family:Arial;" text-anchor="middle"><textPath startOffset="19.985693538727396" xlink:href="#id278">February</textPath></text><path d="M 110.68208982089419 81.91981866633111 l 16.521850230176078 -27.96438273202021 a53.480428516435545,53.480428516435545 0 0,0 0.7885509230297352,0.47509310796891646 l -17.00076321942345 27.675843014592676" fill="#92ff23" stroke="none" /><path d="M 110.99172775467656 82.1063720568725 l 6.450172106351339 -10.500349209530265 a33.323232275812856,33.323232275812856 0 0,0 0.4861714357314047,0.3044405084535524 l -6.629962694455006 10.387764359753769" fill="#ff5c08" stroke="none" /><path d="M 111.2981086023043 82.29822771554956 l 16.73458148027282 -26.219587814809408 a52.104871041340004,52.104871041340004 0 0,0 0.7518806687039902,0.48904410184653185 l -17.183429174761088 25.92764478880335" fill="#a2ff22" stroke="none" /><path d="M 112.19680574252982 82.90503203632743 l 20.490145807285003 -28.718862425192935 a56.27916005520763,56.27916005520763 0 0,0 0.7837668547533447,0.5694399520193022 l -20.981457978392136 28.36190323835696" fill="#71ff27" stroke="none" /><path d="M 112.48926042617603 83.11751280151076 l 4.1014849909053765 -5.544224837255377 a27.89641995361807,27.89641995361807 0 0,0 0.38358088371326715,0.28890516914714237 l -4.196312028377027 5.472803078602387" fill="#ff0701" stroke="none" /><path d="M 112.77801427241765 83.33499621200491 l 25.570725294798876 -33.34917498248957 a63.024153342033856,63.024153342033856 0 0,0 0.8552300924342685,0.6675206525798902 l -26.140987942392574 32.904075940686454" fill="#30ff3a" stroke="none" /><path d="M 113.34407831869373 83.78471172551755 l 22.206281815493384 -26.984348603393965 a55.946731200766145,55.946731200766145 0 0,0 0.7383435659079298,0.6183415028236627 l -22.66748291836043 26.59810594317648" fill="#75ff27" stroke="none" /><path d="M 114.16331599549186 84.49514656593476 l 20.151079344257745 -22.0597727163882 a50.878078436159115,50.878078436159115 0 0,0 0.641529240836302,0.5962315129749278 l -20.527816468888894 21.709636617338628" fill="#b1ff20" stroke="none" /><path d="M 114.42810811169701 84.74124197986012 l 8.7861403472307 -9.291972894262743 a33.78815946369722,33.78815946369722 0 0,0 0.4191610337042273,0.40323258232261494 l -8.944784624547346 9.139357225177827" fill="#ff6309" stroke="none" /><path d="M 114.68862486808459 84.99185889309783 l 30.122941518509617 -30.778194754435678 a64.06609894185358,64.06609894185358 0 0,0 0.7814971891352889,0.778141191846153 l -30.64827450781223 30.255117711939405" fill="#32ff48" stroke="none" /><path d="M 114.94478906791727 85.2469230424477 l 27.93502642259922 -27.576675237832447 a60.25351854807665,60.25351854807665 0 0,0 0.7222839931513548,0.7443771454979226 l -28.405574679453682 27.091733896784408" fill="#44ff2d" stroke="none" /><path d="M 115.4437574822437 85.77008943001954 l 12.832701486086052 -11.824078092926019 a38.44955730609256,38.44955730609256 0 0,0 0.44428712361054895,0.4905929386136785 l -13.034332250312636 11.60143236704279" fill="#ffa70f" stroke="none" /><path d="M 116.15771136456269 86.58626213691792 l 33.37099049156942 -27.703782335601314 a64.37190982752307,64.37190982752307 0 0,0 0.7004323077862122,0.8586471892975751 l -33.84292129143204 27.125250976695636" fill="#32ff4c" stroke="none" /><path d="M 116.38621287248628 86.86637796730983 l 22.54594701930981 -18.07067617300786 a49.89410085722065,49.89410085722065 0 0,0 0.5313624790071714,0.6747763876345187 l -22.853663578910947 17.679907391420304" fill="#beff1f" stroke="none" /><path d="M 116.60985879189232 87.15038557335679 l 7.50412170352813 -5.805291406090034 a30.487531335968526,30.487531335968526 0 0,0 0.31754079173083777,0.41784646020456157 l -7.602938435483082 5.675260170004439" fill="#ff3004" stroke="none" /><path d="M 116.82858285166822 87.43820079747576 l 31.93973603856125 -23.84161246579719 a60.85685917357544,60.85685917357544 0 0,0 0.6193993376374364,0.8448600004424869 l -32.345397988712314 23.28829002168321" fill="#3eff2d" stroke="none" /><path d="M 117.45458315368197 88.32363383020206 l 16.56503150582609 -11.0812943381844 a40.929760485226325,40.929760485226325 0 0,0 0.38669534258395977,0.5889635363978947 l -16.753323483767975 10.79451273780883" fill="#ffca12" stroke="none" /><path d="M 117.65298651832404 88.62581576622439 l 10.858607967189773 -6.996425642366937 a33.91740448984574,33.91740448984574 0 0,0 0.3119955502096055,0.49350203453814806 l -10.977431113645334 6.808475960114582" fill="#ff6509" stroke="none" /><line stroke="#e1ed5e" stroke-width="0.3" x1="172.23445277983987" x2="176.4835382374775" y1="55.19839476539836" y2="52.563006222186495" /><path d="M 173.08426987136738 54.67131705675599 a86.0,86.0 0 0,1 12.851231095245387,41.99856678651699" fill="none" id="id279" stroke="none" /><text fill="#e1ed5e" style="font-size:6.75px; font-family:Arial;" text-anchor="middle"><textPath startOffset="22.20632615414155" xlink:href="#id279">March</textPath></text><path d="M 117.84615892207809 88.93136811851018 l 21.70754580143145 -13.463560118215408 a46.543785854450874,46.543785854450874 0 0,0 0.4164210500000212,0.6844867156572765 l -21.936082649717694 13.087905629351049" fill="#e8ff1a" stroke="none" /><path d="M 118.03404312379186 89.2402003453031 l 28.21075523518078 -16.831615204345468 a53.85041828236641,53.85041828236641 0 0,0 0.46808918491296203,0.8001161503548813 l -28.49630409456407 16.34351964163669" fill="#8dff24" stroke="none" /><path d="M 118.21658344932153 89.55222093294921 l 26.169609201713406 -15.009087514747137 a51.16821429577398,51.16821429577398 0 0,0 0.4316218176765549,0.7678070519899332 l -26.424088660682393 14.55639695282241" fill="#aeff20" stroke="none" /><path d="M 118.56541770881063 90.18545643968196 l 19.41527446976819 -10.26381738390082 a42.9613030129475,42.9613030129475 0 0,0 0.33998872856674983,0.6567500073521421 l -19.589072631495053 9.928094654288333" fill="#ffe615" stroke="none" /><path d="M 118.73160827565052 90.50648371742162 l 24.23077666423568 -12.280593818549368 a48.16511590787459,48.16511590787459 0 0,0 0.36844017121612244,0.7427529026477088 l -24.438576848405212 11.86168132740271" fill="#d3ff1c" stroke="none" /><path d="M 118.89224826269711 90.83032412892265 l 23.638236737790052 -11.47322256384444 a47.27548424047246,47.27548424047246 0 0,0 0.3490322125546877,0.7351508539520185 l -23.832227144186497 11.064629294251882" fill="#dfff1b" stroke="none" /><path d="M 119.34039704204932 91.81776055985345 l 26.56841805531843 -11.240160044382073 a49.848258799891084,49.848258799891084 0 0,0 0.3275227933747256,0.7931224230318343 l -26.757962535579352 10.781163050896936" fill="#beff1f" stroke="none" /><path d="M 119.7369772167798 92.82701384747503 l 36.317820775982305 -13.198942404135169 a59.641896776737674,59.641896776737674 0 0,0 0.34236413862357506,0.9679095231395736 l -36.53963799541569 12.57183525456898" fill="#4bff2c" stroke="none" /><path d="M 119.97218684219823 93.5106431181261 l 20.4746465363373 -6.652615933062844 a42.52831738758955,42.52831738758955 0 0,0 0.22022482383169578,0.6981728734064725 l -20.5861268439372 6.299192893229953" fill="#ffe015" stroke="none" /><path d="M 120.37134235888165 94.90015583598534 l 61.11402707664495 -15.299532492043943 a84.0,84.0 0 0,0 0.33906879895672226,1.4056590733623755 l -61.36832867586249 14.245288187022162" fill="#4dd2ff" stroke="none" /><path d="M 120.53481517161879 95.60439243477599 l 21.61306311632927 -4.626413383700882 a43.10267400264772,43.10267400264772 0 0,0 0.14905459685803027,0.7268431499423805 l -21.689497009102293 4.25369457759509" fill="#ffe815" stroke="none" /><path d="M 120.67395015179393 96.31383870115 l 25.625278425728606 -4.568982168943655 a47.0294159069357,47.0294159069357 0 0,0 0.13523899430528852,0.7981881998303372 l -25.70012928155412 4.12720818079748" fill="#e2ff1b" stroke="none" /><path d="M 120.91429891909075 98.10471618934814 l 29.719916450603122 -2.6932615202959402 a50.841700545504054,50.841700545504054 0 0,0 0.07148225962384203,0.8722646253350144 l -29.76187319404646 2.181282977753157" fill="#b2ff20" stroke="none" /><path d="M 120.94382443527127 98.46500227214037 l 19.317195990863254 -1.415780200327594 a40.36900860976274,40.36900860976274 0 0,0 0.04482768678653947,0.6934644733839564 l -19.338704268654208 1.0830566626906024" fill="#ffc212" stroke="none" /><line stroke="#e1ed5e" stroke-width="0.3" x1="184.98032266829074" x2="189.97916517819016" y1="98.17113171792111" y2="98.06355123074" /><path d="M 185.9800911702706 98.14961562048488 a86.0,86.0 0 0,1 -9.607161424134198,41.387399972396054" fill="none" id="id280" stroke="none" /><text fill="#e1ed5e" style="font-size:6.75px; font-family:Arial;" text-anchor="middle"><textPath startOffset="21.466115282336823" xlink:href="#id280">April</textPath></text><path d="M 120.99824983174949 100.27111621757518 l 30.452262948793138 0.3931804990146593 a51.45480109288591,51.45480109288591 0 0,0 -0.019057724640756023,0.8855375781648999 l -30.440983161467376 -0.917307892969674" fill="#aaff21" stroke="none" /><line stroke="#e1ed5e" stroke-width="0.3" x1="174.80103733775053" x2="179.2010983576182" y1="140.37084112569926" y2="142.7455964860345" /><path d="M 175.68104954172406 140.8457921977663 a86.0,86.0 0 0,1 -30.038265399797805,32.042727171017184" fill="none" id="id281" stroke="none" /><text fill="#e1ed5e" style="font-size:6.75px; font-family:Arial;" text-anchor="middle"><textPath startOffset="22.206326154141568" xlink:href="#id281">May</textPath></text><line stroke="#e1ed5e" stroke-width="0.3" x1="143.8653032363475" x2="146.44561519142675" y1="172.8068346515853" y2="177.08958963109032" /><path d="M 144.38136562736335 173.6633856474863 a86.0,86.0 0 0,1 -40.68145358897372,12.25698825130547" fill="none" id="id282" stroke="none" /><text fill="#e1ed5e" style="font-size:6.75px; font-family:Arial;" text-anchor="middle"><textPath startOffset="21.466115282336833" xlink:href="#id282">June</textPath></text><line stroke="#e1ed5e" stroke-width="0.3" x1="102.19456741930631" x2="102.32365962044197" y1="184.97166512339345" y2="189.96999836594603" /><path d="M 102.22038585953345 185.97133177190398 a86.0,86.0 0 0,1 -42.740103519485714,-10.115201625700543" fill="none" id="id283" stroke="none" /><text fill="#e1ed5e" style="font-size:6.75px; font-family:Arial;" text-anchor="middle"><textPath startOffset="22.20632615414155" xlink:href="#id283">July</textPath></text><line stroke="#e1ed5e" stroke-width="0.3" x1="58.666819895761336" x2="56.23545636021788" y1="174.27360380694188" y2="178.64263932499728" /><path d="M 58.180547188652646 175.14741091055294 a86.0,86.0 0 0,1 -31.652253787137756,-30.449443065178592" fill="none" id="id284" stroke="none" /><text fill="#e1ed5e" style="font-size:6.75px; font-family:Arial;" text-anchor="middle"><textPath startOffset="22.20632615414155" xlink:href="#id284">August</textPath></text><line stroke="#e1ed5e" stroke-width="0.3" x1="26.63291911575756" x2="22.317208475507996" y1="142.92168965132927" y2="145.44649492493687" /><path d="M 25.769776987707644 143.4266507060508 a86.0,86.0 0 0,1 -11.730757126820373,-40.83630448921669" fill="none" id="id285" stroke="none" /><text fill="#e1ed5e" style="font-size:6.75px; font-family:Arial;" text-anchor="middle"><textPath startOffset="21.46611528233685" xlink:href="#id285">September</textPath></text><line stroke="#e1ed5e" stroke-width="0.3" x1="15.007084014347285" x2="10.007500721073583" y1="101.09737516637583" y2="101.16192664675087" /><path d="M 14.007167355692545 101.11028546245083 a86.0,86.0 0 0,1 10.666146001902534,-42.60595125391555" fill="none" id="id286" stroke="none" /><text fill="#e1ed5e" style="font-size:6.75px; font-family:Arial;" text-anchor="middle"><textPath startOffset="22.20632615414155" xlink:href="#id286">October</textPath></text><line stroke="#e1ed5e" stroke-width="0.3" x1="26.266209847984243" x2="21.928928074336255" y1="57.711370442889674" y2="55.22380399835377" /><path d="M 25.398753493254645 57.213857153982495 a86.0,86.0 0 0,1 29.58750427330803,-30.492523968695096" fill="none" id="id287" stroke="none" /><text fill="#e1ed5e" style="font-size:6.75px; font-family:Arial;" text-anchor="middle"><textPath startOffset="21.46611528233685" xlink:href="#id287">November</textPath></text><line stroke="#e1ed5e" stroke-width="0.3" x1="56.762969772571076" x2="54.21961505331055" y1="26.818313649435495" y2="22.513508569990535" /><path d="M 56.25429882871897 25.957352633546506 a86.0,86.0 0 0,1 42.265352541879196,-11.944610805530505" fill="none" id="id288" stroke="none" /><text fill="#e1ed5e" style="font-size:6.75px; font-family:Arial;" text-anchor="middle"><textPath startOffset="22.20632615414155" xlink:href="#id288">December</textPath></text></svg>