<?xml version="1.0" encoding="utf-8" ?>
<svg baseProfile="full" height="200mm" version="1.1" viewBox="0,0,200,200" width="200mm" xmlns="http://www.w3.org/2000/svg" xmlns:ev="http://www.w3.org/2001/xml-events" xmlns:xlink="http://www.w3.org/1999/xlink"><defs /><rect fill="#1a1a1a" height="200" width="200" x="0" y="0" /><text alignment-baseline="middle" fill="#e1ed5e" style="dominant-baseline: central; font-size:9.0px; font-family:Arial;" text-anchor="middle" x="100.0" y="100.0">2023</text><line stroke="#e1ed5e" stroke-width="0.3" x1="100.0" x2="100.0" y1="15.0" y2="10.0" /><path d="M 100.0 14.0 a86.0,86.0 0 0,1 42.46469731375804,11.215312516191453" fill="none" id="id277" stroke="none" /><text fill="#e1ed5e" style="font-size:6.75px; font-family:Arial;" text-anchor="middle"><textPath startOffset="22.20632615414155" xlink:href="#id277">January</textPath></text><path d="M 105.36241919743992 79.69619591428918 l 1.558508313248068 -5.90100219565964 a27.10334130420733,27.10334130420733 0 0,0 0.4500472534222513,0.12301491499379023 l -1.65985345589403 5.873300739839556" fill="#ff2403" stroke="none" /><path d="M 106.0581310904928 79.89281104454417 l 2.0692317464780188 -6.867866194634785 a28.172817165384863,28.172817165384863 0 0,0 0.4631270751160674,0.14389583662564712 l -2.1871441943048047 6.831230223126617" fill="#ff3405" stroke="none" /><path d="M 106.40334571778207 80.00007090966166 l 1.1261619940874075 -3.5174049658814197 a24.69328830866671,24.69328830866671 0 0,0 0.4036966691278935,0.1330924447357585 l -1.1865414854577183 3.497498796886425" fill="#ff0000" stroke="none" /><path d="M 109.41281617654863 81.2277094730956 l 4.080123964073652 -8.137126127056666 a30.10275964583468,30.10275964583468 0 0,0 0.4612022481277969,0.2362457046835609 l -4.219586699790205 8.065687897060606" fill="#ff5107" stroke="none" /><path d="M 109.73455568895987 81.39251694778311 l 5.31081573375265 -10.15155872715627 a32.45682802300782,32.45682802300782 0 0,0 0.49281049471975075,0.26324229917105935 l -5.484771275000711 10.058637701483457" fill="#ff720a" stroke="none" /><path d="M 110.05341064243156 81.56283822128135 l 10.445284441547214 -19.155827402565983 a42.81856298067602,42.81856298067602 0 0,0 0.6440644088641655,0.3584211462191682 l -10.773472939483414 18.973190858786634" fill="#fffe18" stroke="none" /><line stroke="#e1ed5e" stroke-width="0.3" x1="143.23703022742887" x2="145.7803849466894" y1="26.81831364943548" y2="22.513508569990506" /><path d="M 143.74570117128098 25.957352633546492 a86.0,86.0 0 0,1 28.547481713284135,27.462654790039103" fill="none" id="id278" stroke="none" /><text fill="#e1ed5e" style="font-size:6.75px; font-family:Arial;" text-anchor="middle"><textPath startOffset="19.985693538727396" xlink:href="#id278">February</textPath></text><path d="M 110.68208982089419 81.91981866633111 l 9.47722216369032 -16.04085887050172 a39.631341691979586,39.631341691979586 0 0,0 0.5843507978346361,0.35206481734966466 l -9.751935027742594 15.875347443693439" fill="#ffd413" stroke="none" /><path d="M 110.99172775467656 82.1063720568725 l 3.6999314964301355 -6.023183897000364 a28.068821495508303,28.068821495508303 0 0,0 0.4095118724621653,0.25643629696711656 l -3.803062521264564 5.958603258710304" fill="#ff3304" stroke="none" /><path d="M 111.2981086023043 82.29822771554956 l 9.59924852818575 -15.040013999611725 a38.84229787371551,38.84229787371551 0 0,0 0.5604998595259496,0.3645646999535907 l -9.856715413495982 14.872550375498605" fill="#ffca12" stroke="none" /><path d="M 112.19680574252982 82.90503203632743 l 11.7535058892722 -16.473641613994406 a41.23674303625671,41.23674303625671 0 0,0 0.5742799352032649,0.4172387959053324 l -12.035331140829253 16.268883583272398" fill="#ffe915" stroke="none" /><path d="M 112.48926042617603 83.11751280151076 l 2.352683502048509 -3.1802643030954907 a24.955907063917792,24.955907063917792 0 0,0 0.34314829291212395,0.25845218001123604 l -2.407077948719016 3.1392955335784074" fill="#ff0400" stroke="none" /><path d="M 112.77801427241765 83.33499621200491 l 14.667815113278746 -19.129669854262357 a45.105789116525564,45.105789116525564 0 0,0 0.6120800700978032,0.4777382033645326 l -14.99492773853598 18.8743532616746" fill="#e4ff1b" stroke="none" /><path d="M 113.34407831869373 83.78471172551755 l 12.737911508879737 -15.47869415918956 a41.0460560330899,41.0460560330899 0 0,0 0.5416954793868864,0.4536543856585049 l -13.00246452522574 15.257138616137237" fill="#ffe715" stroke="none" /><path d="M 114.16331599549186 84.49514656593476 l 11.55901143776719 -12.653871328035713 a38.138588185872166,38.138588185872166 0 0,0 0.4808951178482831,0.446939602196716 l -11.77511443941032 12.453027139764355" fill="#ffc111" stroke="none" /><path d="M 114.42810811169701 84.74124197986012 l 5.039883721980764 -5.33003811504579 a28.33551185936793,28.33551185936793 0 0,0 0.35151788762782804,0.3381599293907132 l -5.130884853221009 5.242495098892775" fill="#ff3705" stroke="none" /><path d="M 114.68862486808459 84.99185889309783 l 17.279045931148367 -17.654910643867172 a45.70346733018807,45.70346733018807 0 0,0 0.557504387534121,0.5551102865197386 l -17.58038611884981 17.354864506697314" fill="#dcff1b" stroke="none" /><path d="M 114.94478906791727 85.2469230424477 l 16.024019578145673 -15.818463073072563 a43.51650455632392,43.51650455632392 0 0,0 0.521650443597772,0.5376066364960482 l -16.293934285446554 15.5402922410264" fill="#f8ff18" stroke="none" /><path d="M 115.4437574822437 85.77008943001954 l 7.361061942192674 -6.782497928882954 a31.00937116267046,31.00937116267046 0 0,0 0.35831529110093824,0.3956606938838844 l -7.476720873909648 6.65478444772952" fill="#ff5e08" stroke="none" /><path d="M 116.15771136456269 86.58626213691792 l 19.142183611697718 -15.891373926721222 a45.87888580107284,45.87888580107284 0 0,0 0.49920926606663707,0.611971533029649 l -19.412891369840764 15.559518224083472" fill="#daff1c" stroke="none" /><path d="M 116.38621287248628 86.86637796730983 l 12.932749408569933 -10.365655804511887 a37.57416144251277,37.57416144251277 0 0,0 0.4001575181772188,0.508159411452862 l -13.109261007341114 10.141503999105986" fill="#ffb911" stroke="none" /><path d="M 116.60985879189232 87.15038557335679 l 4.304495412857185 -3.330016651524329 a26.44221385639501,26.44221385639501 0 0,0 0.2754070649587103,0.3624034146323795 l -4.361178418040009 3.255428461010916" fill="#ff1b02" stroke="none" /><path d="M 116.82858285166822 87.43820079747576 l 18.32119103308475 -13.67596576237458 a43.862591288050155,43.862591288050155 0 0,0 0.4464321747757339,0.608932984683532 l -18.553885820374113 13.358570334019554" fill="#f3ff19" stroke="none" /><path d="M 117.45458315368197 88.32363383020206 l 9.501991698394086 -6.356424180168715 a32.432059070639184,32.432059070639184 0 0,0 0.30641093532787356,0.4666848761502947 l -9.609999269079884 6.191921240040746" fill="#ff720a" stroke="none" /><path d="M 117.65298651832404 88.62581576622439 l 6.228687384268736 -4.013272075505589 a28.409649066115172,28.409649066115172 0 0,0 0.26133143809096704,0.4133635761793046 l -6.296846418605658 3.9054608516120783" fill="#ff3805" stroke="none" /><line stroke="#e1ed5e" stroke-width="0.3" x1="172.23445277983987" x2="176.4835382374775" y1="55.19839476539836" y2="52.563006222186495" /><path d="M 173.08426987136738 54.67131705675599 a86.0,86.0 0 0,1 12.851231095245387,41.99856678651699" fill="none" id="id279" stroke="none" /><text fill="#e1ed5e" style="font-size:6.75px; font-family:Arial;" text-anchor="middle"><textPath startOffset="22.20632615414155" xlink:href="#id279">March</textPath></text><path d="M 117.84615892207809 88.93136811851018 l 12.451827811203707 -7.722933483653075 a35.65236217928003,35.65236217928003 0 0,0 0.31897693367925956,0.5243142096311754 l -12.58292054316919 7.507451500814819" fill="#ff9f0e" stroke="none" /><path d="M 118.03404312379186 89.2402003453031 l 16.182182445945624 -9.654908768872783 a39.84357429069993,39.84357429069993 0 0,0 0.34633614387095535,0.5920007363859724 l -16.345978264286906 9.374928620132915" fill="#ffd714" stroke="none" /><path d="M 118.21658344932153 89.55222093294921 l 15.011345393302795 -8.60947502064442 a38.30501518774639,38.30501518774639 0 0,0 0.3231162257469797,0.5747877113265264 l -15.157319260342208 8.3498037993831" fill="#ffc312" stroke="none" /><path d="M 118.56541770881063 90.18545643968196 l 11.136940896785804 -5.887505106244883 a33.597387384476185,33.597387384476185 0 0,0 0.2658842311316787,0.513603705295382 l -11.236634561077597 5.694928678689156" fill="#ff820c" stroke="none" /><path d="M 118.73160827565052 90.50648371742162 l 13.899197150831291 -7.044363330921811 a36.582385445614946,36.582385445614946 0 0,0 0.27983780591033414,0.5641359407808558 l -14.018394969695034 6.804067801642005" fill="#ffac0f" stroke="none" /><path d="M 118.89224826269711 90.83032412892265 l 13.55930588892375 -6.581241062966567 a36.072077166677445,36.072077166677445 0 0,0 0.2663180950381532,0.5609338277322956 l -13.67058217780366 6.346864819593731" fill="#ffa50f" stroke="none" /><path d="M 119.34039704204932 91.81776055985345 l 15.240109124592298 -6.447552326886627 a37.547865636915915,37.547865636915915 0 0,0 0.2467043410288273,0.5974141302141043 l -15.348835152507323 6.184263626219219" fill="#ffb911" stroke="none" /><path d="M 119.7369772167798 92.82701384747503 l 20.832536985865424 -7.57114413622237 a43.16566761455439,43.16566761455439 0 0,0 0.24778515455820518,0.7005219990438072 l -20.95977522123344 7.2114245107519475" fill="#fcff18" stroke="none" /><path d="M 119.97218684219823 93.5106431181261 l 11.744615236463927 -3.816056815004223 a33.349019259355,33.349019259355 0 0,0 0.17269156981730166,0.5474794685478467 l -11.808562290049434 3.613327180029957" fill="#ff7f0b" stroke="none" /><path d="M 120.37134235888165 94.90015583598534 l 35.05607446224728 -8.776079337825701 a57.13790150584891,57.13790150584891 0 0,0 0.23063904331542479,0.956147734340265 l -35.20194630582352 8.17134637182603" fill="#59ff2a" stroke="none" /><path d="M 120.53481517161879 95.60439243477599 l 12.397630891073058 -2.653791606119422 a33.678480255929685,33.678480255929685 0 0,0 0.11646452136659471,0.567922367716409 l -12.441474708354649 2.4399935822396013" fill="#ff840c" stroke="none" /><path d="M 120.67395015179393 96.31383870115 l 14.699107742998969 -2.6208480571946926 a35.930928068247916,35.930928068247916 0 0,0 0.10332389809010764,0.6098234953583292 l -14.742043502609299 2.3674387735205253" fill="#ffa30f" stroke="none" /><path d="M 120.91429891909075 98.10471618934814 l 17.047863705618315 -1.544901897618215 a38.117721191753375,38.117721191753375 0 0,0 0.05359263780052868,0.6539659263401545 l -17.07193082723834 1.2512220540702916" fill="#ffc011" stroke="none" /><path d="M 120.94382443527127 98.46500227214037 l 11.08068136646025 -0.8121162767201531 a32.11040199056421,32.11040199056421 0 0,0 0.0356569331919332,0.5515969743470159 l -11.0930188906566 0.6212602381201019" fill="#ff6d0a" stroke="none" /><line stroke="#e1ed5e" stroke-width="0.3" x1="184.98032266829074" x2="189.97916517819016" y1="98.17113171792111" y2="98.06355123074" /><path d="M 185.9800911702706 98.14961562048488 a86.0,86.0 0 0,1 -9.607161424134198,41.387399972396054" fill="none" id="id280" stroke="none" /><text fill="#e1ed5e" style="font-size:6.75px; font-family:Arial;" text-anchor="middle"><textPath startOffset="21.466115282336823" xlink:href="#id280">April</textPath></text><path d="M 120.99824983174949 100.27111621757518 l 17.467950461487277 0.22553520868908383 a38.46940638531636,38.46940638531636 0 0,0 -0.014248220543331648,0.6620588213410533 l -17.461480178258938 -0.5261838458202519" fill="#ffc512" stroke="none" /><path d="M 120.95626037817324 101.35467743843564 l 12.022965353169464 0.7772016387043877 a33.04805952304014,33.04805952304014 0 0,0 -0.04158302200307275,0.5673672973671288 l -12.007805772502055 -0.9840420725682868" fill="#ff7b0b" stroke="none" /><path d="M 120.92983693683757 101.71520430193887 l 18.987743394404653 1.5560493496666068 a40.051395980094355,40.051395980094355 0 0,0 -0.06222347445320477,0.6866308555926158 l -18.958145323674373 -1.8826615938077933" fill="#ffda14" stroke="none" /><path d="M 120.81339534386255 102.79330883721812 l 12.545138520370843 1.6836487134431222 a33.657613261810894,33.657613261810894 0 0,0 -0.0820058915741323,0.5735490146700597 l -12.51429857778011 -1.8993432000935913" fill="#ff830c" stroke="none" /><path d="M 120.76222939487914 103.15116336523771 l 16.864027903843265 2.559518340262833 a38.05715601370129,38.05715601370129 0 0,0 -0.10387473412876666,0.6468280685760067 l -16.81747141535321 -2.849425638532045" fill="#ffc011" stroke="none" /><path d="M 120.49622156327973 104.57218783832717 l 61.488664689839204 13.716563514981502 a84.0,84.0 0 0,0 -0.3269577362777887,1.4085253706057403 l -61.24344638763086 -14.772957542935806" fill="#4dd2ff" stroke="none" /><path d="M 120.13307415673323 105.97154293290107 l 8.226188292712278 2.439917331135993 a29.580406191430235,29.580406191430235 0 0,0 -0.14899119206891195,0.48691183625388396 l -8.182970328137232 -2.5811561399419345" fill="#ff4906" stroke="none" /><line stroke="#e1ed5e" stroke-width="0.3" x1="174.80103733775053" x2="179.2010983576182" y1="140.37084112569926" y2="142.7455964860345" /><path d="M 175.68104954172406 140.8457921977663 a86.0,86.0 0 0,1 -30.038265399797805,32.042727171017184" fill="none" id="id281" stroke="none" /><text fill="#e1ed5e" style="font-size:6.75px; font-family:Arial;" text-anchor="middle"><textPath startOffset="22.206326154141568" xlink:href="#id281">May</textPath></text><path d="M 117.14729908036423 112.12312394758627 l 6.991544398993921 4.943015161560676 a29.562423253409165,29.562423253409165 0 0,0 -0.2973419608316853,0.4129819773323946 l -6.905422645786633 -5.062630744344202" fill="#ff4906" stroke="none" /><path d="M 116.93607887273984 112.41649034213515 l 6.913221363680272 5.068348284167618 a29.572093323854457,29.572093323854457 0 0,0 -0.30450628578689587,0.40793593151758134 l -6.8249538111982835 -5.186597095194514" fill="#ff4906" stroke="none" /><path d="M 116.498646956653 112.99209946851258 l 8.517894324458922 6.70753975258703 a31.841845472758997,31.841845472758997 0 0,0 -0.34280337659562143,0.42769992073179586 l -8.401173035808446 -6.853167506897075" fill="#ff6a09" stroke="none" /><path d="M 115.56566222782051 114.09645910891815 l 7.947813250881922 7.197639448717631 a31.7225812706004,31.7225812706004 0 0,0 -0.3700266776133906,0.4015908773929426 l -7.822740165272809 -7.333381580911908" fill="#ff6809" stroke="none" /><path d="M 114.81725581225074 114.88116024355365 l 7.89797177738887 7.93203445412711 a32.19353066632198,32.19353066632198 0 0,0 -0.3960571514683625,0.3876252816923112 l -7.760264673544714 -8.066809838741992" fill="#ff6f0a" stroke="none" /><path d="M 114.55890576462653 115.13401014063108 l 6.077070558008209 6.317126364928159 a29.76566438311898,29.76566438311898 0 0,0 -0.37230349519024775,0.352036192714873 l -5.967431228427154 -6.420797194388953" fill="#ff4c07" stroke="none" /><path d="M 113.48314897796784 116.09983520530334 l 14.528173628121522 17.347668681032676 a43.62762554126543,43.62762554126543 0 0,0 -0.5798939766301795,0.4772132637857097 l -14.227409522946651 -17.595177063675564" fill="#f6ff19" stroke="none" /><line stroke="#e1ed5e" stroke-width="0.3" x1="143.8653032363475" x2="146.44561519142675" y1="172.8068346515853" y2="177.08958963109032" /><path d="M 144.38136562736335 173.6633856474863 a86.0,86.0 0 0,1 -40.68145358897372,12.25698825130547" fill="none" id="id282" stroke="none" /><text fill="#e1ed5e" style="font-size:6.75px; font-family:Arial;" text-anchor="middle"><textPath startOffset="21.466115282336833" xlink:href="#id282">June</textPath></text><line stroke="#e1ed5e" stroke-width="0.3" x1="102.19456741930631" x2="102.32365962044197" y1="184.97166512339345" y2="189.96999836594603" /><path d="M 102.22038585953345 185.97133177190398 a86.0,86.0 0 0,1 -42.740103519485714,-10.115201625700543" fill="none" id="id283" stroke="none" /><text fill="#e1ed5e" style="font-size:6.75px; font-family:Arial;" text-anchor="middle"><textPath startOffset="22.20632615414155" xlink:href="#id283">July</textPath></text><line stroke="#e1ed5e" stroke-width="0.3" x1="58.666819895761336" x2="56.23545636021788" y1="174.27360380694188" y2="178.64263932499728" /><path d="M 58.180547188652646 175.14741091055294 a86.0,86.0 0 0,1 -31.652253787137756,-30.449443065178592" fill="none" id="id284" stroke="none" /><text fill="#e1ed5e" style="font-size:6.75px; font-family:Arial;" text-anchor="middle"><textPath startOffset="22.20632615414155" xlink:href="#id284">August</textPath></text><line stroke="#e1ed5e" stroke-width="0.3" x1="26.63291911575756" x2="22.317208475507996" y1="142.92168965132927" y2="145.44649492493687" /><path d="M 25.769776987707644 143.4266507060508 a86.0,86.0 0 0,1 -11.730757126820373,-40.83630448921669" fill="none" id="id285" stroke="none" /><text fill="#e1ed5e" style="font-size:6.75px; font-family:Arial;" text-anchor="middle"><textPath startOffset="21.46611528233685" xlink:href="#id285">September</textPath></text><line stroke="#e1ed5e" stroke-width="0.3" x1="15.007084014347285" x2="10.007500721073583" y1="101.09737516637583" y2="101.16192664675087" /><path d="M 14.007167355692545 101.11028546245083 a86.0,86.0 0 0,1 10.666146001902534,-42.60595125391555" fill="none" id="id286" stroke="none" /><text fill="#e1ed5e" style="font-size:6.75px; font-family:Arial;" text-anchor="middle"><textPath startOffset="22.20632615414155" xlink:href="#id286">October</textPath></text><line stroke="#e1ed5e" stroke-width="0.3" x1="26.266209847984243" x2="21.928928074336255" y1="57.711370442889674" y2="55.22380399835377" /><path d="M 25.398753493254645 57.213857153982495 a86.0,86.0 0 0,1 29.58750427330803,-30.492523968695096" fill="none" id="id287" stroke="none" /><text fill="#e1ed5e" style="font-size:6.75px; font-family:Arial;" text-anchor="middle"><textPath startOffset="21.46611528233685" xlink:href="#id287">November</textPath></text><line stroke="#e1ed5e" stroke-width="0.3" x1="56.762969772571076" x2="54.21961505331055" y1="26.818313649435495" y2="22.513508569990535" /><path d="M 56.25429882871897 25.957352633546506 a86.0,86.0 0 0,1 42.265352541879196,-11.944610805530505" fill="none" id="id288" stroke="none" /><text fill="#e1ed5e" style="font-size:6.75px; font-family:Arial;" text-anchor="middle"><textPath startOffset="22.20632615414155" xlink:href="#id288">December</textPath></text></svg>