<?xml version="1.0" encoding="utf-8" ?>
<svg baseProfile="full" height="200mm" version="1.1" viewBox="0,0,200,200" width="200mm" xmlns="http://www.w3.org/2000/svg" xmlns:ev="http://www.w3.org/2001/xml-events" xmlns:xlink="http://www.w3.org/1999/xlink"><defs /><rect fill="#1a1a1a" height="200" width="200" x="0" y="0" /><text alignment-baseline="middle" fill="#e1ed5e" style="dominant-baseline: central; font-size:9.0px; font-family:Arial;" text-anchor="middle" x="100.0" y="100.0">2021</text><line stroke="#e1ed5e" stroke-width="0.3" x1="100.0" x2="100.0" y1="15.0" y2="10.0" /><path d="M 100.0 14.0 a86.0,86.0 0 0,1 42.46469731375804,11.215312516191453" fill="none" id="id253" stroke="none" /><text fill="#e1ed5e" style="font-size:6.75px; font-family:Arial;" text-anchor="middle"><textPath startOffset="22.20632615414155" xlink:href="#id253">January</textPath></text><path d="M 100.0 79.0 l 0.0 -18.25626586294416 a39.25626586294416,39.25626586294416 0 0,0 0.6757320856469928,0.0058162393973967864 l -0.3142516063744645 18.253561000155322" fill="#ffe715" stroke="none" /><path d="M 101.44485096284872 79.0497635885617 l 0.4177340871275526 -6.05711461421847 a27.07150222081218,27.07150222081218 0 0,0 0.4646111899561847,0.036062770323410535 l -0.5219354664460785 6.0490265817065945" fill="#ff4506" stroke="none" /><path d="M 102.16513564639614 79.11191278185805 l 0.627306937162032 -6.051926602287648 a27.084351205583758,27.084351205583758 0 0,0 0.4633143222324857,0.052058762489560546 l -0.731387962904243 6.040231886327486" fill="#ff4606" stroke="none" /><path d="M 102.88285421437855 79.19881850522331 l 2.2412871863622295 -16.171966418873527 a37.32653870558376,37.32653870558376 0 0,0 0.6356727663974839,0.09368164176015953 l -2.5193289331883695 16.130990292952397" fill="#ffce13" stroke="none" /><path d="M 103.95276090670814 79.375362276772 l 0.922934916657614 -4.815671564115296 a25.903315355329948,25.903315355329948 0 0,0 0.43719071752833044,0.08769634505945056 l -1.0056920436530699 4.799071262978637" fill="#ff3505" stroke="none" /><path d="M 104.66035177308747 79.52364482259891 l 0.8269515833760472 -3.633406910076254 a24.726324555837564,24.726324555837564 0 0,0 0.41419691843907414,0.09802702842881417 l -0.8893721887776449 3.618633969506571" fill="#ff2403" stroke="none" /><path d="M 106.0581310904928 79.89281104454417 l 1.7552284382868688 -5.825676160096575 a27.084351205583758,27.084351205583758 0 0,0 0.4452340098479812,0.13833637414787406 l -1.8552478208455683 5.79459965106618" fill="#ff4606" stroke="none" /><path d="M 107.4271985657038 80.35727306442388 l 2.1641763949750934 -5.723601650185178 a27.119091053299492,27.119091053299492 0 0,0 0.43521858261280194,0.16885804852740496 l -2.262378142587562 5.685500897767226" fill="#ff4606" stroke="none" /><path d="M 108.09893153111575 80.62456947434976 l 2.439379163183062 -5.835834186322712 a27.32515069796954,27.32515069796954 0 0,0 0.4324091141791706,0.18513501618071343 l -2.5394720351525475 5.792979642179208" fill="#ff4906" stroke="none" /><path d="M 108.76106565485865 80.91482961587045 l 3.2520453097032433 -7.084279615936416 a28.79505076142132,28.79505076142132 0 0,0 0.44868419123195985,0.21066324398156958 l -3.373507712234801 7.027251389314844" fill="#ff5d08" stroke="none" /><path d="M 110.36928655335952 81.73862282372117 l 13.17714544902058 -23.206304687692214 a47.68650856598985,47.68650856598985 0 0,0 0.710309318893416,0.4114570047971977 l -13.574651500379325 22.976043525504966" fill="#b3ff20" stroke="none" /><line stroke="#e1ed5e" stroke-width="0.3" x1="143.23703022742887" x2="145.7803849466894" y1="26.81831364943548" y2="22.513508569990506" /><path d="M 143.74570117128098 25.957352633546492 a86.0,86.0 0 0,1 28.547481713284135,27.462654790039103" fill="none" id="id254" stroke="none" /><text fill="#e1ed5e" style="font-size:6.75px; font-family:Arial;" text-anchor="middle"><textPath startOffset="19.985693538727396" xlink:href="#id254">February</textPath></text><path d="M 111.2981086023043 82.29822771554956 l 4.359301262625407 -6.8301129849799525 a29.102712563451774,29.102712563451774 0 0,0 0.4199562640879994,0.2731512360063031 l -4.476224552497687 6.754062824814121" fill="#ff6209" stroke="none" /><path d="M 111.60114157652 82.49532879139004 l 1.7668027548269296 -2.665884310584284 a24.198207487309645,24.198207487309645 0 0,0 0.34522235080830665,0.23309567230513673 l -1.8124298000417782 2.6350767259804777" fill="#ff1c02" stroke="none" /><path d="M 111.90073688211348 82.69761687909136 l 1.3922578443145113 -2.024192187764929 a23.45677347715736,23.45677347715736 0 0,0 0.33070572344887716,0.23168049328644472 l -1.4268947073470395 1.9999268517145488" fill="#ff1202" stroke="none" /><path d="M 112.19680574252982 82.90503203632743 l 15.551010240546288 -21.79620037219208 a47.77514276649747,47.77514276649747 0 0,0 0.6653363935204094,0.4833951853222849 l -15.923891950420487 21.525285952053117" fill="#b2ff20" stroke="none" /><path d="M 112.48926042617603 83.11751280151076 l 2.133431043612103 -2.8838875204453385 a24.5872461928934,24.5872461928934 0 0,0 0.33807913841369164,0.25463419793761083 l -2.1827563357841777 2.8467367330018805" fill="#ff2203" stroke="none" /><path d="M 113.06298171725822 83.55741782278167 l 6.012115373156631 -7.567544931295673 a30.665053934010153,30.665053934010153 0 0,0 0.41046868779461115,0.33190379934605346 l -6.141487459515733 7.462935034685491" fill="#ff770b" stroke="none" /><path d="M 113.34407831869373 83.78471172551755 l 13.375527379270777 -16.2535041460503 a42.0494923857868,42.0494923857868 0 0,0 0.5549380899721806,0.4647446911865962 l -13.653323006202074 16.020858297469882" fill="#f5ff19" stroke="none" /><path d="M 114.16331599549186 84.49514656593476 l 9.385267038007072 -10.274231677820431 a34.91556947969543,34.91556947969543 0 0,0 0.44025559671602915,0.4091695963592998 l -9.560730518517948 10.111157495386491" fill="#ffaf10" stroke="none" /><path d="M 114.42810811169701 84.74124197986012 l 0.8676711362721161 -0.9176243903178527 a22.26288864213198,22.26288864213198 0 0,0 0.27618359699362655,0.26568840148789163 l -0.8833379768781608 0.9025529020676591" fill="#ff0000" stroke="none" /><path d="M 115.19652480421416 85.50635884689758 l 4.37087771814465 -4.1687118592608785 a27.040093591370557,27.040093591370557 0 0,0 0.3183426072744698,0.3395856976440062 l -4.441987647389582 4.0928567447388176" fill="#ff4506" stroke="none" /><path d="M 115.4437574822437 85.77008943001954 l 2.449572143709078 -2.2570409163555065 a24.33086135786802,24.33086135786802 0 0,0 0.28114467798934445,0.31044697543675104 l -2.4880604623144578 2.2145411536492063" fill="#ff1e03" stroke="none" /><path d="M 116.15771136456269 86.58626213691792 l 31.127431101987877 -25.84123405428302 a61.45598032994923,61.45598032994923 0 0,0 0.6687040083959979,0.8197520458415213 l -31.567633602460283 25.3015978388334" fill="#31ff3e" stroke="none" /><path d="M 116.82858285166822 87.43820079747576 l 4.830475994621451 -3.6057385242651683 a27.027839467005077,27.027839467005077 0 0,0 0.2750885617656555,0.3752204890976104 l -4.891827168900733 3.522055591496064" fill="#ff4506" stroke="none" /><path d="M 117.45458315368197 88.32363383020206 l 4.462531887686728 -2.985242094082223 a26.368972081218274,26.368972081218274 0 0,0 0.24912822776507842,0.3794393825914858 l -4.513256750809731 2.907984647513063" fill="#ff3b05" stroke="none" /><line stroke="#e1ed5e" stroke-width="0.3" x1="172.23445277983987" x2="176.4835382374775" y1="55.19839476539836" y2="52.563006222186495" /><path d="M 173.08426987136738 54.67131705675599 a86.0,86.0 0 0,1 12.851231095245387,41.99856678651699" fill="none" id="id255" stroke="none" /><text fill="#e1ed5e" style="font-size:6.75px; font-family:Arial;" text-anchor="middle"><textPath startOffset="22.20632615414155" xlink:href="#id255">March</textPath></text><path d="M 118.03404312379186 89.2402003453031 l 5.156568338135078 -3.076605830607591 a27.004639911167512,27.004639911167512 0 0,0 0.23473503619981473,0.40123826734542567 l -5.208763048805221 2.98738815090827" fill="#ff4406" stroke="none" /><path d="M 118.3937258080291 89.86733742301442 l 4.895212017075185 -2.6966549425335105 a26.588832487309645,26.588832487309645 0 0,0 0.21738510425276317,0.4027815831048057 l -4.940905220546413 2.611992376096246" fill="#ff3f05" stroke="none" /><path d="M 118.73160827565052 90.50648371742162 l 19.046787280923148 -9.653254676337783 a42.353347081218274,42.353347081218274 0 0,0 0.323982910786034,0.6531297784394536 l -19.21013020466259 9.32396530939938" fill="#f1ff19" stroke="none" /><path d="M 118.89224826269711 90.83032412892265 l 44.85827949725967 -21.77273331391962 a70.86298381979695,70.86298381979695 0 0,0 0.5231773810087489,1.1019449912712556 l -45.22641507211018 20.997345907007823" fill="#3dffaa" stroke="none" /><path d="M 119.04729006885535 91.15688171328212 l 3.250768295210907 -1.5092398159183298 a24.584033946700508,24.584033946700508 0 0,0 0.17489512911102287,0.38535823376825756 l -3.2762657412852767 1.4530595733080094" fill="#ff2203" stroke="none" /><path d="M 119.196687751892 91.48605970444005 l 3.6929088634384333 -1.637845340124373 a25.039815989847714,25.039815989847714 0 0,0 0.17135496102718606,0.3955108753917404 l -3.7205545343083 1.57403532014603" fill="#ff2903" stroke="none" /><path d="M 119.61058180528143 92.48833698450437 l 3.685761032622208 -1.411798747615276 a24.946898794416242,24.946898794416242 0 0,0 0.1501511208918357,0.4023303535495048 l -3.7095167420156687 1.3481452570364378" fill="#ff2703" stroke="none" /><path d="M 120.08093135843002 93.85539295169968 l 4.293841734619878 -1.3138817974075347 a25.49036326142132,25.49036326142132 0 0,0 0.12477423922641082,0.42067670607450053 l -4.315821870957992 1.2397757045865043" fill="#ff2f04" stroke="none" /><path d="M 120.18372546131832 94.20196356495316 l 2.811807747313594 -0.8077281767687289 a23.92552347715736,23.92552347715736 0 0,0 0.11030034255780484,0.39680901842278105 l -2.8252948604377623 0.7592078549269958" fill="#ff1902" stroke="none" /><path d="M 120.28053869075195 94.5502522615342 l 3.0275119793629566 -0.8135472540596324 a24.134914340101524,24.134914340101524 0 0,0 0.10435898819415483,0.40213775222256337 l -3.041067299427414 0.7613130762882185" fill="#ff1c02" stroke="none" /><path d="M 120.53481517161879 95.60439243477599 l 2.856646497343521 -0.6114833199106904 a23.92135945431472,23.92135945431472 0 0,0 0.08272314124965621,0.4033874152589698 l -2.8667489345081743 0.5622202484883088" fill="#ff1802" stroke="none" /><path d="M 120.6074358757038 95.95851677861258 l 4.123425193153905 -0.8086767239404833 a25.201974936548222,25.201974936548222 0 0,0 0.07982338661649405,0.42641972315212484 l -4.136734303680258 0.7375789233257957" fill="#ff2b04" stroke="none" /><path d="M 120.73433829027371 96.67025291283417 l 4.227755446684878 -0.6789392642663694 a25.281924175126903,25.281924175126903 0 0,0 0.06530454233405353,0.4302753400298301 l -4.238815882458232 0.6060648118444572" fill="#ff2c04" stroke="none" /><path d="M 120.83666639777658 97.38593545837742 l 3.5955856928133882 -0.4510842994996491 a24.62377062182741,24.62377062182741 0 0,0 0.04914159688006594,0.4210151918009365 l -3.602817642697043 0.3891253693738599" fill="#ff2303" stroke="none" /><path d="M 120.94382443527127 98.46500227214037 l 3.432773889236045 -0.25159206889450597 a24.441981281725887,24.441981281725887 0 0,0 0.02714155038909459,0.41986777138474257 l -3.436596030629555 0.19246523325672815" fill="#ff2003" stroke="none" /><path d="M 120.96714384426684 98.82574320788733 l 5.952244668307919 -0.3333531635014826 a26.961572017766496,26.961572017766496 0 0,0 0.021962629217938696,0.46359639064759994 l -5.957100905759354 0.23084566623088285" fill="#ff4406" stroke="none" /><line stroke="#e1ed5e" stroke-width="0.3" x1="184.98032266829074" x2="189.97916517819016" y1="98.17113171792111" y2="98.06355123074" /><path d="M 185.9800911702706 98.14961562048488 a86.0,86.0 0 0,1 -9.607161424134198,41.387399972396054" fill="none" id="id256" stroke="none" /><text fill="#e1ed5e" style="font-size:6.75px; font-family:Arial;" text-anchor="middle"><textPath startOffset="21.466115282336823" xlink:href="#id256">April</textPath></text><path d="M 120.9764740272857 100.99374915477107 l 3.642646856215788 0.17256843212950193 a24.646732233502537,24.646732233502537 0 0,0 -0.023723828435097214,0.42360489347516517 l -3.6391366768931617 -0.23524504194009047" fill="#ff2303" stroke="none" /><path d="M 120.92983693683757 101.71520430193887 l 6.015881509418364 0.49300268683641113 a27.036048540609137,27.036048540609137 0 0,0 -0.04200295231952196,0.4634990787963594 l -6.0065039608217665 -0.5964831541813411" fill="#ff4506" stroke="none" /><path d="M 120.81339534386255 102.79330883721812 l 5.928053829299683 0.7955878834430715 a26.981202411167512,26.981202411167512 0 0,0 -0.06573899171812142,0.45977835496425673 l -5.913480786564961 -0.8975117103877376" fill="#ff4406" stroke="none" /><path d="M 120.76222939487914 103.15116336523771 l 4.899317773043794 0.7435882913846132 a25.955425126903553,25.955425126903553 0 0,0 -0.07084378252766878,0.44114430142546474 l -4.885792236154837 -0.8278118225032829" fill="#ff3605" stroke="none" /><path d="M 120.49622156327973 104.57218783832717 l 4.757819198319797 1.0613489422113929 a25.874762055837564,25.874762055837564 0 0,0 -0.10071373367265561,0.43387212873849945 l -4.7388448987165885 -1.1430897282984573" fill="#ff3405" stroke="none" /><path d="M 120.32669344350535 105.2749913415812 l 2.8130691819136864 0.7300211231652562 a23.90625,23.90625 0 0,0 -0.10679482380735182,0.39742326803676425 l -2.8000862817645573 -0.7783353243775688" fill="#ff1802" stroke="none" /><path d="M 120.23288151984713 105.62410040840565 l 4.418377510107115 1.2281690442712363 a25.585897842639593,25.585897842639593 0 0,0 -0.12160290459883313,0.42331566371088425 l -4.396581968622183 -1.3040421834867024" fill="#ff3004" stroke="none" /><path d="M 119.9155931802556 106.66101706037122 l 5.674937625698627 1.8980532489886885 a26.983938769035532,26.983938769035532 0 0,0 -0.1511218388811909,0.439230802353488 l -5.641424955874205 -1.995456754431477" fill="#ff4406" stroke="none" /><path d="M 119.79798401119884 107.00284435728193 l 1.9251529503275506 0.6809555188790953 a23.042036802030456,23.042036802030456 0 0,0 -0.13548250105121298,0.3727896554740785 l -1.913146188271111 -0.713992971359305" fill="#ff0c01" stroke="none" /><path d="M 119.54520255179757 107.68017299344265 l 13.383401164923706 5.258929188114382 a35.3795605964467,35.3795605964467 0 0,0 -0.22760410215724372,0.5648947158777173 l -13.29089444850907 -5.488523271834913" fill="#ffb510" stroke="none" /><path d="M 119.12269723197855 108.67885076344098 l 8.550893819246475 3.8808296994404525 a30.390347398477154,30.390347398477154 0 0,0 -0.22029439414780091,0.47449452668503117 l -8.482824808258844 -4.027444293404314" fill="#ff730a" stroke="none" /><path d="M 118.81262510543309 109.33194174019688 l 4.244969437343037 2.1057033378484253 a25.738539022842637,25.738539022842637 0 0,0 -0.2002964897557603,0.39520397642102184 l -4.208094277801008 -2.1784615259721414" fill="#ff3304" stroke="none" /><line stroke="#e1ed5e" stroke-width="0.3" x1="174.80103733775053" x2="179.2010983576182" y1="140.37084112569926" y2="142.7455964860345" /><path d="M 175.68104954172406 140.8457921977663 a86.0,86.0 0 0,1 -30.038265399797805,32.042727171017184" fill="none" id="id257" stroke="none" /><text fill="#e1ed5e" style="font-size:6.75px; font-family:Arial;" text-anchor="middle"><textPath startOffset="22.206326154141568" xlink:href="#id257">May</textPath></text><path d="M 118.48025628344425 109.97397251340804 l 10.514289212751384 5.674663272930546 a32.947890228426395,32.947890228426395 0 0,0 -0.27366139593522165,0.4967749239482226 l -10.415051407364652 -5.854808715276574" fill="#ff960d" stroke="none" /><path d="M 118.30583269289576 110.29060199501025 l 24.961961726971303 14.032336985502404 a49.63574714467005,49.63574714467005 0 0,0 -0.4250900020692445,0.7411802495506348 l -24.71671972874968 -14.459937080911354" fill="#9dff22" stroke="none" /><path d="M 118.12598468904814 110.60418214915192 l 35.37746291047972 20.696754803299676 a61.98683375634518,61.98683375634518 0 0,0 -0.5467212888852296,0.9163363275214265 l -35.015960745896265 -21.302653224707207" fill="#32ff45" stroke="none" /><path d="M 117.94076556474637 110.91462005526583 l 10.168825759473462 6.186406548388664 a32.90279980964467,32.90279980964467 0 0,0 -0.29853080084112044,0.48132670523222965 l -10.060830318964378 -6.360529584986168" fill="#ff950d" stroke="none" /><path d="M 115.56566222782051 114.09645910891815 l 2.6588576517801408 2.4078948660317216 a24.58712722081218,24.58712722081218 0 0,0 -0.28679548237162406,0.31125985331870776 l -2.617015761412795 -2.453305974151764" fill="#ff2203" stroke="none" /><path d="M 113.48314897796784 116.09983520530334 l 2.297402945189905 2.743261895138591 a24.57820431472081,24.57820431472081 0 0,0 -0.326691000522397,0.2688444524198538 l -2.249841816122817 -2.7824014664156236" fill="#ff2203" stroke="none" /><path d="M 112.92097659922987 116.55440617244103 l 6.0095658929159255 7.699479520557915 a30.767131979695428,30.767131979695428 0 0,0 -0.4202955367439866,0.3222646952541873 l -5.876141627678445 -7.801783557639474" fill="#ff780b" stroke="none" /><path d="M 111.7513745106137 117.40417183066458 l 14.441823583327864 21.38881532244314 a46.807899746192895,46.807899746192895 0 0,0 -0.67163830916053,0.445125247993995 l -14.071510575427368 -21.634238591528455" fill="#bdff1f" stroke="none" /><path d="M 111.45004920935366 117.60387380957326 l 4.879724618006876 7.502330761223875 a29.94967480964467,29.94967480964467 0 0,0 -0.4345814732035888,0.27737045770928226 l -4.749861342756358 -7.585215647756966" fill="#ff6d0a" stroke="none" /><line stroke="#e1ed5e" stroke-width="0.3" x1="143.8653032363475" x2="146.44561519142675" y1="172.8068346515853" y2="177.08958963109032" /><path d="M 144.38136562736335 173.6633856474863 a86.0,86.0 0 0,1 -40.68145358897372,12.25698825130547" fill="none" id="id258" stroke="none" /><text fill="#e1ed5e" style="font-size:6.75px; font-family:Arial;" text-anchor="middle"><textPath startOffset="21.466115282336833" xlink:href="#id258">June</textPath></text><path d="M 110.21172684928248 118.3499491758327 l 2.3222144428152154 4.172900198954885 a25.775539340101524,25.775539340101524 0 0,0 -0.3895508665871642,0.21241419232087452 l -2.2500407643594023 -4.21225504303553" fill="#ff3304" stroke="none" /><path d="M 109.57404056367764 118.69057910512821 l 5.372705617717346 10.488672853286854 a32.78466053299492,32.78466053299492 0 0,0 -0.5044873780564064,0.2529604443436551 l -5.191364331978178 -10.579601138539811" fill="#ff930d" stroke="none" /><path d="M 109.2508944713604 118.85261126421891 l 11.001684110083344 22.420585860237853 a45.97438134517766,45.97438134517766 0 0,0 -0.7134508798533248,0.3424997786681642 l -10.614120562229786 -22.60663991540558" fill="#c7ff1e" stroke="none" /><path d="M 106.91757812671514 119.82793768551818 l 3.5417159766333204 10.15166325527811 a31.75174492385787,31.75174492385787 0 0,0 -0.5175992056901577,0.17559775315378748 l -3.3664470380059357 -10.211123995330022" fill="#ff860c" stroke="none" /><path d="M 103.41894727170886 120.7198165907248 l 1.7396512999754097 10.542793732320503 a31.68535850253807,31.68535850253807 0 0,0 -0.5388987478958828,0.08416490140882607 l -1.5579166884710098 -10.571176941076434" fill="#ff850c" stroke="none" /><path d="M 101.98527174616119 120.90594882070398 l 0.4617101978996502 4.8620496342385735 a25.88392290609137,25.88392290609137 0 0,0 -0.44391628160803215,0.03830296467943909 l -0.37794959855007637 -4.869276851196676" fill="#ff3505" stroke="none" /><path d="M 101.62511606390274 120.93702456842531 l 0.37106288934164144 4.780552603682726 a25.7949317893401,25.7949317893401 0 0,0 -0.4429815707811153,0.030550602699542424 l -0.2887185577815959 -4.786231550898554" fill="#ff3304" stroke="none" /><path d="M 100.90346689309514 120.98055641714683 l 0.20580753888949527 4.779319213294603 a25.783748413705585,25.783748413705585 0 0,0 -0.44357826473394263,0.0152777323258392 l -0.12350892248090033 -4.7821537440465365" fill="#ff3304" stroke="none" /><line stroke="#e1ed5e" stroke-width="0.3" x1="102.19456741930631" x2="102.32365962044197" y1="184.97166512339345" y2="189.96999836594603" /><path d="M 102.22038585953345 185.97133177190398 a86.0,86.0 0 0,1 -42.740103519485714,-10.115201625700543" fill="none" id="id259" stroke="none" /><text fill="#e1ed5e" style="font-size:6.75px; font-family:Arial;" text-anchor="middle"><textPath startOffset="22.20632615414155" xlink:href="#id259">July</textPath></text><path d="M 100.54218724476979 120.99299961872073 l 0.1846382981503374 7.149027868254302 a28.151411802030456,28.151411802030456 0 0,0 -0.4845264291278617,0.008341561883898448 l -0.06155217912980777 -7.15114690741736" fill="#ff5407" stroke="none" /><path d="M 99.45781275523022 120.99299961872073 l -0.10426795925325297 4.0371610545315635 a25.038507296954315,25.038507296954315 0 0,0 -0.43075729099216853,-0.014836152066939246 l 0.17374560192006452 -4.03476810403853" fill="#ff2903" stroke="none" /><path d="M 96.58105272829116 120.7198165907248 l -0.7910693070378272 4.794110481903732 a25.858938769035532,25.858938769035532 0 0,0 -0.43855655424920414,-0.0762486784055687 l 0.8734748327590812 -4.779783224977157" fill="#ff3405" stroke="none" /><path d="M 95.51606077576429 120.51570834832081 l -1.2805666260295183 5.859073931737515 a26.997382614213198,26.997382614213198 0 0,0 -0.4531444471734093,-0.1031342008650073 l 1.3812312225957901 -5.836162997294821" fill="#ff4406" stroke="none" /><path d="M 94.81253420990036 120.34920634021253 l -4.414747572533187 17.318014793443997 a38.87186706852792,38.87186706852792 0 0,0 -0.6469566212481831,-0.1708671237688739 l 4.7121946365928595 -17.23945632037154" fill="#ffe215" stroke="none" /><path d="M 93.42475214034765 119.94407469862007 l -2.306395436176437 6.995770174067832 a28.36615640862944,28.36615640862944 0 0,0 -0.4624092332814543,-0.15687431802280422 l 2.426474402395117 -6.955032869146905" fill="#ff5708" stroke="none" /><path d="M 92.06813273071674 119.44442032107085 l -2.6418736892020482 6.476369397525812 a27.994487626903553,27.994487626903553 0 0,0 -0.4446171714436901,-0.18585001372298343 l 2.752962320143201 -6.4299343407828555" fill="#ff5207" stroke="none" /><path d="M 91.07499286063937 119.00905698771935 l -3.1502374898227066 6.709579391236169 a28.412317576142133,28.412317576142133 0 0,0 -0.44091497003898994,-0.21166597997732173 l 3.2652651278619387 -6.654359134759285" fill="#ff5808" stroke="none" /><path d="M 90.42595943632237 118.69057910512821 l -2.29669144073945 4.483633923180541 a26.03763483502538,26.03763483502538 0 0,0 -0.397147205445317,-0.2077686475528803 l 2.3735295487112626 -4.443435856682944" fill="#ff3705" stroke="none" /><line stroke="#e1ed5e" stroke-width="0.3" x1="58.666819895761336" x2="56.23545636021788" y1="174.27360380694188" y2="178.64263932499728" /><path d="M 58.180547188652646 175.14741091055294 a86.0,86.0 0 0,1 -31.652253787137756,-30.449443065178592" fill="none" id="id260" stroke="none" /><text fill="#e1ed5e" style="font-size:6.75px; font-family:Arial;" text-anchor="middle"><textPath startOffset="22.20632615414155" xlink:href="#id260">August</textPath></text><path d="M 87.95078237400918 117.19931262002967 l -0.7130740534416937 1.0178572540610848 a22.242782360406093,22.242782360406093 0 0,0 -0.3116877619653497,-0.22238094233892572 l 0.7304891432559303 -1.0054320498779399" fill="#ff0000" stroke="none" /><path d="M 87.65650970185807 116.9893568818739 l -3.515802428329995 4.839086898302056 a26.98144035532995,26.98144035532995 0 0,0 -0.37339105176256937,-0.27622577357463396 l 3.5985784505111287 -4.777851175987655" fill="#ff4406" stroke="none" /><path d="M 85.18274418774928 114.88116024355367 l -2.69622144349212 2.707849811132954 a24.821264276649746,24.821264276649746 0 0,0 -0.3001710838585424,-0.30407172317077563 l 2.7424331524061953 -2.6610375939815136" fill="#ff2503" stroke="none" /><path d="M 84.9287848128048 114.62390073753433 l -4.290009381036049 4.16268167975364 a26.977633248730964,26.977633248730964 0 0,0 -0.3205115597552184,-0.3360550890150165 l 4.3610274921702255 -4.088219474156124" fill="#ff4406" stroke="none" /><path d="M 84.43433777217949 114.09645910891817 l -4.423963112893579 4.006396528944761 a26.968472398477157,26.968472398477157 0 0,0 -0.3086492228322399,-0.3467706738199706 l 4.492271185374157 -3.929651685383927" fill="#ff4406" stroke="none" /><path d="M 84.19399662182784 113.82643327865904 l -35.311971934817734 30.889441955256522 a67.91580742385787,67.91580742385787 0 0,0 -0.7621366065705056,-0.8865370544673712 l 35.838451050959016 -30.27702780162762" fill="#39ff89" stroke="none" /><path d="M 83.28015986056508 112.70617746262583 l -3.8114854940773553 2.8965235720015534 a25.78719860406091,25.78719860406091 0 0,0 -0.26553291245830485,-0.3557247290062856 l 3.8607796732307453 -2.83048596348596" fill="#ff3304" stroke="none" /><path d="M 82.44556493220864 111.52570212397912 l -7.616018386803517 5.000443418318984 a30.110881979695428,30.110881979695428 0 0,0 -0.28074115481200573,-0.4357165067116162 l 7.700964404992567 -4.868605311685919" fill="#ff6f0a" stroke="none" /><line stroke="#e1ed5e" stroke-width="0.3" x1="26.63291911575756" x2="22.317208475507996" y1="142.92168965132927" y2="145.44649492493687" /><path d="M 25.769776987707644 143.4266507060508 a86.0,86.0 0 0,1 -11.730757126820373,-40.83630448921669" fill="none" id="id261" stroke="none" /><text fill="#e1ed5e" style="font-size:6.75px; font-family:Arial;" text-anchor="middle"><textPath startOffset="21.46611528233685" xlink:href="#id261">September</textPath></text><path d="M 81.18737489456691 109.33194174019688 l -3.581190039020898 1.776437717618945 a24.997580901015226,24.997580901015226 0 0,0 -0.18789460655882634,-0.38711854205530566 l 3.611237902194443 -1.7145302195983545" fill="#ff2803" stroke="none" /><path d="M 81.02952815118164 109.00673069616217 l -7.412060151862805 3.519070596851885 a29.205028553299492,29.205028553299492 0 0,0 -0.21170222198713415,-0.45598775224646526 l 7.471536990689766 -3.3909627773265925" fill="#ff6309" stroke="none" /><path d="M 80.87730276802145 108.67885076344099 l -19.622995318325508 8.905911432548873 a42.549413071065985,42.549413071065985 0 0,0 -0.29695218214362534,-0.6695487776472946 l 19.773388585200415 -8.566814318408882" fill="#efff19" stroke="none" /><path d="M 80.32549172779594 107.34259656027581 l -50.39530684365257 18.80770800289964 a74.79049016497461,74.79049016497461 0 0,0 -0.4397529068048446,-1.2100111331686882 l 50.71158401146264 -17.937449072724835" fill="#42ffd3" stroke="none" /><path d="M 80.0844068197444 106.66101706037122 l -4.535707747044255 1.5170236914596362 a25.78267766497462,25.78267766497462 0 0,0 -0.1371488040346638,-0.4221006163207616 l 4.561148802095168 -1.4387241751610713" fill="#ff3304" stroke="none" /><path d="M 79.86692584326677 105.97154293290107 l -5.732118166167897 1.7001670713206096 a26.978941941624363,26.978941941624363 0 0,0 -0.12822366927601997,-0.44636341411490027 l 5.760534472330021 -1.6012461817011134" fill="#ff4406" stroke="none" /><path d="M 79.67330655649465 105.27499134158121 l -4.654669081912197 1.207935721235454 a25.808851522842637,25.808851522842637 0 0,0 -0.1078916740354444,-0.4309736060089115 l 4.6747720702427 -1.1276342758291507" fill="#ff3404" stroke="none" /><path d="M 79.58551787078972 104.9243191809786 l -24.609054950673976 5.936121257073893 a46.31487944162436,46.31487944162436 0 0,0 -0.18027390640728289,-0.7766152705961001 l 24.70758942301181 -5.511637329129218" fill="#c3ff1e" stroke="none" /><path d="M 79.50377843672027 104.57218783832718 l -27.957616306932664 6.236636000080427 a49.644789022842644,49.644789022842644 0 0,0 -0.1788771754159867,-0.8356546122654764 l 28.060827521073094 -5.754467568398787" fill="#9dff22" stroke="none" /><path d="M 79.29508885075956 103.50808413554451 l -3.8237552894020777 0.6478682845952677 a24.8782519035533,24.8782519035533 0 0,0 -0.06790370255569303,-0.42283642063345317 l 3.8343407463190617 -0.5819526342686009" fill="#ff2603" stroke="none" /><path d="M 79.10278846688536 102.07522291339032 l -4.770633361688653 0.47375352677424815 a25.794098984771573,25.794098984771573 0 0,0 -0.040073471097488274,-0.44220741429230004 l 4.778081429063217 -0.391564723933382" fill="#ff3304" stroke="none" /><path d="M 79.07016306316243 101.71520430193888 l -9.555332836039792 0.7830614273915921 a30.58736516497462,30.58736516497462 0 0,0 -0.0384868309071076,-0.5251222297979307 l 9.567396225611235 -0.6184660610969008" fill="#ff760a" stroke="none" /><line stroke="#e1ed5e" stroke-width="0.3" x1="15.007084014347285" x2="10.007500721073583" y1="101.09737516637583" y2="101.16192664675087" /><path d="M 14.007167355692545 101.11028546245083 a86.0,86.0 0 0,1 10.666146001902534,-42.60595125391555" fill="none" id="id262" stroke="none" /><text fill="#e1ed5e" style="font-size:6.75px; font-family:Arial;" text-anchor="middle"><textPath startOffset="22.20632615414155" xlink:href="#id262">October</textPath></text><path d="M 79.00175016825051 100.2711162175752 l -22.204645156394683 0.2866924365429241 a43.206495875634516,43.206495875634516 0 0,0 -0.003200783940228643,-0.7437494637654223 l 22.206290237624415 0.0955665054261736" fill="#e7ff1a" stroke="none" /><path d="M 79.00486145842228 99.54816195383935 l -12.881931507942515 -0.27723307239899003 a33.884914340101524,33.884914340101524 0 0,0 0.017569014318062834,-0.5830300525250275 l 12.875250799168807 0.4989332723490119" fill="#ffa20f" stroke="none" /><path d="M 79.03285615573316 98.82574320788736 l -9.04495540258849 -0.5065592335672212 a30.059129124365484,30.059129124365484 0 0,0 0.03337910124296354,-0.5163599222887215 l 9.034895710341114 0.6621782201089544" fill="#ff6f0a" stroke="none" /><path d="M 79.46518482838121 95.60439243477599 l -1.298666049678098 -0.2779877133033197 a22.328085342639593,22.328085342639593 0 0,0 0.0836831259030128,-0.37513504481118226 l 1.2936885367730475 0.30030092766446115" fill="#ff0100" stroke="none" /><path d="M 79.71946130924805 94.55025226153421 l -3.467678901296142 -0.9318280711489072 a24.59069638324873,24.59069638324873 0 0,0 0.11336689194687723,-0.4078410281591535 l 3.451125238782904 0.9913804027270032" fill="#ff2203" stroke="none" /><path d="M 79.91906864156998 93.8553929516997 l -5.72375712985707 -1.7514246612926316 a26.985723350253807,26.985723350253807 0 0,0 0.1397404490899255,-0.44301541113632475 l 5.692761196998941 1.8496902388553709" fill="#ff4406" stroke="none" /><path d="M 80.52162464483688 92.15188598940014 l -42.90788847768266 -17.288197531202012 a67.25979536802029,67.25979536802029 0 0,0 0.4419234812028017,-1.0701527627886744 l 42.60394330959366 18.024224864443998" fill="#38ff82" stroke="none" /><path d="M 80.95270993114464 91.15688171328213 l -1.4881774459503274 -0.690918715396835 a22.640743972081218,22.640743972081218 0 0,0 0.16715532562847374,-0.3520717456963821 l 1.476063926480102 0.7164328767337493" fill="#ff0600" stroke="none" /><path d="M 81.43458229118936 90.18545643968196 l -4.878323506347141 -2.5789087703448565 a26.518044098984774,26.518044098984774 0 0,0 0.21680635220776584,-0.4017092434626267 l 4.8332090549209035 2.662498997139956" fill="#ff3e05" stroke="none" /><line stroke="#e1ed5e" stroke-width="0.3" x1="26.266209847984243" x2="21.928928074336255" y1="57.711370442889674" y2="55.22380399835377" /><path d="M 25.398753493254645 57.213857153982495 a86.0,86.0 0 0,1 29.58750427330803,-30.492523968695096" fill="none" id="id263" stroke="none" /><text fill="#e1ed5e" style="font-size:6.75px; font-family:Arial;" text-anchor="middle"><textPath startOffset="21.46611528233685" xlink:href="#id263">November</textPath></text><path d="M 81.78341655067845 89.55222093294921 l -3.24202180291984 -1.8594006731119321 a24.737388959390863,24.737388959390863 0 0,0 0.2150271920667332,-0.3675511733304517 l 3.209534936382782 1.9149312587962757" fill="#ff2403" stroke="none" /><path d="M 82.34701348167596 88.62581576622439 l -2.2674294684975673 -1.4609516913759995 a23.69733502538071,23.69733502538071 0 0,0 0.22388719057553033,-0.3409955512637802 l 2.241945642564117 1.4997653066174466" fill="#ff1502" stroke="none" /><path d="M 82.7489923806493 88.02491185347247 l -14.200572239233917 -9.857575165940268 a38.286643401015226,38.286643401015226 0 0,0 0.38047330037433336,-0.5381525011060281 l 14.028786319055705 10.100554167378082" fill="#ffdb14" stroke="none" /><path d="M 84.31358615837235 86.03803664274999 l -29.46108154383649 -26.222344070027347 a60.44067258883248,60.44067258883248 0 0,0 0.6983958842439854,-0.7711861788443338 l 29.00534201897646 26.725583036141238" fill="#30ff32" stroke="none" /><path d="M 85.31137513191541 84.99185889309783 l -4.179607463653557 -4.270524923151225 a26.975491751269036,26.975491751269036 0 0,0 0.3346460768095393,-0.3219292607510342 l 4.10547814323159 4.3418372706645725" fill="#ff4406" stroke="none" /><path d="M 85.83668400450813 84.49514656593479 l -4.222708187424965 -4.62267957317982 a27.261024746192895,27.261024746192895 0 0,0 0.34918648207620057,-0.3135030713414669 l 4.142510717752794 4.694681653290566" fill="#ff4806" stroke="none" /><path d="M 86.37877921826538 84.01681056812374 l -3.8697070868885066 -4.540728206869033 a26.965973984771573,26.965973984771573 0 0,0 0.3558769737350546,-0.29803673102924033 l 3.7909725761943416 4.606666095292086" fill="#ff4406" stroke="none" /><path d="M 87.51073957382395 83.11751280151077 l -3.555058017884275 -4.805586514236387 a26.977633248730964,26.977633248730964 0 0,0 0.37570167606101496,-0.2729632455012218 l 3.4718110254694783 4.8660689945542765" fill="#ff4406" stroke="none" /><path d="M 88.09926311788651 82.69761687909137 l -7.509427539939495 -10.917894715411999 a34.25111040609137,34.25111040609137 0 0,0 0.4886415185251571,-0.32993293455692874 l 7.320381327007799 11.045539562267594" fill="#ffa70f" stroke="none" /><line stroke="#e1ed5e" stroke-width="0.3" x1="56.762969772571076" x2="54.21961505331055" y1="26.818313649435495" y2="22.513508569990535" /><path d="M 56.25429882871897 25.957352633546506 a86.0,86.0 0 0,1 42.265352541879196,-11.944610805530505" fill="none" id="id264" stroke="none" /><text fill="#e1ed5e" style="font-size:6.75px; font-family:Arial;" text-anchor="middle"><textPath startOffset="22.20632615414155" xlink:href="#id264">December</textPath></text><path d="M 90.58718382345135 81.22770947309562 l -11.889418384167794 -23.71146019610815 a47.52530139593909,47.52530139593909 0 0,0 0.7344440879510356,-0.360388524301918 l 11.479503029206331 23.912603880544896" fill="#b5ff20" stroke="none" /><path d="M 91.56875222667455 80.76684994638697 l -1.4664597188228823 -3.3452509732821194 a24.652561865482234,24.652561865482234 0 0,0 0.3901165104751907,-0.16702753043559185 l 1.4086594505573835 3.3699980316804976" fill="#ff2303" stroke="none" /><path d="M 93.25333710446033 80.11325718540243 l -2.020306611842482 -5.9551393953452685 a27.288507296954315,27.288507296954315 0 0,0 0.4461244433527512,-0.14708021483176092 l 1.9174993462473218 5.989033334436264" fill="#ff4806" stroke="none" /><path d="M 93.94186890950719 79.89281104454417 l -1.728732351891271 -5.737734547777793 a26.992504758883246,26.992504758883246 0 0,0 0.4460315809275995,-0.13020884946404035 l 1.6297105532402503 5.766641726160532" fill="#ff4406" stroke="none" /><path d="M 94.63758080256005 79.69619591428918 l -1.2191762872352165 -4.61618451869369 a25.774468591370557,25.774468591370557 0 0,0 0.42993177363927476,-0.10959918193091105 l 1.1395356249109425 4.636486696793465" fill="#ff3304" stroke="none" /><path d="M 94.98787191387505 79.60689891045804 l -15.036384258374849 -61.17930326862588 a84.0,84.0 0 0,0 1.407105252149864,-0.3330163514365161 l 13.98105531926245 61.42906553220327" fill="#4dd2ff" stroke="none" /><path d="M 95.33964822691252 79.52364482259891 l -1.1635830028085252 -5.112476483316959 a26.243218591370557,26.243218591370557 0 0,0 0.44133255177009995,-0.09645820198920811 l 1.0754077268849045 5.131748183402036" fill="#ff3a05" stroke="none" /><path d="M 96.40284397218896 79.31037775812273 l -2.0439016421165688 -11.755829479734176 a32.93218591370558,32.93218591370558 0 0,0 0.5593308996868179,-0.09229439098040704 l 1.8412415362908652 11.78927013365421" fill="#ff950d" stroke="none" /><path d="M 97.47563105711357 79.15227682838746 l -0.4862905477529413 -4.016073303822638 a25.045407677664976,25.045407677664976 0 0,0 0.42843544580907655,-0.04813971432614757 l 0.41708839843414675 4.023848971619383" fill="#ff2903" stroke="none" /></svg>