<?xml version="1.0" encoding="utf-8" ?>
<svg baseProfile="full" height="200mm" version="1.1" viewBox="0,0,200,200" width="200mm" xmlns="http://www.w3.org/2000/svg" xmlns:ev="http://www.w3.org/2001/xml-events" xmlns:xlink="http://www.w3.org/1999/xlink"><defs /><rect fill="#1a1a1a" height="200" width="200" x="0" y="0" /><text alignment-baseline="middle" fill="#e1ed5e" style="dominant-baseline: central; font-size:9.0px; font-family:Arial;" text-anchor="middle" x="100.0" y="100.0">2017</text><line stroke="#e1ed5e" stroke-width="0.3" x1="100.0" x2="100.0" y1="15.0" y2="10.0" /><path d="M 100.0 14.0 a86.0,86.0 0 0,1 42.46469731375804,11.215312516191453" fill="none" id="id205" stroke="none" /><text fill="#e1ed5e" style="font-size:6.75px; font-family:Arial;" text-anchor="middle"><textPath startOffset="22.20632615414155" xlink:href="#id205">January</textPath></text><path d="M 108.43124777332544 80.76684994638697 l 5.446526573753293 -12.424479232528968 a34.56585183164494,34.56585183164494 0 0,0 0.5428779059287762,0.24357349187911292 l -5.65958659814885 12.328885410133324" fill="#ff4206" stroke="none" /><line stroke="#e1ed5e" stroke-width="0.3" x1="143.23703022742887" x2="145.7803849466894" y1="26.818313649435467" y2="22.513508569990506" /><path d="M 143.74570117128098 25.957352633546478 a86.0,86.0 0 0,1 28.547481713284135,27.462654790039114" fill="none" id="id206" stroke="none" /><text fill="#e1ed5e" style="font-size:6.75px; font-family:Arial;" text-anchor="middle"><textPath startOffset="19.985693538727396" xlink:href="#id206">February</textPath></text><path d="M 114.68862486808459 84.99185889309781 l 43.11581808851898 -44.05370057601583 a82.6417253480426,82.6417253480426 0 0,0 1.0080881641225439,1.0037591131764383 l -43.86774205280884 43.30500561218927" fill="#4be0ff" stroke="none" /><line stroke="#e1ed5e" stroke-width="0.3" x1="172.23445277983987" x2="176.4835382374775" y1="55.19839476539836" y2="52.563006222186495" /><path d="M 173.08426987136738 54.67131705675599 a86.0,86.0 0 0,1 12.851231095245387,41.99856678651699" fill="none" id="id207" stroke="none" /><text fill="#e1ed5e" style="font-size:6.75px; font-family:Arial;" text-anchor="middle"><textPath startOffset="22.20632615414155" xlink:href="#id207">March</textPath></text><path d="M 118.73160827565052 90.50648371742162 l 13.098467752604758 -6.6385392570816375 a35.684687975365385,35.684687975365385 0 0,0 0.2729708482916366,0.5502925732489954 l -13.210798613849802 6.412087095333693" fill="#ff5507" stroke="none" /><path d="M 120.08093135843002 93.85539295169968 l 9.14862873485374 -2.7994084339552323 a30.56734525917672,30.56734525917672 0 0,0 0.14962584921875863,0.5044639805715918 l -9.1954604811842 2.6415150666371106" fill="#ff0000" stroke="none" /><path d="M 120.37134235888165 94.90015583598534 l 11.023814104526748 -2.7597461686977147 a32.36400793412274,32.36400793412274 0 0,0 0.1306383964243908,0.5415804928925183 l -11.069685301211958 2.56958044414579" fill="#ff1e03" stroke="none" /><path d="M 120.53481517161879 95.60439243477599 l 14.349713384869448 -3.0716472578971907 a35.674784192786234,35.674784192786234 0 0,0 0.12336799743622262,0.6015861687515397 l -14.400460678220668 2.82418543298224" fill="#ff5407" stroke="none" /><line stroke="#e1ed5e" stroke-width="0.3" x1="184.98032266829074" x2="189.97916517819016" y1="98.17113171792111" y2="98.06355123074" /><path d="M 185.9800911702706 98.14961562048488 a86.0,86.0 0 0,1 -9.607161424134198,41.387399972396054" fill="none" id="id208" stroke="none" /><text fill="#e1ed5e" style="font-size:6.75px; font-family:Arial;" text-anchor="middle"><textPath startOffset="21.466115282336823" xlink:href="#id208">April</textPath></text><path d="M 119.79798401119884 107.00284435728193 l 22.09660097942634 7.815899709604625 a44.438175336714735,44.438175336714735 0 0,0 -0.2612874542514362,0.7189508556036521 l -21.95878926416968 -8.195098362214408" fill="#ffda14" stroke="none" /><line stroke="#e1ed5e" stroke-width="0.3" x1="174.80103733775053" x2="179.2010983576182" y1="140.37084112569926" y2="142.7455964860345" /><path d="M 175.68104954172406 140.8457921977663 a86.0,86.0 0 0,1 -30.038265399797805,32.042727171017184" fill="none" id="id209" stroke="none" /><text fill="#e1ed5e" style="font-size:6.75px; font-family:Arial;" text-anchor="middle"><textPath startOffset="22.206326154141568" xlink:href="#id209">May</textPath></text><path d="M 118.30583269289576 110.29060199501023 l 16.84132206512367 9.467329093924793 a40.319949510128026,40.319949510128026 0 0,0 -0.3453077349825413,0.6020731420176596 l -16.67586233398875 -9.755822081800767" fill="#ff9d0e" stroke="none" /><path d="M 118.12598468904814 110.60418214915192 l 12.674721406100785 7.415048439341136 a35.68439668764246,35.68439668764246 0 0,0 -0.3147348907486731,0.5275137804118747 l -12.545205639653883 -7.632124313639116" fill="#ff5507" stroke="none" /><path d="M 116.27256486870786 113.27417163493432 l 11.53738173853462 9.411496383681431 a35.88917195685243,35.88917195685243 0 0,0 -0.39461682692122346,0.4753413891098448 l -11.373668911719854 -9.608699029905043" fill="#ff5808" stroke="none" /><path d="M 116.0416608686014 113.55231037782055 l 16.685905468472267 14.096580877502674 a42.84337505374952,42.84337505374952 0 0,0 -0.48077915460401965,0.5592547738783021 l -16.440783804297467 -14.381712750542507" fill="#ffc312" stroke="none" /><path d="M 115.80600337817218 113.82643327865902 l 18.924583291140685 16.554437066787507 a46.14337366666513,46.14337366666513 0 0,0 -0.5281024527691894,0.5933287040618475 l -18.63682198872316 -16.877739940590217" fill="#fff316" stroke="none" /><path d="M 115.07121518719521 114.62390073753431 l 17.69006015815969 17.16501825371935 a45.64905840087664,45.64905840087664 0 0,0 -0.5520479208709516,0.5592216292598721 l -17.391971612233203 -17.466980376959885" fill="#ffec16" stroke="none" /><path d="M 113.75828350139079 115.86535959552629 l 21.160228702024835 24.400910000674422 a53.297982716928445,53.297982716928445 0 0,0 -0.6982911940108039,0.5950989046399352 l -20.737072031436984 -24.7615332955373" fill="#aaff21" stroke="none" /><path d="M 113.20401910651253 116.32954008644616 l 14.758115445882993 18.251506289860117 a44.47167342485008,44.47167342485008 0 0,0 -0.5993987594868911,0.4761986257470615 l -14.44175919367875 -18.502838829612305" fill="#ffdb14" stroke="none" /><path d="M 111.45004920935366 117.60387380957326 l 8.229830404847704 12.652949631236229 a36.0939472260624,36.0939472260624 0 0,0 -0.5237372645589965,0.33427390201257356 l -8.010811338241776 -12.792737962072612" fill="#ff5b08" stroke="none" /><line stroke="#e1ed5e" stroke-width="0.3" x1="143.8653032363475" x2="146.44561519142675" y1="172.8068346515853" y2="177.08958963109032" /><path d="M 144.38136562736335 173.6633856474863 a86.0,86.0 0 0,1 -40.68145358897372,12.25698825130547" fill="none" id="id210" stroke="none" /><text fill="#e1ed5e" style="font-size:6.75px; font-family:Arial;" text-anchor="middle"><textPath startOffset="21.466115282336833" xlink:href="#id210">June</textPath></text><path d="M 110.21172684928248 118.3499491758327 l 14.846690575238604 26.67874116747306 a51.53161396516569,51.53161396516569 0 0,0 -0.7788075590540239,0.4246679774561278 l -14.38526020431593 -26.930349796688958" fill="#c1ff1e" stroke="none" /><line stroke="#e1ed5e" stroke-width="0.3" x1="102.19456741930631" x2="102.32365962044197" y1="184.97166512339345" y2="189.96999836594603" /><path d="M 102.22038585953345 185.97133177190398 a86.0,86.0 0 0,1 -42.740103519485714,-10.115201625700543" fill="none" id="id211" stroke="none" /><text fill="#e1ed5e" style="font-size:6.75px; font-family:Arial;" text-anchor="middle"><textPath startOffset="22.20632615414155" xlink:href="#id211">July</textPath></text><path d="M 98.73552117531835 120.96189622390904 l -0.8828451177914487 14.635363898314617 a35.66196753297793,35.66196753297793 0 0,0 -0.6124301674421234,-0.04223677001674529 l 1.134638046012502 -14.617998783781585" fill="#ff5407" stroke="none" /><path d="M 96.58105272829116 120.7198165907248 l -2.4639923534130572 14.932511555859575 a36.134436219547716,36.134436219547716 0 0,0 -0.6128246011842643,-0.10654741214554449 l 2.720665926069371 -14.887885565193026" fill="#ff5c08" stroke="none" /><path d="M 90.42595943632237 118.69057910512821 l -17.740622221015222 34.63349677606872 a59.91283561662837,59.91283561662837 0 0,0 -0.9138393477828887,-0.47807755604514685 l 18.334152471324607 -34.322989801078855" fill="#58ff2a" stroke="none" /><line stroke="#e1ed5e" stroke-width="0.3" x1="58.666819895761336" x2="56.23545636021788" y1="174.27360380694188" y2="178.64263932499728" /><path d="M 58.180547188652646 175.14741091055294 a86.0,86.0 0 0,1 -31.652253787137756,-30.449443065178592" fill="none" id="id212" stroke="none" /><text fill="#e1ed5e" style="font-size:6.75px; font-family:Arial;" text-anchor="middle"><textPath startOffset="22.20632615414155" xlink:href="#id212">August</textPath></text><path d="M 89.7882731507175 118.34994917583269 l -9.35326208550919 16.807332043884028 a40.234602207313635,40.234602207313635 0 0,0 -0.6022760388716075,-0.3419880533103691 l 9.641186891302004 -16.643840824779026" fill="#ff9c0e" stroke="none" /><line stroke="#e1ed5e" stroke-width="0.3" x1="26.63291911575756" x2="22.317208475507996" y1="142.92168965132927" y2="145.44649492493687" /><path d="M 25.769776987707644 143.4266507060508 a86.0,86.0 0 0,1 -11.730757126820373,-40.83630448921669" fill="none" id="id213" stroke="none" /><text fill="#e1ed5e" style="font-size:6.75px; font-family:Arial;" text-anchor="middle"><textPath startOffset="21.46611528233685" xlink:href="#id213">September</textPath></text><path d="M 80.58989483394504 108.01547362559985 l -26.540063993356327 10.959816092728403 a49.713978574169715,49.713978574169715 0 0,0 -0.3198204066778364,-0.7937680210937302 l 26.72478701429155 -10.501348703791868" fill="#d9ff1c" stroke="none" /><path d="M 79.35854240842038 103.8639653848113 l -24.022640217674763 4.496903856767198 a45.43991381582293,45.43991381582293 0 0,0 -0.13730115197212456,-0.7700577759690557 l 24.096487811986076 -4.0827273300649285" fill="#ffe915" stroke="none" /><line stroke="#e1ed5e" stroke-width="0.3" x1="15.007084014347285" x2="10.007500721073583" y1="101.09737516637583" y2="101.16192664675087" /><path d="M 14.007167355692545 101.11028546245083 a86.0,86.0 0 0,1 10.666146001902526,-42.60595125391555" fill="none" id="id214" stroke="none" /><text fill="#e1ed5e" style="font-size:6.75px; font-family:Arial;" text-anchor="middle"><textPath startOffset="22.20632615414155" xlink:href="#id214">October</textPath></text><path d="M 79.00486145842228 99.54816195383935 l -14.637605455615432 -0.3150170710442341 a35.64099481692798,35.64099481692798 0 0,0 0.01847952578435631,-0.6132454953727202 l 14.63001423537543 0.5669327138419488" fill="#ff5407" stroke="none" /><path d="M 79.54389044137918 95.25157060432595 l -61.3683286758625 -14.245288187022146 a84.0,84.0 0 0,0 0.3390687989567409,-1.4056590733624128 l 61.114027076644945 15.299532492043955" fill="#4dd2ff" stroke="none" /><path d="M 79.91906864156998 93.8553929516997 l -10.55107494219089 -3.228545942402924 a32.03397894405889,32.03397894405889 0 0,0 0.16588188301196322,-0.5258909004601926 l 10.493937575410724 3.4096870092895313" fill="#ff1902" stroke="none" /><line stroke="#e1ed5e" stroke-width="0.3" x1="26.266209847984243" x2="21.928928074336255" y1="57.71137044288968" y2="55.22380399835378" /><path d="M 25.398753493254645 57.2138571539825 a86.0,86.0 0 0,1 29.58750427330803,-30.4925239686951" fill="none" id="id215" stroke="none" /><text fill="#e1ed5e" style="font-size:6.75px; font-family:Arial;" text-anchor="middle"><textPath startOffset="21.46611528233685" xlink:href="#id215">November</textPath></text><path d="M 84.07557802195018 86.31012108654704 l -9.170931465639377 -7.8840501376586944 a33.093974967750285,33.093974967750285 0 0,0 0.37507787185122576,-0.42877884629209806 l 9.033861730210308 8.040744540153735" fill="#ff2a04" stroke="none" /><path d="M 85.83668400450813 84.49514656593477 l -9.915781528295986 -10.854996056670357 a35.70216523874034,35.70216523874034 0 0,0 0.45730905563115265,-0.41057658543993847 l 9.727461485068861 11.024071650879577" fill="#ff5507" stroke="none" /><line stroke="#e1ed5e" stroke-width="0.3" x1="56.76296977257108" x2="54.21961505331056" y1="26.818313649435495" y2="22.513508569990535" /><path d="M 56.25429882871898 25.957352633546506 a86.0,86.0 0 0,1 42.26535254187918,-11.944610805530505" fill="none" id="id216" stroke="none" /><text fill="#e1ed5e" style="font-size:6.75px; font-family:Arial;" text-anchor="middle"><textPath startOffset="22.20632615414155" xlink:href="#id216">December</textPath></text><path d="M 89.63071344664047 81.73862282372117 l -18.127996948309487 -31.92526197631769 a57.71303073316658,57.71303073316658 0 0,0 0.8681026740596202,-0.4830981982393589 l 17.57577018517782 32.232575572117234" fill="#72ff27" stroke="none" /></svg>